<svg width="5000" height="2698" viewBox="0 0 5000 2698" fill="none" xmlns="http://www.w3.org/2000/svg">
<path d="M5000 1457.99C4775.78 1436.54 4565.65 1431.64 4380.27 1448.32C4059.6 1477.18 3813.07 1570.64 3696.06 1754.82C3633.16 1853.82 3607.61 1979.05 3627.99 2134.57C3650.04 2302.79 3570.48 2365.82 3416.45 2376.68C3288.53 2385.69 3109.21 2358.47 2894 2325.8C2321.92 2238.96 1495.74 2113.55 711.547 2528.98C471.31 2656.25 232.282 2704.2 2.34375e-05 2696.91V2693.58C231.525 2700.9 469.706 2653.16 708.999 2526.39C1494.75 2110.14 2322.03 2235.72 2894.86 2322.67C3109.75 2355.29 3288.77 2382.47 3416.03 2373.49C3567.3 2362.83 3645.39 2300.71 3623.65 2134.87C3603.2 1978.74 3628.89 1852.96 3692.09 1753.47C3809.84 1568.15 4057.58 1474.13 4379.74 1445.14C4565.32 1428.43 4775.63 1433.32 5000 1454.76V1457.99ZM5000 1404.38C4768.5 1382.17 4551.47 1377.19 4360.53 1394.82C4038.86 1424.54 3791.31 1518.47 3673.64 1702.37C3610.95 1800.35 3585.06 1923.9 3604.4 2076.93V2076.93C3625.35 2248.04 3543.33 2311.38 3386.75 2321.7C3258.36 2330.16 3079.82 2302.71 2866.75 2269.97C2300.84 2182.99 1490.96 2058.52 735.018 2470.98L735.02 2470.98C488.09 2607.88 240.776 2655.35 2.34375e-05 2642.29V2638.95C240.003 2652.03 486.44 2604.78 732.39 2468.43L732.408 2468.42C1489.93 2055.09 2300.94 2179.74 2867.63 2266.83C3080.38 2299.53 3258.65 2326.93 3386.38 2318.51C3540.18 2308.38 3620.72 2245.95 3600.06 2077.22C3580.65 1923.6 3606.68 1799.5 3669.69 1701.02C3788.08 1515.99 4036.85 1421.51 4360 1391.66C4551.15 1374 4768.35 1378.96 5000 1401.16V1404.38ZM5000 1377.53C4764.91 1354.94 4544.46 1349.93 4350.78 1368.05C4028.55 1398.2 3780.44 1492.38 3662.43 1676.15C3599.83 1773.62 3573.78 1896.34 3592.6 2048.1L3592.61 2048.11C3613.01 2220.68 3529.75 2284.17 3371.91 2294.21C3243.32 2302.39 3065.15 2274.83 2853.15 2242.04C2290.35 2155 1488.62 2031 746.742 2441.99L746.738 2441.99C496.572 2583.89 245.093 2630.9 2.34375e-05 2614.66V2611.32C244.316 2627.57 494.918 2580.79 744.092 2439.45L744.11 2439.43C1487.57 2027.57 2290.44 2151.74 2854.03 2238.91C3065.69 2271.65 3243.55 2299.15 3371.53 2291.01C3526.6 2281.15 3608.37 2218.56 3588.25 2048.39H3588.26C3569.37 1896.02 3595.56 1772.76 3658.48 1674.79C3777.22 1489.89 4026.53 1395.17 4350.23 1364.88C4544.14 1346.74 4764.77 1351.73 5000 1374.3V1377.53H5000ZM5000 1350.62C4761.35 1327.68 4537.5 1322.66 4341.09 1341.26C4018.27 1371.85 3769.58 1466.27 3651.22 1649.93C3588.72 1746.9 3562.5 1868.77 3580.8 2019.29L3580.81 2019.29C3600.65 2193.32 3516.15 2256.96 3357.06 2266.72C3228.24 2274.62 3050.48 2246.95 2839.56 2214.12C2279.89 2127 1486.31 2003.48 758.462 2412.99V2412.99C505.141 2560.04 249.461 2606.47 2.34375e-05 2586.87V2583.51C248.682 2603.14 503.475 2556.94 755.791 2410.47L755.817 2410.45C1485.26 2000.04 2279.98 2123.74 2840.47 2210.99C3051.05 2243.76 3228.51 2271.38 3356.7 2263.52C3513.02 2253.93 3596.03 2191.19 3576.46 2019.56H3576.46C3558.09 1868.44 3584.46 1746.02 3647.27 1648.56C3766.36 1463.79 4016.25 1368.82 4340.54 1338.09C4537.18 1319.47 4761.21 1324.47 5000 1347.39V1350.62ZM5000 1323.67C4757.83 1300.39 4530.6 1295.36 4331.48 1314.45C4008.02 1345.47 3758.73 1440.16 3640 1623.71C3577.62 1720.16 3551.23 1841.19 3569.01 1990.46V1990.48C3588.29 2165.96 3502.54 2229.74 3342.21 2239.22C3213.19 2246.84 3035.84 2219.06 2826 2186.19C2269.48 2099.01 1484.08 1975.97 770.231 2383.97C513.827 2536.32 253.9 2582.04 2.34375e-05 2558.87V2555.52C253.097 2578.7 512.112 2533.23 767.481 2381.49L767.518 2381.47C1482.99 1972.52 2269.56 2095.74 2826.9 2183.05C3036.4 2215.87 3213.46 2243.61 3341.87 2236.02C3499.42 2226.71 3583.67 2163.83 3564.66 1990.74H3564.66C3546.81 1840.88 3573.35 1719.3 3636.06 1622.34C3755.51 1437.67 4006 1342.44 4330.92 1311.28C4530.28 1292.17 4757.68 1297.18 5000 1320.44L5000 1323.67ZM5000 1296.67C4754.33 1273.06 4523.76 1268.03 4321.93 1287.62C3997.82 1319.08 3747.88 1414.03 3628.79 1597.5C3566.51 1693.44 3539.95 1813.63 3557.22 1961.65V1961.66C3575.92 2138.62 3488.92 2202.53 3327.35 2211.72C3198.13 2219.07 3021.19 2191.17 2812.44 2158.25C2259.1 2071 1481.86 1948.45 781.958 2354.97L781.964 2354.97C522.575 2512.76 258.388 2557.54 2.34375e-05 2530.61V2527.23C257.579 2554.18 520.844 2509.65 779.181 2352.5L779.224 2352.49C1480.76 1945 2259.18 2067.74 2813.35 2155.12C3021.77 2187.98 3198.43 2215.84 3327.03 2208.53C3485.82 2199.5 3571.31 2136.47 3552.86 1961.91H3552.86C3535.53 1813.3 3562.23 1692.57 3624.84 1596.12C3744.66 1411.55 3995.8 1316.05 4321.37 1284.46C4523.43 1264.84 4754.19 1269.85 5000 1293.44V1296.67ZM5000 1269.62C4750.88 1245.71 4516.98 1240.69 4312.47 1260.77C3987.66 1292.67 3737.04 1387.89 3617.56 1571.28C3555.39 1666.7 3528.67 1786.05 3545.42 1932.83V1932.84C3563.54 2111.28 3475.28 2175.33 3312.5 2184.22C3183.09 2191.29 3006.56 2163.28 2798.9 2130.31C2248.76 2043 1479.7 1920.94 793.699 2325.97C531.417 2489.34 262.935 2533.04 2.34375e-05 2502.15V2498.75C262.122 2529.67 529.669 2486.23 790.88 2323.53L790.923 2323.5C1478.56 1917.48 2248.83 2039.73 2799.82 2127.18C3007.16 2160.09 3183.41 2188.06 3312.18 2181.03C3472.2 2172.28 3558.94 2109.11 3541.07 1933.09H3541.06C3524.25 1785.74 3551.12 1665.84 3613.64 1569.9C3733.84 1385.41 3985.64 1289.64 4311.91 1257.6C4516.65 1237.5 4750.73 1242.5 5000 1266.4L5000 1269.62ZM5000 1242.53C4747.46 1218.31 4510.26 1213.32 4303.1 1233.9C3977.54 1266.24 3726.22 1361.74 3606.34 1545.06C3544.27 1639.98 3517.39 1758.48 3533.62 1904.01V1904.02C3551.16 2083.94 3461.64 2148.12 3297.65 2156.72C3168.05 2163.51 2991.95 2135.38 2785.38 2102.37C2238.45 2014.99 1477.54 1893.42 805.39 2296.99L805.386 2296.99C540.332 2466.06 267.529 2508.53 2.34375e-05 2473.47V2470.06C266.728 2505.15 538.601 2462.94 802.582 2294.55L802.623 2294.51C1476.4 1889.95 2238.51 2011.72 2786.3 2099.24C2992.55 2132.19 3168.39 2160.29 3297.34 2153.52C3458.57 2145.07 3546.56 2081.76 3529.27 1904.26H3529.27C3512.97 1758.16 3540.01 1639.11 3602.41 1543.68C3723.01 1359.26 3975.52 1263.21 4302.51 1230.73C4509.91 1210.12 4747.31 1215.1 5000 1239.3L5000 1242.53ZM5000 1215.38C4744.08 1190.88 4503.6 1185.92 4293.8 1207C3967.47 1239.79 3715.4 1335.58 3595.11 1518.85C3533.16 1613.26 3506.1 1730.92 3521.82 1875.18V1875.2C3538.77 2056.6 3447.99 2120.91 3282.79 2129.21C3153.03 2135.73 2977.35 2107.48 2771.87 2074.43C2228.19 1986.98 1475.48 1865.91 817.175 2267.96H817.177C549.424 2442.92 272.229 2483.93 2.34375e-05 2444.49V2441.08C271.397 2480.54 547.63 2439.81 814.272 2265.57L814.331 2265.53C1474.3 1862.44 2228.23 1983.7 2772.79 2071.29C2977.96 2104.29 3153.37 2132.51 3282.5 2126.02C3444.93 2117.85 3534.18 2054.42 3517.47 1875.44H3517.47C3501.69 1730.59 3528.89 1612.38 3591.19 1517.46C3712.19 1333.1 3965.44 1236.76 4293.22 1203.83C4503.25 1182.73 4743.92 1187.67 5000 1212.16L5000 1215.38ZM5000 1188.19C4740.75 1163.42 4497.02 1158.5 4284.6 1180.08C3957.44 1213.32 3704.6 1309.41 3583.89 1492.64C3522.03 1586.53 3494.83 1703.35 3510.03 1846.37V1846.39C3526.37 2029.28 3434.32 2093.71 3267.94 2101.71C3138.03 2107.95 2962.78 2079.57 2758.37 2046.47C2217.94 1958.95 1473.39 1838.38 828.849 2238.99C558.545 2419.94 276.957 2459.28 2.34375e-05 2415.26V2411.82C276.141 2455.87 556.779 2416.82 825.971 2236.59L826.03 2236.55C1472.21 1834.92 2217.99 1955.69 2759.31 2043.35C2963.38 2076.39 3138.34 2104.73 3267.67 2098.51C3431.29 2090.64 3521.79 2027.08 3505.67 1846.6H3505.67C3490.41 1703.01 3517.77 1585.65 3579.96 1491.25C3701.39 1306.93 3955.41 1210.29 4284 1176.91C4496.66 1155.31 4740.58 1160.21 5000 1184.97L5000 1188.19ZM5000 1160.94C4737.45 1135.92 4490.5 1131.06 4275.49 1153.13C3947.46 1186.82 3693.8 1283.22 3572.66 1466.43C3510.91 1559.81 3483.54 1675.79 3498.23 1817.55V1817.57C3513.96 2001.95 3420.65 2066.5 3253.09 2074.2C3123.03 2080.17 2948.2 2051.66 2744.89 2018.51C2207.74 1930.93 1471.38 1810.87 840.581 2209.99L840.579 2209.99C567.827 2397.11 281.779 2434.59 2.34375e-05 2385.77V2382.31C280.957 2431.16 566.046 2393.99 837.669 2207.61L837.732 2207.57C1470.18 1807.4 2207.78 1927.66 2745.83 2015.39C2948.81 2048.49 3123.35 2076.95 3252.83 2071C3417.64 2063.43 3509.4 1999.75 3493.88 1817.78H3493.88C3479.13 1675.44 3506.66 1558.92 3568.74 1465.04C3690.6 1280.74 3945.43 1183.8 4274.89 1149.97C4490.14 1127.86 4737.28 1132.71 5000 1157.72V1160.94ZM5000 1133.65C4734.2 1108.38 4484.05 1103.58 4266.47 1126.16C3937.53 1160.3 3683.02 1257.02 3561.43 1440.23C3499.79 1533.09 3472.26 1648.22 3486.43 1788.73V1788.75C3501.56 1974.63 3406.97 2039.3 3238.25 2046.68C3108.04 2052.39 2933.65 2023.75 2731.43 1990.56C2197.59 1902.91 1469.44 1783.36 852.352 2180.96C577.261 2374.43 286.688 2409.83 2.34375e-05 2355.99V2352.53C285.848 2406.39 575.436 2371.3 849.364 2178.63L849.441 2178.58C1468.19 1779.88 2197.61 1899.64 2732.37 1987.44C2934.26 2020.58 3108.37 2049.16 3237.99 2043.49C3403.96 2036.22 3497 1972.42 3482.08 1788.95H3482.08C3467.84 1647.86 3495.54 1532.19 3557.5 1438.82C3679.81 1254.54 3935.5 1157.28 4265.87 1122.99C4483.7 1100.39 4734.03 1105.17 5000 1130.42L5000 1133.65ZM5000 1106.3C4730.99 1080.81 4477.69 1076.08 4257.56 1099.17C3927.65 1133.76 3672.25 1230.81 3550.2 1414.02C3488.67 1506.37 3460.97 1620.66 3474.63 1759.9V1759.93C3489.14 1947.32 3393.28 2012.1 3223.4 2019.17C3093.04 2024.6 2919.09 1995.84 2717.97 1962.59C2187.46 1874.88 1467.52 1755.86 864.108 2151.95C586.817 2351.91 291.673 2384.94 2.34375e-05 2325.89V2322.41C290.818 2381.48 584.959 2348.77 861.064 2149.66L861.139 2149.61C1466.25 1752.36 2187.47 1871.61 2718.93 1959.47C2919.73 1992.67 3093.4 2021.38 3223.16 2015.98C3390.29 2009.01 3484.59 1945.09 3470.28 1760.13H3470.28C3456.56 1620.29 3484.41 1505.46 3546.27 1412.62C3669.04 1228.33 3925.62 1130.74 4256.94 1096C4477.33 1072.89 4730.82 1077.59 5000 1103.07V1106.3ZM5000 1078.88C4727.83 1053.18 4471.41 1048.55 4248.74 1072.14C3917.82 1107.19 3661.48 1204.59 3538.95 1387.82C3477.54 1479.65 3449.69 1593.09 3462.83 1731.09V1731.11C3476.72 1920.01 3379.58 1984.89 3208.56 1991.65C3078.07 1996.82 2904.56 1967.93 2704.53 1934.63C2177.35 1846.85 1465.59 1728.34 875.776 2122.99C596.448 2329.54 296.71 2359.98 2.34375e-05 2295.52V2292.02C295.87 2356.5 594.621 2326.39 872.76 2120.68L872.835 2120.62C1464.33 1724.85 2177.37 1843.57 2705.49 1931.5C2905.2 1964.76 3078.44 1993.6 3208.33 1988.46C3376.61 1981.81 3472.18 1917.77 3458.49 1731.3H3458.48C3445.28 1592.72 3473.29 1478.75 3535.04 1386.41C3658.29 1202.1 3915.8 1104.17 4248.12 1068.97C4471.04 1045.36 4727.66 1049.97 5000 1075.65L5000 1078.88ZM5000 1051.42C4724.72 1025.53 4465.21 1021 4240.03 1045.08C3908.04 1080.6 3650.74 1178.34 3527.71 1361.62C3466.41 1452.93 3438.4 1565.52 3451.04 1702.27V1702.29C3464.29 1892.7 3365.87 1957.69 3193.73 1964.14C3063.1 1969.03 2890.04 1940.01 2691.1 1906.65C2167.3 1818.81 1463.74 1700.83 887.511 2093.98C606.275 2307.33 301.852 2334.96 2.34375e-05 2264.89V2261.37C301.007 2331.46 604.431 2304.17 884.453 2091.71L884.536 2091.64C1462.46 1697.34 2167.31 1815.53 2692.08 1903.53C2890.71 1936.84 3063.5 1965.81 3193.51 1960.94C3362.91 1954.6 3459.76 1890.45 3446.68 1702.48C3433.99 1565.15 3462.16 1452.02 3523.8 1360.21C3647.54 1175.86 3906.02 1077.58 4239.42 1041.92C4464.84 1017.8 4724.55 1022.32 5000 1048.19V1051.42ZM5000 1023.9C4721.66 997.838 4459.1 993.409 4231.45 1018C3898.34 1053.98 3640 1152.09 3516.47 1335.42C3455.28 1426.22 3427.12 1537.96 3439.24 1673.45V1673.47C3451.85 1865.4 3352.15 1930.49 3178.9 1936.62C3048.15 1941.24 2875.54 1912.09 2677.69 1878.67C2157.29 1790.77 1461.95 1673.33 899.261 2064.97C616.268 2285.27 307.088 2309.78 2.34375e-05 2233.91V2230.38C306.23 2306.27 614.394 2282.1 896.149 2062.73L896.234 2062.66C1460.63 1669.82 2157.28 1787.49 2678.67 1875.55C2876.21 1908.91 3048.56 1938.02 3178.69 1933.42C3349.21 1927.39 3447.33 1863.14 3434.89 1673.65H3434.89C3422.71 1537.57 3451.04 1425.3 3512.55 1334.01C3636.81 1149.6 3896.31 1050.96 4230.81 1014.83C4458.71 990.212 4721.48 994.62 5000 1020.67V1023.9ZM5000 996.313C4718.65 970.09 4453.08 965.793 4222.97 990.883C3888.68 1027.33 3629.28 1125.81 3505.22 1309.22C3444.15 1399.5 3415.83 1510.39 3427.45 1644.62V1644.65C3439.41 1838.11 3338.42 1903.29 3164.07 1909.09C3033.21 1913.45 2861.05 1884.16 2664.3 1850.69C2147.31 1762.73 1460.2 1645.83 911.018 2035.95C626.422 2263.38 312.415 2284.47 2.34375e-05 2202.62V2199.07C311.542 2280.93 624.518 2260.19 907.849 2033.75L907.936 2033.68C1458.85 1642.32 2147.29 1759.44 2665.27 1847.57C2861.73 1880.99 3033.63 1910.24 3163.88 1905.9C3335.5 1900.19 3434.9 1835.84 3423.09 1644.83H3423.09C3411.42 1510 3439.9 1398.58 3501.3 1307.81C3626.09 1123.33 3886.66 1024.32 4222.33 987.716C4452.69 962.598 4718.47 966.878 5000 993.089L5000 996.313ZM5000 968.679C4715.7 942.314 4447.16 938.146 4214.61 963.737C3879.1 1000.66 3618.58 1099.53 3493.97 1283.03C3433.02 1372.79 3404.54 1482.83 3415.65 1615.81V1615.84C3426.96 1810.81 3324.68 1876.09 3149.25 1881.57C3018.27 1885.66 2846.57 1856.23 2650.91 1822.7C2137.35 1734.68 1458.46 1618.33 922.712 2006.98L922.706 2006.98C636.693 2241.64 317.808 2259.05 2.34375e-05 2171.03V2167.45C316.946 2255.49 634.809 2238.45 919.552 2004.78L919.64 2004.7C1457.1 1614.81 2137.33 1731.39 2651.9 1819.58C2847.27 1853.06 3018.72 1882.45 3149.08 1878.38C3321.78 1872.98 3422.45 1808.53 3411.29 1616H3411.29C3400.14 1482.43 3428.78 1371.85 3490.06 1281.61C3615.38 1097.05 3877.07 997.644 4213.98 960.568C4446.76 934.951 4715.51 939.101 5000 965.456V968.679ZM5000 940.98C4712.8 914.489 4441.33 910.467 4206.38 936.555C3869.57 973.953 3607.88 1073.22 3482.71 1256.84C3421.89 1346.07 3393.25 1455.26 3403.85 1586.99V1587.02C3414.51 1783.52 3310.95 1848.89 3134.45 1854.04C3003.36 1857.87 2832.11 1828.3 2637.54 1794.7C2127.47 1706.63 1456.85 1590.84 934.526 1977.91C647.26 2220.04 323.362 2233.5 2.34375e-05 2139.13V2135.58C322.418 2229.94 645.244 2216.87 931.24 1975.8L931.344 1975.72C1455.4 1587.3 2127.41 1703.33 2638.53 1791.58C2832.81 1825.13 3003.82 1854.65 3134.27 1850.85C3308.05 1845.78 3410.01 1781.23 3399.5 1587.17H3399.5C3388.85 1454.87 3417.65 1345.14 3478.81 1255.41C3604.7 1070.74 3867.55 970.937 4205.73 933.388C4440.93 907.274 4712.61 911.275 5000 937.757V940.98ZM5000 913.213C4709.97 886.615 4435.61 882.756 4198.29 909.338C3860.12 947.216 3597.2 1046.9 3471.45 1230.65C3410.75 1319.35 3381.96 1427.69 3392.05 1558.17V1558.2C3402.04 1756.24 3297.19 1821.69 3119.64 1826.51C2988.45 1830.08 2817.66 1800.36 2624.18 1766.7C2117.58 1678.57 1455.19 1563.34 946.229 1948.93C657.9 2198.62 328.955 2207.72 2.34375e-05 2106.85V2103.3C328.005 2204.16 655.884 2195.44 942.941 1946.82L943.045 1946.74C1453.74 1559.79 2117.52 1675.27 2625.18 1763.58C2818.38 1797.19 2988.94 1826.86 3119.49 1823.32C3294.32 1818.57 3397.56 1753.93 3387.7 1558.34C3377.56 1427.29 3406.51 1318.42 3467.55 1229.22C3594.03 1044.41 3858.1 944.202 4197.64 906.171C4435.2 879.562 4709.77 883.403 5000 909.994L5000 913.213ZM5000 885.385C4707.19 858.695 4429.99 855.01 4190.32 882.085C3850.73 920.446 3586.54 1020.56 3460.19 1204.47C3399.61 1292.65 3370.67 1400.13 3380.25 1529.35V1529.38C3389.57 1728.95 3283.44 1794.49 3104.84 1798.98C2973.6 1802.28 2803.24 1772.42 2610.83 1738.69C2107.75 1650.51 1453.6 1535.84 957.969 1919.91C668.756 2177.35 334.656 2181.81 2.34375e-05 2074.29V2070.73C333.687 2178.22 666.71 2174.17 954.641 1917.85L954.743 1917.77C1452.11 1532.3 2107.67 1647.21 2611.84 1735.58C2803.94 1769.26 2974.03 1799.07 3104.71 1795.79C3280.58 1791.37 3385.1 1726.64 3375.9 1529.52H3375.9C3366.28 1399.72 3395.38 1291.7 3456.3 1203.03C3583.36 1018.07 3848.71 917.433 4189.67 878.919C4429.58 851.817 4706.99 855.482 5000 882.166V885.385ZM5000 857.503C4704.46 830.733 4424.48 827.228 4182.5 854.788C3841.43 893.636 3575.9 994.194 3448.93 1178.28C3388.47 1265.94 3359.38 1372.57 3368.45 1500.53V1500.56C3377.1 1701.67 3269.67 1767.29 3090.06 1771.45C2958.73 1774.49 2788.82 1744.47 2597.5 1710.68C2097.95 1622.44 1452.07 1508.36 969.718 1890.89C679.82 2156.25 340.464 2155.74 2.34375e-05 2041.44V2037.85C339.467 2152.13 677.733 2153.06 966.342 1888.87L966.444 1888.79C1450.54 1504.8 2097.85 1619.14 2598.5 1707.57C2789.53 1741.31 2959.17 1771.28 3089.93 1768.26C3266.83 1764.16 3372.63 1699.35 3364.1 1500.69H3364.1C3354.98 1372.15 3384.24 1264.99 3445.03 1176.85C3572.72 991.721 3839.4 890.636 4181.83 851.633C4424.09 824.042 4704.29 827.523 5000 854.277V857.503ZM5000 829.548C4701.81 802.722 4419.09 799.413 4174.83 827.459C3832.2 866.798 3565.28 967.815 3437.66 1152.1C3377.33 1239.23 3348.08 1345.01 3356.66 1471.71V1471.74C3364.62 1674.39 3255.9 1740.09 3075.28 1743.91C2943.86 1746.69 2774.41 1716.52 2584.17 1682.66C2088.15 1594.37 1450.49 1480.86 981.381 1861.95L981.377 1861.95C691.012 2135.3 346.332 2129.47 2.34375e-05 2008.28V2004.69C345.347 2125.86 688.957 2132.11 978.042 1859.9L978.136 1859.81C1448.99 1477.3 2088.07 1591.06 2585.19 1679.55C2775.14 1713.37 2944.33 1743.48 3075.17 1740.72C3253.07 1736.96 3360.16 1672.06 3352.3 1471.86C3343.69 1344.58 3373.1 1238.27 3433.77 1150.66C3562.1 965.341 3830.17 863.799 4174.16 824.303C4418.7 796.227 4701.64 799.514 5000 826.326V829.548ZM5000 801.526C4699.23 774.659 4413.82 771.563 4167.3 800.088C3823.04 839.922 3554.67 941.416 3426.39 1125.93C3366.18 1212.53 3336.79 1317.45 3344.86 1442.89V1442.93C3352.13 1647.12 3242.12 1712.89 3060.52 1716.37C2929.02 1718.89 2760.02 1688.57 2570.86 1654.64C2078.44 1566.29 1449.06 1453.38 993.141 1832.93C702.493 2114.52 352.344 2102.99 2.34375e-05 1974.78V1971.15C351.323 2099.33 700.385 2111.32 989.732 1830.93L989.836 1830.83C1447.5 1449.81 2078.33 1562.98 2571.88 1651.53C2760.76 1685.41 2929.5 1715.69 3060.42 1713.18C3239.31 1709.75 3347.68 1644.77 3340.51 1443.04C3332.4 1317 3361.95 1211.55 3422.49 1124.47C3551.48 938.94 3821.01 836.925 4166.63 796.932C4413.42 768.377 4699.05 771.449 5000 798.302V801.526ZM5000 773.434C4696.72 746.543 4408.68 743.675 4159.94 772.674C3813.97 813.01 3544.07 915 3415.1 1099.75C3355.03 1185.81 3325.5 1289.88 3333.06 1414.07V1414.1C3339.64 1619.85 3228.34 1685.69 3045.77 1688.83H3045.76C2914.18 1691.09 2745.64 1660.62 2557.55 1626.6C2068.75 1538.21 1447.66 1425.9 1004.9 1803.9C714.191 2093.89 358.454 2076.29 2.34375e-05 1940.97V1937.34C357.402 2072.61 712.032 2090.69 1001.43 1801.95L1001.53 1801.86C1446.05 1422.32 2068.62 1534.9 2558.59 1623.5C2746.4 1657.46 2914.69 1687.89 3045.67 1685.64C3225.54 1682.54 3335.2 1617.49 3328.71 1414.21C3321.11 1289.44 3350.81 1184.85 3411.23 1098.3C3540.91 912.521 3811.94 810.011 4159.26 769.52C4408.27 740.487 4696.53 743.335 5000 770.213V773.434ZM5000 745.279C4694.28 718.381 4403.66 715.748 4152.74 745.217C3804.98 786.059 3533.5 888.556 3403.82 1073.58C3343.88 1159.11 3314.2 1262.32 3321.27 1385.25V1385.28C3327.14 1592.58 3214.54 1658.49 3031.02 1661.29C2899.37 1663.29 2731.28 1632.65 2544.26 1598.56C2059.07 1510.13 1446.25 1398.42 1016.59 1774.92C726.06 2073.41 364.642 2049.39 2.34375e-05 1906.9V1903.25C363.578 2045.68 723.9 2070.21 1013.13 1772.98L1013.23 1772.88C1444.64 1394.83 2058.95 1506.8 2545.3 1595.46C2732.04 1629.49 2899.88 1660.09 3030.94 1658.09C3211.76 1655.34 3322.7 1590.21 3316.91 1385.38C3309.81 1261.86 3339.66 1158.13 3399.95 1072.12C3530.33 886.081 3802.96 783.062 4152.06 742.061C4403.25 712.561 4694.09 715.171 5000 742.058L5000 745.279ZM5000 717.058C4691.91 690.17 4398.78 687.781 4145.71 717.715C3796.09 759.067 3522.95 862.096 3392.54 1047.41C3332.73 1132.41 3302.91 1234.75 3309.47 1356.43V1356.47C3314.63 1565.31 3200.75 1631.29 3016.3 1633.74C2884.56 1635.49 2716.92 1604.69 2530.98 1570.52C2049.46 1482.04 1444.93 1370.95 1028.35 1745.9C738.212 2053.1 370.956 2022.21 2.34375e-05 1872.5V1868.83C369.857 2018.48 736.003 2049.9 1024.83 1744.01L1024.93 1743.91C1443.28 1367.34 2049.32 1478.71 2532.04 1567.41C2717.71 1601.53 2885.11 1632.29 3016.23 1630.55C3197.98 1628.13 3310.21 1562.93 3305.11 1356.56C3298.52 1234.29 3328.51 1131.42 3388.67 1045.94C3519.78 859.62 3794.06 756.069 4145.02 714.558C4398.37 684.593 4691.72 686.961 5000 713.836V717.058ZM5000 688.762C4689.62 661.902 4394.04 659.771 4138.85 690.163C3787.28 732.031 3512.41 835.61 3381.25 1021.24C3321.57 1105.71 3291.61 1207.19 3297.67 1327.62V1327.65C3302.12 1538.05 3186.94 1604.08 3001.58 1606.2C2869.78 1607.69 2702.59 1576.72 2517.71 1542.47C2039.87 1453.94 1443.65 1343.48 1040.07 1716.9C750.574 2032.94 377.362 1994.83 2.34375e-05 1837.86V1834.17C376.235 1991.06 748.336 2029.74 1036.53 1715.03L1036.63 1714.93C1441.96 1339.86 2039.71 1450.61 2518.77 1539.36C2703.38 1573.56 2870.34 1604.49 3001.53 1603C3184.2 1600.92 3297.7 1535.66 3293.32 1327.73C3287.23 1206.73 3317.36 1104.72 3377.38 1019.78C3509.25 833.133 3785.26 729.035 4138.16 687.008C4393.62 656.585 4689.42 658.695 5000 685.545L5000 688.762ZM5000 660.398C4687.41 633.582 4389.44 631.723 4132.17 662.565C3778.58 704.953 3501.91 809.104 3369.96 995.083C3310.42 1079.01 3280.31 1179.64 3285.87 1298.8V1298.83C3289.6 1510.78 3173.14 1576.88 2986.88 1578.64C2855.01 1579.89 2688.26 1548.74 2504.45 1514.41C2030.32 1425.84 1442.43 1316.02 1051.83 1687.87C763.208 2012.94 383.883 1967.16 2.34375e-05 1802.93V1799.23C382.715 1963.36 760.915 2009.73 1048.23 1686.06L1048.33 1685.96C1440.69 1312.38 2030.15 1422.5 2505.53 1511.3C2689.08 1545.58 2855.59 1576.69 2986.83 1575.45C3170.41 1573.71 3285.19 1508.38 3281.52 1298.9C3275.93 1179.15 3306.2 1078 3366.08 993.602C3498.74 806.624 3776.55 701.958 4131.48 659.408C4389.01 628.534 4687.21 630.37 5000 657.178L5000 660.398ZM5000 631.958C4685.28 605.201 4384.99 603.628 4125.69 634.913C3769.96 677.832 3491.41 782.572 3358.66 968.922C3299.25 1052.31 3269.01 1152.07 3274.07 1269.97V1270.01C3277.08 1483.52 3159.32 1549.67 2972.19 1551.09C2840.29 1552.09 2673.97 1520.76 2491.21 1486.33C2020.82 1397.72 1441.25 1288.55 1063.57 1658.85C776.085 1993.09 390.499 1939.23 2.34375e-05 1767.75V1764.02C389.288 1935.39 773.743 1989.88 1059.93 1657.09L1060.03 1656.98C1439.45 1284.92 2020.62 1394.39 2492.28 1483.24C2674.76 1517.61 2840.82 1548.89 2972.16 1547.9C3156.6 1546.5 3272.68 1481.11 3269.72 1270.07C3264.63 1151.59 3295.05 1051.31 3354.79 967.442C3488.26 780.096 3767.94 674.836 4124.99 631.758C4384.56 600.44 4685.07 601.992 5000 628.739L5000 631.958ZM5000 603.446C4683.23 576.766 4380.69 575.489 4119.39 607.21C3761.46 650.662 3480.94 756.017 3347.35 942.762C3288.09 1025.61 3257.72 1124.51 3262.28 1241.16V1241.19C3264.55 1456.26 3145.51 1522.47 2957.52 1523.54C2825.56 1524.28 2659.67 1492.77 2477.97 1458.26C2011.34 1369.61 1440.08 1261.1 1075.28 1629.87C790.103 1972.3 399.704 1911.44 3.79902 1734.07L2.34375e-05 1732.36V1728.61C2.02402 1729.52 4.04902 1730.43 6.07302 1731.34C399.951 1907.8 788.275 1968.44 1071.63 1628.11L1071.72 1628.01C1438.27 1257.45 2011.13 1366.27 2479.06 1455.16C2660.48 1489.62 2826.11 1521.09 2957.5 1520.34C3142.81 1519.29 3260.16 1453.84 3257.93 1241.24C3253.34 1124.02 3283.89 1024.6 3343.49 941.282C3477.8 753.541 3759.43 647.667 4118.69 604.053C4380.26 572.3 4683.02 573.554 5000 600.226L5000 603.446ZM5000 574.86C4681.26 548.272 4376.56 547.303 4113.31 579.451C3753.06 623.445 3470.5 729.441 3336.05 916.613C3276.92 998.919 3246.41 1096.95 3250.48 1212.34V1212.37C3252.01 1429 3131.68 1495.26 2942.86 1495.98C2810.84 1496.48 2645.39 1464.78 2464.74 1430.17C2001.91 1341.49 1439.01 1233.65 1087.03 1600.84C815.462 1937.88 439.841 1888.13 54.775 1721.22C36.534 1713.31 18.272 1705.14 2.34375e-05 1696.73V1692.96C19.014 1701.72 38.019 1710.24 56.997 1718.46C439.999 1884.48 813.534 1934.05 1083.33 1599.14L1083.42 1599.04C1437.13 1229.99 2001.67 1338.15 2465.83 1427.07C2646.21 1461.63 2811.4 1493.28 2942.85 1492.78C3129 1492.08 3247.63 1426.57 3246.13 1212.41C3242.03 1096.45 3272.73 997.896 3332.19 915.121C3467.35 726.96 3751.03 620.449 4112.59 576.294C4376.11 544.114 4681.05 545.062 5000 571.643L5000 574.86ZM5000 546.197C4679.39 519.716 4372.58 519.069 4107.42 551.637C3744.76 596.179 3460.08 702.836 3324.74 890.464C3265.76 972.224 3235.11 1069.39 3238.68 1183.52V1183.56C3239.47 1401.74 3117.86 1468.05 2928.22 1468.42C2796.13 1468.67 2631.12 1436.79 2451.52 1402.08C1992.51 1313.38 1437.96 1206.21 1098.78 1571.82C840.187 1903.74 478.696 1864.24 104.199 1707.29L104.201 1707.28C69.555 1692.76 34.798 1677.23 0.00202344 1660.9V1657.11C35.522 1673.81 71 1689.69 106.36 1704.51H106.37C478.768 1860.58 838.164 1899.94 1095.03 1570.17L1095.12 1570.06C1436.04 1202.53 1992.25 1310.01 2452.63 1398.98C2631.96 1433.64 2796.73 1465.48 2928.22 1465.23C3115.19 1464.86 3235.09 1399.3 3234.33 1183.58C3230.73 1068.88 3261.56 971.197 3320.88 888.972C3456.93 700.357 3742.74 593.185 4106.7 548.482C4372.12 515.88 4679.17 516.509 5000 542.983V546.197H5000ZM5000 517.46C4677.6 491.102 4368.76 490.784 4101.73 523.763C3736.58 568.861 3449.69 676.208 3313.42 864.321C3254.58 945.537 3223.8 1041.84 3226.89 1154.7V1154.73C3226.92 1374.49 3104.03 1440.84 2913.6 1440.86C2781.46 1440.87 2616.87 1408.78 2438.31 1373.98C1983.16 1285.25 1436.98 1178.77 1110.53 1542.78C864.337 1869.87 516.356 1839.85 152.148 1692.36C101.666 1671.92 50.874 1649.21 2.34375e-05 1624.89V1621.07C51.581 1645.78 103.076 1668.83 154.246 1689.55C516.327 1836.18 862.211 1866.1 1106.73 1541.21L1106.82 1541.1C1434.99 1175.07 1982.86 1281.88 2439.42 1370.88C2617.71 1405.64 2782.05 1437.68 2913.6 1437.67C3101.38 1437.65 3222.55 1372.04 3222.53 1154.76C3219.43 1041.31 3250.39 944.494 3309.56 862.818C3446.53 673.728 3734.55 565.868 4101.01 520.609C4368.3 487.598 4677.38 487.895 5000 514.246L5000 517.46ZM5000 488.647C4675.9 462.426 4365.11 462.45 4096.27 495.83C3728.51 541.491 3439.31 649.554 3302.09 838.179C3243.41 918.841 3212.5 1014.27 3215.09 1125.88V1125.91C3214.37 1347.23 3090.2 1413.63 2899.01 1413.29C2766.78 1413.06 2602.62 1380.77 2425.1 1345.86C1973.8 1257.1 1435.96 1151.33 1122.2 1513.84H1122.2C887.872 1836.24 552.844 1814.97 198.673 1676.5C132.929 1650.79 66.53 1621.05 2.34375e-05 1588.71V1584.88C67.23 1617.61 134.322 1647.72 200.722 1673.68C552.759 1811.32 885.72 1832.52 1118.44 1512.23L1118.51 1512.13C1433.99 1147.62 1973.52 1253.73 2426.23 1342.77C2603.49 1377.63 2767.41 1409.87 2899.01 1410.1C3087.56 1410.43 3210.01 1344.78 3210.74 1125.93C3208.13 1013.75 3239.22 917.807 3298.25 836.675C3436.17 647.075 3726.5 538.499 4095.55 492.676C4364.65 459.264 4675.67 459.219 5000 485.434L5000 488.647ZM5000 459.758C4674.29 433.686 4361.63 434.063 4091.02 467.836C3720.55 514.069 3428.96 622.875 3290.76 812.039C3232.23 892.153 3201.19 986.712 3203.29 1097.07V1097.09C3201.81 1319.98 3076.36 1386.42 2884.42 1385.73C2752.14 1385.26 2588.39 1352.76 2411.91 1317.74C1964.53 1228.97 1435.08 1123.91 1133.96 1484.8C910.964 1802.87 588.303 1789.7 243.847 1659.79C163.414 1629.45 81.799 1592.74 2.34375e-05 1552.4V1548.54C82.489 1589.29 164.783 1626.37 245.848 1656.94C588.125 1786.04 908.708 1799.16 1130.13 1483.26L1130.21 1483.16C1433.04 1120.18 1964.2 1225.58 2413.04 1314.65C2589.26 1349.62 2752.78 1382.06 2884.43 1382.54C3073.74 1383.22 3197.46 1317.51 3198.94 1097.09C3196.83 986.18 3228.05 891.112 3286.92 810.535C3425.83 620.393 3718.54 511.075 4090.3 464.68C4361.17 430.875 4674.06 430.479 5000 456.543V459.758ZM5000 430.788C4672.78 404.881 4358.34 405.618 4086.01 439.775C3712.73 486.589 3418.64 596.171 3279.43 785.911C3221.05 865.474 3189.88 959.162 3191.49 1068.25V1068.27C3189.24 1292.72 3062.52 1359.2 2869.85 1358.16C2737.53 1357.45 2574.18 1324.74 2398.72 1289.6C1955.28 1200.81 1434.26 1096.49 1145.72 1455.75C933.578 1769.72 622.76 1764.07 287.738 1642.29C193.184 1607.91 96.712 1564.27 2.34375e-05 1515.96V1512.1C97.382 1560.82 194.513 1604.82 289.667 1639.41C622.476 1760.4 931.214 1766.05 1141.83 1454.29L1141.91 1454.19C1432.13 1092.75 1954.93 1197.43 2399.86 1286.52C2575.05 1321.6 2738.13 1354.26 2869.87 1354.97C3059.91 1356 3184.9 1290.25 3187.14 1068.26C3185.52 958.612 3216.87 864.414 3275.58 784.392C3415.5 593.688 3710.7 483.595 4085.27 436.618C4357.86 402.431 4672.54 401.672 5000 427.573L5000 430.788ZM5000 401.75C4841.23 389.319 4685.37 383.133 4535.76 383.976C4277.36 385.43 4037.64 407.792 3833.84 454.872C3630.23 501.908 3462.5 573.621 3347.89 673.803C3239.1 768.892 3178.13 889.685 3179.69 1039.43V1039.45C3176.66 1265.47 3048.68 1331.99 2855.3 1330.59C2722.92 1329.64 2559.98 1296.71 2385.54 1261.46C1946.09 1172.66 1433.47 1069.08 1157.46 1426.72C955.726 1736.79 656.249 1738.12 330.376 1624.05C222.27 1586.2 111.275 1535.64 2.34375e-05 1479.45V1475.56C111.943 1532.17 223.592 1583.11 332.259 1621.15C655.882 1734.44 953.27 1733.15 1153.53 1425.32L1153.61 1425.22C1431.27 1065.32 1945.69 1169.27 2386.69 1258.38C2560.85 1293.57 2723.54 1326.45 2855.33 1327.4C3046.09 1328.78 3172.34 1262.98 3175.34 1039.43C3173.77 888.874 3235.11 767.4 3344.54 671.746C3459.72 571.07 3628.14 499.034 3832.54 451.817C4036.74 404.645 4276.9 382.237 4535.75 380.782C4685.35 379.939 4841.22 386.123 5000 398.546V401.75ZM5000 372.601C4846.39 360.711 4695.43 354.679 4550.12 355.15C4286.17 356.004 4040.92 378.317 3832.49 425.923C3624.25 473.487 3452.8 546.3 3336.24 648.185C3227.95 742.831 3167.01 862.617 3167.9 1010.61V1010.64C3164.08 1238.22 3034.83 1304.77 2840.77 1303.02C2708.32 1301.83 2545.78 1268.68 2372.37 1233.31C1936.88 1144.49 1432.67 1041.66 1169.16 1397.76C977.401 1704.08 688.818 1711.86 371.846 1605.12C250.73 1564.33 125.513 1506.81 2.34375e-05 1442.86V1438.96C126.188 1503.34 252.053 1561.26 373.655 1602.21C688.385 1708.2 974.906 1700.48 1165.24 1396.35L1165.31 1396.25C1430.47 1037.89 1936.49 1141.09 2373.53 1230.23C2546.67 1265.54 2708.97 1298.64 2840.82 1299.83C3032.27 1301.55 3159.77 1235.71 3163.54 1010.6C3162.65 861.798 3223.97 741.335 3332.89 646.13C3450.02 543.747 3622.17 470.607 3831.19 422.866C4040.03 375.167 4285.72 352.811 4550.11 351.955C4695.42 351.485 4846.38 357.513 5000 369.395L5000 372.601ZM5000 343.41C4851.82 332.072 4706 326.163 4565.28 326.276C4295.63 326.492 4044.67 348.745 3831.46 396.888C3618.45 444.99 3443.14 518.938 3324.57 622.575C3216.8 716.774 3155.88 835.552 3156.1 981.795V981.813C3151.5 1210.96 3020.99 1277.55 2826.27 1275.45C2693.74 1274.02 2531.59 1240.63 2359.2 1205.15C1927.74 1116.33 1431.95 1014.26 1180.88 1368.76C998.708 1671.58 720.555 1685.37 412.174 1585.57C278.642 1542.36 139.469 1477.81 2.34375e-05 1406.24V1402.34C140.11 1474.32 279.915 1539.27 413.937 1582.64C720.041 1681.7 996.137 1668.01 1176.94 1367.38L1177 1367.29C1429.7 1010.48 1927.33 1112.91 2360.38 1202.06C2532.51 1237.5 2694.41 1270.83 2826.32 1272.25C3018.43 1274.33 3147.2 1208.45 3151.75 981.775C3151.53 834.729 3212.82 715.276 3321.22 620.519C3440.36 516.385 3616.38 442.111 3830.19 393.833C4043.8 345.595 4295.2 323.3 4565.28 323.083C4706 322.97 4851.81 328.872 5000 340.203L5000 343.41ZM5000 314.106C4857.49 303.33 4717.11 297.585 4581.27 297.356C4305.76 296.895 4048.91 319.076 3830.77 367.77C3612.82 416.42 3433.52 491.538 3312.9 596.973C3205.64 690.723 3144.75 808.485 3144.3 952.971V952.996C3138.91 1183.71 3007.14 1250.33 2811.78 1247.87C2679.19 1246.21 2517.42 1212.59 2346.05 1176.97C1918.64 1088.15 1431.3 986.87 1192.61 1339.74C1019.64 1639.27 751.489 1658.65 451.432 1565.44C305.996 1520.26 153.121 1448.6 2.34375e-05 1369.61V1365.7C153.768 1445.1 307.278 1517.19 453.125 1562.5C750.889 1655 1017 1635.74 1188.65 1338.41L1188.7 1338.33C1429.01 983.066 1918.2 1084.73 2347.23 1173.89C2518.34 1209.45 2679.86 1243.02 2811.84 1244.68C3004.6 1247.1 3134.62 1181.19 3139.95 952.946C3140.41 807.656 3201.66 689.222 3309.55 594.918C3430.74 488.985 3610.75 413.543 3829.51 364.715C4048.07 315.927 4305.35 293.699 4581.27 294.163C4717.11 294.391 4857.49 300.134 5000 310.902L5000 314.106ZM5000 16.5649C4927.17 11.6959 4854.72 8.16387 4782.96 6.02987C4442.26 -4.09913 4117.22 16.9149 3841.37 71.9229C3565.73 126.887 3339.27 215.79 3195.5 341.458C3093.7 430.438 3033.34 537.886 3026.33 664.802C3012.72 911.099 2868.64 977.998 2668.2 972.039C2534.63 968.069 2376.15 931.617 2214.67 894.475C2134.97 876.143 2054.54 857.641 1976.21 842.831C1688.55 788.443 1426.84 783.336 1322.88 1016.97C1478.32 748.925 1863.09 836.451 2229.08 919.734C2391.27 956.64 2549.77 992.708 2682.61 996.435C2880.08 1001.97 3021.14 935.77 3033.77 693.506C3040.18 564.063 3100.97 454.921 3203.95 364.907C3345.83 240.89 3567.78 153.214 3837.87 98.7899C4107.76 44.4069 4425.76 23.2109 4759.98 32.1129C4839.22 34.2229 4919.36 38.0309 5000 43.4849V46.6929C4919.31 41.2309 4839.11 37.4199 4759.83 35.3079C4426.03 26.4149 4108.47 47.5769 3839.02 101.871C3569.77 156.126 3348.58 243.466 3207.3 366.96C3104.93 456.444 3044.5 564.939 3038.13 693.618C3025.36 938.368 2882.49 1005.24 2682.46 999.628C2549.02 995.885 2390.26 959.759 2227.8 922.79C1848.62 836.508 1449.21 745.681 1308.83 1053.39C1472.25 774.739 1868.66 863.932 2242.21 948.035C2405.36 984.771 2564.15 1020.52 2696.87 1024.02C2893.92 1029.22 3033.77 963.046 3045.57 722.33C3051.33 591.126 3112.19 480.934 3215.74 390.424C3355.16 268.56 3571.94 182.405 3835.76 128.669C4099.38 74.9759 4410.02 53.6359 4737.37 61.3639C4823.93 63.4089 4911.66 67.4999 5000 73.5479V76.7549C4911.62 70.6989 4823.84 66.6019 4737.24 64.5579C4410.31 56.8419 4100.12 78.1429 3836.92 131.751C3573.94 185.317 3357.91 271.138 3219.08 392.479C3116.15 482.455 3055.65 591.999 3049.92 722.437V722.442C3038 965.635 2896.33 1032.48 2696.72 1027.22C2563.41 1023.7 2404.36 987.89 2240.92 951.091C1855.14 864.23 1444.84 771.902 1295.28 1087.92L1294.83 1088.99C1466.81 800.652 1874.62 891.496 2255.32 976.319C2419.45 1012.89 2578.54 1048.34 2711.16 1051.61C2907.75 1056.46 3046.39 990.316 3057.37 751.157C3062.47 618.186 3123.4 506.954 3227.51 415.949C3364.5 296.208 3576.23 211.532 3833.9 158.466C4091.37 105.441 4394.78 83.9649 4715.34 90.5849C4809 92.5199 4904.13 96.8719 5000 103.519V106.727C4904.09 100.072 4808.92 95.7139 4715.22 93.7789C4395.1 87.1649 4092.14 108.607 3835.08 161.546C3578.23 214.445 3367.24 298.786 3230.86 418.005C3127.36 508.47 3066.79 619.053 3061.72 751.251V751.257C3050.63 992.895 2910.18 1059.72 2711.02 1054.8C2577.83 1051.52 2418.47 1016.01 2254.05 979.374C1860.13 891.604 1437.07 797.408 1279.55 1126.43C1459.82 826.334 1879.9 918.901 2268.44 1004.58C2433.57 1040.99 2592.98 1076.15 2725.47 1079.19C2921.59 1083.7 3059.01 1017.59 3069.16 779.981C3073.61 645.249 3134.6 532.976 3239.26 441.489C3373.86 323.841 3580.66 240.6 3832.34 188.184C4083.8 135.811 4380.12 114.203 4693.96 119.779C4794.47 121.564 4896.78 126.139 5000 133.385V136.592C4896.75 129.339 4794.41 124.758 4693.86 122.973C4380.45 117.407 4084.57 138.978 3833.52 191.266C3582.67 243.51 3376.61 326.419 3242.61 443.544C3138.56 534.495 3077.94 646.112 3073.52 780.068V780.08C3063.26 1020.16 2924.03 1086.96 2725.33 1082.39C2592.24 1079.33 2432.57 1044.12 2267.19 1007.65C1866.07 919.2 1431.14 823.33 1264.48 1162.71C1453.72 852.146 1885.71 946.429 2281.56 1032.83C2447.68 1069.09 2607.42 1103.96 2739.81 1106.78C2935.42 1110.94 3071.63 1044.86 3080.96 808.812C3084.75 672.316 3145.79 559.005 3251.01 467.036C3383.25 351.441 3585.26 269.595 3831.07 217.815C4076.66 166.081 4366.05 144.346 4673.28 148.936C4780.38 150.535 4889.66 155.355 5000 163.199V166.404C4889.63 158.552 4780.32 153.729 4673.19 152.128C4366.41 147.548 4077.46 169.246 3832.26 220.896C3587.28 272.506 3386.01 354.016 3254.35 469.091C3149.76 560.519 3089.08 673.172 3085.31 808.885V808.898C3075.88 1047.42 2937.89 1114.19 2739.69 1109.97C2606.68 1107.14 2446.69 1072.22 2280.31 1035.9C1873.76 947.159 1428.9 850.058 1251.28 1194.64C1250.56 1196.21 1249.81 1197.73 1249.08 1199.29C1447.57 878.09 1891.52 973.953 2294.68 1061.07C2461.78 1097.18 2621.86 1131.77 2754.16 1134.36C2949.26 1138.18 3084.23 1072.12 3092.76 837.639C3095.89 699.381 3156.98 585.039 3262.74 492.592C3392.67 379.017 3590.01 298.531 3830.1 247.369C4070 196.248 4352.61 174.398 4653.32 178.058C4766.74 179.439 4882.74 184.462 5000 192.901V196.109C4882.72 187.662 4766.69 182.634 4653.25 181.253C4352.96 177.599 4070.78 199.409 3831.31 250.437C3592.04 301.424 3395.44 381.583 3266.09 494.649C3160.95 586.548 3100.22 700.23 3097.11 837.701V837.713C3088.5 1074.68 2951.74 1141.42 2754.06 1137.55C2621.16 1134.96 2460.82 1100.31 2293.45 1064.14C1882.67 975.37 1429.29 877.403 1239.56 1223.64C1237.91 1227.06 1236.23 1230.41 1234.54 1233.76C1443.16 904.326 1898.22 1001.66 2307.81 1089.3C2475.9 1125.26 2636.32 1159.59 2768.56 1161.94C2963.09 1165.41 3096.83 1099.39 3104.56 866.463C3107.02 726.448 3168.16 611.079 3274.46 518.159C3402.14 406.558 3594.94 327.386 3829.46 276.83C4063.78 226.317 4339.8 204.358 4634.12 207.142C4753.58 208.272 4876.06 213.496 5000 222.527V225.734C4876.05 216.696 4753.54 211.467 4634.07 210.337C4340.18 207.557 4064.59 229.476 3830.69 279.9C3596.97 330.283 3404.9 409.124 3277.81 520.216C3172.13 612.588 3111.35 727.293 3108.91 866.519V866.536C3101.11 1101.93 2965.59 1168.65 2768.45 1165.14C2635.65 1162.77 2474.97 1128.39 2306.6 1092.37C1891.6 1003.57 1429.69 904.748 1227.82 1252.68C1224.85 1258.53 1221.84 1264.23 1218.81 1269.86C1437.4 930.378 1904.35 1029.24 2320.95 1117.51C2490.04 1153.33 2650.81 1187.4 2782.96 1189.52C2976.93 1192.64 3109.43 1126.65 3116.35 895.29C3118.15 753.515 3179.33 637.118 3286.17 543.736C3411.63 434.068 3600.04 356.177 3829.15 306.208C4058.06 256.284 4327.65 234.229 4615.71 236.191C4740.92 237.045 4869.63 242.453 5000 252.071V255.276C4869.62 245.65 4740.89 240.238 4615.67 239.385C4328.04 237.423 4058.88 259.44 3830.38 309.277C3602.08 359.067 3414.4 436.631 3289.52 545.79C3183.31 638.623 3122.49 754.353 3120.71 895.334V895.353C3113.71 1129.19 2979.44 1195.88 2782.87 1192.72C2650.15 1190.58 2489.11 1156.46 2319.74 1120.58C1900.59 1031.77 1430.2 932.115 1216.1 1281.67C1211.62 1290.11 1207.07 1298.31 1202.44 1306.31C1431.19 956.299 1910.36 1056.79 2334.08 1145.7C2504.19 1181.39 2665.34 1215.21 2797.4 1217.1C2990.77 1219.87 3122.03 1153.92 3128.15 924.111C3129.29 780.577 3190.5 663.164 3297.86 569.319C3421.17 461.537 3605.31 384.888 3829.16 335.497C4052.81 286.15 4316.16 264.006 4598.08 265.195C4728.76 265.747 4863.43 271.331 5000 281.527V284.732C4863.43 274.527 4728.74 268.939 4598.06 268.387C4316.57 267.2 4053.66 289.308 3830.41 338.566C3607.36 387.78 3423.93 464.101 3301.21 571.373C3194.48 664.667 3133.63 781.415 3132.51 924.148V924.174C3126.32 1156.44 2993.29 1223.1 2797.31 1220.29C2664.64 1218.39 2503.25 1184.52 2332.89 1148.78C1909.61 1059.97 1430.77 959.496 1204.39 1310.66C1040.27 1607.15 781.69 1631.74 489.655 1544.77C332.876 1498.09 166.514 1419.19 2.34375e-05 1333.01V1329.09C167.141 1415.67 334.133 1495 491.295 1541.81C777.817 1627.14 1031.87 1604.14 1194.95 1318.96C1038.43 1577.58 798.603 1601.09 526.905 1523.62C359.306 1475.82 179.651 1389.55 2.34375e-05 1296.45V1292.53C180.261 1386.02 360.541 1472.75 528.471 1520.63C801.068 1598.36 1041.33 1573.56 1196.48 1308.42C1047.56 1547.56 821.109 1572.31 563.198 1502C385.303 1453.5 192.533 1359.7 2.34375e-05 1259.98V1256.06C193.142 1356.15 386.544 1450.43 564.72 1499C823.367 1569.52 1050.13 1543.53 1197.76 1298.52C1056.08 1518.14 842.703 1543.5 598.615 1479.97C410.948 1431.12 205.202 1329.62 2.34375e-05 1223.61V1219.71C205.77 1326.04 412.138 1428.04 600.065 1476.95C846.521 1541.09 1061.41 1513.73 1201.83 1284.35C1067.07 1488.8 865.204 1515.1 633.168 1457.54C436.202 1408.69 217.619 1299.3 2.34375e-05 1187.41V1183.5C218.193 1295.7 437.417 1405.61 634.567 1454.51C868.507 1512.54 1071.53 1484.45 1205.12 1271.7C1076.94 1460.08 886.563 1486.6 666.916 1434.77C461.139 1386.21 229.826 1268.74 2.34375e-05 1151.39V1147.49C230.392 1265.13 462.37 1383.14 668.25 1431.73C891.136 1484.32 1083.62 1455.33 1210.7 1255.77C1088.78 1431.39 908.613 1458.43 699.893 1411.67C493.523 1365.43 259.408 1246.91 26.203 1128.84L2.34375e-05 1115.58V1111.7L28.678 1126.21C261.611 1244.14 495.449 1362.53 701.155 1408.61C913.368 1456.16 1095.82 1426.57 1216.71 1239.53C1100.75 1403.05 930.306 1430.34 732.128 1388.27C527.668 1344.88 293.875 1227.52 60.043 1110.14C40.021 1100.09 20.002 1090.04 -0.000976562 1080.03V1076.16C20.82 1086.57 41.662 1097.03 62.503 1107.49C296.056 1224.73 529.577 1341.95 733.335 1385.2C935.142 1428.03 1107.93 1398.1 1222.94 1223.18C1112.66 1375.03 951.564 1402.29 763.67 1364.6C561.304 1324.01 328.011 1207.88 93.721 1091.27C62.473 1075.72 31.209 1060.15 -0.000976562 1044.76V1040.91C32.022 1056.7 64.102 1072.66 96.164 1088.62C330.15 1205.09 563.144 1321.06 764.815 1361.52C956.944 1400.06 1120.78 1369.83 1230.19 1205.6C1125.3 1347.15 972.888 1374.4 794.553 1340.68C594.396 1302.84 361.793 1188.03 127.231 1072.26C84.825 1051.33 42.35 1030.37 2.34375e-05 1009.83V1006C43.156 1026.91 86.44 1048.27 129.655 1069.61C363.918 1185.23 596.22 1299.89 795.628 1337.59C1005.09 1377.19 1178.46 1331.61 1280.02 1112.28C1280.79 1110.41 1281.55 1108.56 1282.3 1106.66L1282.31 1106.64C1283.48 1103.84 1284.71 1101.15 1285.92 1098.41C1288.67 1091.64 1291.38 1084.75 1294.01 1077.69V1077.68C1296.92 1070.09 1300.03 1062.8 1303.22 1055.64C1304.05 1053.34 1304.9 1051.06 1305.71 1048.72C1400.31 779.5 1674.57 782.503 1977.28 839.737C2055.92 854.604 2136.32 873.097 2215.97 891.418C2377.19 928.498 2535.41 964.893 2668.37 968.845C2866.25 974.728 3008.5 908.495 3021.97 664.677C3029.02 537.001 3089.74 428.911 3192.15 339.4C3336.53 213.196 3563.76 123.957 3840.22 68.8269C4116.48 13.7379 4441.98 -7.30813 4783.13 2.83487C4854.83 4.96687 4927.23 8.49487 5000 13.3549L5000 16.5649ZM2.34375e-05 2666.38C235.74 2676.48 478.038 2628.9 720.691 2497.41L720.699 2497.41C1492.32 2082.61 2311.47 2207.73 2881.25 2294.75C3095.06 2327.41 3273.71 2354.7 3401.21 2346C3553.74 2335.61 3633.06 2273.33 3611.86 2106.04C3591.92 1951.18 3617.78 1826.24 3680.9 1727.24C3798.97 1542.07 4047.21 1447.82 4369.84 1418.4C4558.21 1401.22 4771.98 1406.16 5000 1427.99V1431.21C4772.13 1409.37 4558.54 1404.42 4370.37 1421.58C4049.21 1450.87 3802.18 1544.57 3684.84 1728.6C3622.05 1827.08 3596.34 1951.47 3616.2 2105.74V2105.75C3637.69 2275.41 3556.91 2338.6 3401.6 2349.19C3273.44 2357.93 3094.5 2330.59 2880.36 2297.89C2311.36 2210.98 1493.33 2086.03 723.28 2499.98L723.276 2499.98C479.663 2631.99 236.503 2679.79 2.34375e-05 2669.72V2666.38Z" fill="#00CCFF"/>
</svg>
