<svg width="75" height="114" viewBox="0 0 75 114" fill="none" xmlns="http://www.w3.org/2000/svg">
<path d="M62.4937 59.6591L31.1317 41.5501C30.4067 41.1311 29.7507 41.0961 29.2797 41.3771C28.8187 41.6521 25.7067 43.4421 25.2367 43.7111C24.7637 43.9811 24.4707 44.5651 24.4707 45.3961V90.9871C24.4707 92.6441 25.6337 94.6591 27.0687 95.4871L58.4307 113.596C59.1547 114.014 59.8097 114.05 60.2807 113.77C60.7427 113.495 63.8597 111.704 64.3297 111.432C64.7997 111.161 65.0907 110.578 65.0907 109.75V64.1601C65.0917 62.5021 63.9287 60.4871 62.4937 59.6591Z" fill="#455A64"/>
<path d="M65.0905 64.1616V109.747C65.0905 110.577 64.8005 111.157 64.3305 111.437C63.8905 111.687 61.1205 113.277 60.4005 113.697C60.8005 113.397 61.0305 112.847 61.0305 112.097V66.5016C61.0305 65.6816 60.7405 64.7616 60.2705 63.9416L64.3305 61.6016C64.8005 62.4116 65.0905 63.3316 65.0905 64.1616Z" fill="#263238"/>
<path d="M27.0697 95.4857L58.4317 113.595C59.8667 114.423 61.0297 113.752 61.0297 112.095V66.5047C61.0297 64.8477 59.8667 62.8327 58.4317 62.0047L27.0697 43.8957C25.6347 43.0677 24.4717 43.7387 24.4717 45.3957V90.9857C24.4717 92.6427 25.6347 94.6577 27.0697 95.4857Z" fill="#455A64"/>
<path d="M64.3305 61.6003L60.2705 63.9403C59.8005 63.1303 59.1505 62.4203 58.4305 62.0003L27.0725 43.8943C26.4125 43.5143 25.8125 43.4443 25.3525 43.6443C26.0825 43.2243 28.8525 41.6343 29.2825 41.3743C29.7525 41.0943 30.4025 41.1343 31.1325 41.5543L62.4895 59.6603C63.2105 60.0703 63.8605 60.7803 64.3305 61.6003Z" fill="#37474F"/>
<path d="M51.3401 91.2024C50.6501 89.9474 49.9107 88.7519 49.1844 87.5477C47.7348 85.1437 46.41 84.2561 45.3278 86.1532C44.7206 87.218 42.9499 87.3037 42.061 86.1692C39.6104 83.0432 37.7177 79.3159 36.6094 74.8405C36.1199 72.8606 37.0466 70.8298 38.1927 70.2924C38.7999 70.0091 39.4114 69.6111 39.3635 68.1963C39.2996 66.3515 36.4481 58.663 35.3224 57.376C34.8561 56.8429 34.3927 56.5916 33.9192 56.564C31.2784 56.4071 28.1205 59.6841 29.1678 64.2482C32.2923 77.8618 34.8736 85.0187 43.5789 96.3881C47.2917 101.275 52.0533 98.5873 52.9031 96.6772C53.4638 94.5593 52.2785 92.9063 51.3401 91.2024Z" fill="#FAFAFA"/>
<path d="M44.4883 61.779C50.0212 66.2834 52.5734 71.8091 53.2779 80.7962C53.3433 81.6257 53.1516 82.7079 53.8851 83.1553C54.6521 83.6215 54.4676 82.3389 54.4749 81.5501C54.3441 72.3306 50.6038 63.7951 44.6481 60.0271C44.2879 59.8121 43.4178 58.8912 43.3655 60.245C43.3306 61.1558 44.0308 61.4056 44.4883 61.779Z" fill="#FAFAFA"/>
<path d="M44.7674 65.1991C44.2343 64.7938 43.5327 64.0007 43.4078 65.0669C43.2785 66.1854 44.0614 66.5166 44.564 66.98C47.9819 70.1292 49.1716 72.7307 49.7338 78.2753C49.8166 79.0829 49.6524 80.1738 50.492 80.4614C51.1137 80.675 50.89 79.5303 50.9423 78.9667C50.9714 73.9727 48.1824 67.8021 44.7674 65.1991Z" fill="#FAFAFA"/>
<path d="M44.2503 69.7261C43.8944 69.5344 43.5457 69.3921 43.4165 69.9019C43.2204 70.6616 43.6329 71.109 44.0527 71.4547C45.4545 72.611 46.1924 74.3091 46.3333 76.5432C46.3711 77.1489 46.6122 77.7619 46.9783 77.9071C47.4867 78.1076 47.5317 77.4379 47.5172 76.7668C47.5404 74.3628 45.7653 70.5425 44.2503 69.7261Z" fill="#FAFAFA"/>
<path d="M64.0637 40.2792L62.2687 36.2282C62.1407 35.9412 61.7277 35.5922 61.3837 35.4802C60.9307 35.3322 60.4677 35.1442 60.0057 34.9212C59.9167 34.8762 59.8287 34.8692 59.7567 34.8992C59.6937 34.9242 59.6467 34.9772 59.6167 35.0552L58.7157 37.4592C58.5777 37.8262 58.3067 38.0842 57.9707 38.1662C57.6327 38.2502 57.2747 38.1452 56.9827 37.8832L53.8787 35.0922C53.4037 34.6652 53.1077 33.8662 53.1897 33.2332L53.5907 30.1292C53.6357 29.7902 53.4857 29.2342 53.2727 28.9412C52.7767 28.2612 52.2997 27.5372 51.8587 26.7882C51.7007 26.5202 51.2847 26.2712 50.9867 26.2662L48.8747 26.2302C48.1907 26.2192 47.4977 25.7272 47.2607 25.0852L45.5757 20.5172C45.4497 20.1762 45.4657 19.8092 45.6197 19.4812C45.7727 19.1542 46.0467 18.9082 46.3897 18.7882L48.1387 18.1752C48.3577 18.0982 48.5157 17.8222 48.4767 17.5832C48.3597 16.8422 48.2817 16.1042 48.2467 15.3882C48.2297 15.0142 48.0057 14.4682 47.7677 14.2192L45.0437 11.3592C44.5977 10.8922 44.3767 10.0682 44.5277 9.44217L45.2817 6.31417C45.3747 5.92917 45.6137 5.64217 45.9377 5.52617C46.2627 5.41017 46.6307 5.48017 46.9467 5.71917L49.7187 7.81917C49.8987 7.95517 50.1037 7.86116 50.2197 7.71716C50.4247 7.46216 50.6477 7.22316 50.8817 7.00916C51.1137 6.79516 51.2477 6.40317 51.1737 6.15217L49.9597 2.05517C49.8547 1.70217 49.9027 1.32816 50.0917 1.03016C50.2797 0.731165 50.5977 0.528167 50.9627 0.470167L53.1807 0.126165C53.8667 0.0191652 54.6247 0.434166 54.9077 1.06917L56.7037 5.12117C56.8297 5.40717 57.2417 5.75617 57.5857 5.86817C58.0407 6.01617 58.5047 6.20417 58.9647 6.42717C59.0527 6.47017 59.1437 6.47917 59.2137 6.44917C59.2767 6.42417 59.3237 6.37117 59.3537 6.29317L60.2547 3.88917C60.3927 3.52217 60.6647 3.26416 61.0007 3.18216C61.3367 3.10216 61.6967 3.20317 61.9877 3.46617L65.0917 6.25717C65.5687 6.68417 65.8637 7.48417 65.7817 8.11717L65.3807 11.2202C65.3367 11.5602 65.4857 12.1162 65.6997 12.4092C66.1937 13.0862 66.6697 13.8102 67.1137 14.5632C67.2717 14.8312 67.6867 15.0792 67.9857 15.0842L70.0977 15.1202C70.7827 15.1312 71.4757 15.6242 71.7107 16.2652L73.3977 20.8342C73.5227 21.1752 73.5067 21.5422 73.3527 21.8692C73.1987 22.1962 72.9247 22.4422 72.5827 22.5612L70.8347 23.1742C70.6157 23.2512 70.4577 23.5272 70.4957 23.7662C70.6147 24.5152 70.6917 25.2532 70.7257 25.9602C70.7447 26.3352 70.9677 26.8812 71.2047 27.1302L73.9307 29.9902C74.3747 30.4572 74.5957 31.2802 74.4457 31.9062L73.6907 35.0352C73.5977 35.4202 73.3587 35.7072 73.0347 35.8232C72.7127 35.9392 72.3437 35.8682 72.0267 35.6302L69.2537 33.5302C69.0717 33.3952 68.8677 33.4892 68.7527 33.6312C68.5487 33.8852 68.3267 34.1232 68.0917 34.3402C67.8597 34.5542 67.7247 34.9462 67.7987 35.1962L69.0127 39.2932C69.1177 39.6462 69.0707 40.0202 68.8817 40.3182C68.6927 40.6172 68.3747 40.8202 68.0097 40.8772L65.7927 41.2212C65.7207 41.2322 65.6467 41.2382 65.5727 41.2382C64.9487 41.2382 64.3157 40.8472 64.0637 40.2792ZM69.8447 32.7452L72.6177 34.8452C72.6597 34.8772 72.6877 34.8882 72.6947 34.8952C72.7037 34.8832 72.7187 34.8552 72.7307 34.8052L73.4857 31.6762C73.5587 31.3742 73.4287 30.8942 73.2147 30.6692L70.4887 27.8092C70.0917 27.3922 69.7687 26.6192 69.7397 26.0082C69.7077 25.3372 69.6347 24.6342 69.5197 23.9202C69.4087 23.2142 69.8407 22.4782 70.5047 22.2452L72.2537 21.6322C72.3447 21.6002 72.4177 21.5352 72.4587 21.4482C72.4987 21.3622 72.5027 21.2642 72.4697 21.1732L70.7837 16.6032C70.6887 16.3462 70.3527 16.1072 70.0777 16.1032L67.9667 16.0672C67.3257 16.0562 66.5937 15.6242 66.2627 15.0622C65.8347 14.3372 65.3767 13.6392 64.9017 12.9882C64.5417 12.4942 64.3257 11.6792 64.4007 11.0932L64.8017 7.98917C64.8427 7.67617 64.6657 7.19916 64.4307 6.98816L61.3267 4.19617C61.2737 4.14817 61.2367 4.13717 61.2337 4.13617C61.2257 4.14017 61.1977 4.16717 61.1727 4.23417L60.2717 6.63717C60.1447 6.97617 59.8977 7.23317 59.5767 7.36217C59.2467 7.49517 58.8747 7.47717 58.5327 7.31117C58.1127 7.10817 57.6897 6.93717 57.2777 6.80217C56.7497 6.63017 56.0727 6.13417 55.7997 5.51817L54.0037 1.46716C53.9017 1.23516 53.5767 1.05717 53.3277 1.09817L51.1107 1.44217C51.0237 1.45517 50.9587 1.49417 50.9197 1.55517C50.8827 1.61517 50.8757 1.69117 50.8997 1.77517L52.1137 5.87217C52.2947 6.48017 52.0547 7.26317 51.5447 7.73317C51.3467 7.91517 51.1577 8.11717 50.9837 8.33417C50.5057 8.92817 49.7037 9.04517 49.1217 8.60417L46.3487 6.50417C46.3067 6.47217 46.2777 6.46117 46.2707 6.45417C46.2617 6.46617 46.2477 6.49316 46.2347 6.54416L45.4807 9.67317C45.4077 9.97417 45.5367 10.4552 45.7517 10.6802L48.4757 13.5402C48.8747 13.9572 49.1977 14.7322 49.2257 15.3412C49.2587 16.0212 49.3327 16.7232 49.4457 17.4282C49.5577 18.1342 49.1267 18.8702 48.4617 19.1042L46.7117 19.7172C46.6207 19.7492 46.5477 19.8142 46.5077 19.9012C46.4667 19.9872 46.4627 20.0852 46.4967 20.1762L48.1817 24.7452C48.2767 25.0032 48.6137 25.2422 48.8887 25.2462L50.9997 25.2822C51.6387 25.2932 52.3707 25.7252 52.7037 26.2882C53.1297 27.0102 53.5877 27.7082 54.0647 28.3622C54.4257 28.8572 54.6407 29.6722 54.5647 30.2572L54.1637 33.3602C54.1237 33.6732 54.3007 34.1512 54.5347 34.3622L57.6387 37.1532C57.6917 37.2012 57.7297 37.2122 57.7317 37.2142C57.7397 37.2102 57.7677 37.1832 57.7927 37.1162L58.6937 34.7132C58.8207 34.3742 59.0677 34.1172 59.3897 33.9882C59.7227 33.8552 60.0937 33.8752 60.4327 34.0382C60.8537 34.2422 61.2767 34.4122 61.6877 34.5472C62.2147 34.7182 62.8917 35.2142 63.1667 35.8312L64.9627 39.8832C65.0657 40.1162 65.3897 40.2932 65.6387 40.2522L67.8557 39.9082C67.9417 39.8952 68.0077 39.8562 68.0457 39.7962C68.0827 39.7362 68.0907 39.6602 68.0657 39.5762L66.8517 35.4782C66.6717 34.8692 66.9117 34.0872 67.4207 33.6182C67.6177 33.4362 67.8057 33.2362 67.9817 33.0162C68.2647 32.6642 68.6617 32.4802 69.0577 32.4802C69.3327 32.4782 69.6077 32.5652 69.8447 32.7452ZM57.5457 27.7142C54.0667 24.5852 51.9877 18.9182 52.9127 15.0812C53.3327 13.3412 54.3217 12.1472 55.6987 11.7202C57.3977 11.1932 59.4817 11.8912 61.4217 13.6352C64.9017 16.7632 66.9807 22.4312 66.0557 26.2682C65.6357 28.0082 64.6467 29.2022 63.2697 29.6292C62.8987 29.7442 62.5087 29.8012 62.1067 29.8012C60.6667 29.8002 59.0617 29.0762 57.5457 27.7142ZM55.9907 12.6592C54.9437 12.9842 54.2107 13.9012 53.8707 15.3102C53.0207 18.8332 54.9657 24.0692 58.2047 26.9812C59.8807 28.4872 61.6187 29.1072 62.9787 28.6872C64.0257 28.3622 64.7587 27.4452 65.0987 26.0362C65.9487 22.5132 64.0037 17.2782 60.7637 14.3652C59.4327 13.1682 58.0607 12.5292 56.8707 12.5292C56.5647 12.5302 56.2697 12.5732 55.9907 12.6592Z" fill="#27DEBF"/>
<path d="M35.8052 30.0244L34.5152 27.1174C34.4342 26.9344 34.1582 26.7004 33.9342 26.6284C33.6022 26.5194 33.2662 26.3834 32.9342 26.2224C32.8952 26.2034 32.8552 26.1944 32.7702 26.2734L32.1242 27.9964C32.0152 28.2864 31.8002 28.4904 31.5312 28.5564C31.2642 28.6194 30.9772 28.5414 30.7452 28.3344L28.5192 26.3324C28.1602 26.0094 27.9362 25.4034 27.9982 24.9254L28.2862 22.7004C28.3152 22.4784 28.2122 22.1004 28.0722 21.9074C27.7132 21.4134 27.3692 20.8924 27.0542 20.3564C26.9552 20.1884 26.6852 20.0254 26.4982 20.0224L24.9832 19.9964C24.4602 19.9874 23.9292 19.6104 23.7502 19.1214L22.5402 15.8444C22.4422 15.5794 22.4542 15.2924 22.5742 15.0384C22.6932 14.7834 22.9072 14.5904 23.1752 14.4964L24.4292 14.0564C24.5482 14.0144 24.6382 13.8564 24.6162 13.7234C24.5322 13.1844 24.4752 12.6524 24.4512 12.1394C24.4392 11.8924 24.2872 11.5184 24.1302 11.3554L22.1762 9.30344C21.8392 8.94944 21.6722 8.32545 21.7872 7.85145L22.3272 5.60745C22.3992 5.30345 22.5912 5.07545 22.8522 4.98245C23.1112 4.89145 23.4032 4.94444 23.6532 5.13344L25.6422 6.63944C25.7402 6.71144 25.8402 6.63645 25.8862 6.58045C26.0372 6.39145 26.1982 6.21944 26.3692 6.06244C26.5122 5.93044 26.5992 5.68344 26.5552 5.53344L25.6842 2.59445C25.6022 2.31745 25.6402 2.02444 25.7882 1.79044C25.9362 1.55644 26.1852 1.39545 26.4702 1.35045L28.0612 1.10344C28.6032 1.01844 29.1742 1.34045 29.3882 1.82945L30.6782 4.73644C30.7592 4.91944 31.0362 5.15345 31.2592 5.22645C31.5872 5.33345 31.9212 5.46844 32.2592 5.63144C32.2992 5.65244 32.3402 5.65644 32.4232 5.58144L33.0692 3.85745C33.1782 3.56745 33.3942 3.36344 33.6622 3.29744C33.9362 3.23144 34.2162 3.31344 34.4472 3.52044L36.6742 5.52244C37.0332 5.84544 37.2572 6.44944 37.1952 6.92944L36.9072 9.15545C36.8782 9.37745 36.9812 9.75545 37.1212 9.94845C37.4802 10.4414 37.8242 10.9634 38.1392 11.4994C38.2382 11.6674 38.5082 11.8294 38.6952 11.8334L40.2102 11.8584C40.7322 11.8674 41.2622 12.2434 41.4442 12.7334L42.6552 16.0114C42.7522 16.2774 42.7392 16.5644 42.6192 16.8194C42.4992 17.0734 42.2852 17.2654 42.0192 17.3574L40.7652 17.7974C40.6462 17.8394 40.5562 17.9974 40.5762 18.1294C40.6622 18.6674 40.7192 19.2014 40.7422 19.7124C40.7552 19.9604 40.9072 20.3344 41.0642 20.4984L43.0172 22.5494C43.3552 22.9034 43.5222 23.5274 43.4082 24.0014L42.8662 26.2464C42.7922 26.5504 42.6022 26.7774 42.3412 26.8704C42.0852 26.9614 41.7902 26.9084 41.5402 26.7194L39.5512 25.2134C39.4572 25.1394 39.3522 25.2164 39.3072 25.2714C39.1562 25.4604 38.9952 25.6324 38.8242 25.7894C38.6812 25.9214 38.5942 26.1684 38.6382 26.3184L39.5092 29.2574C39.5912 29.5344 39.5532 29.8274 39.4052 30.0624C39.2562 30.2964 39.0072 30.4564 38.7222 30.5004L37.1322 30.7474C37.0762 30.7554 37.0202 30.7604 36.9642 30.7604C36.4842 30.7614 35.9972 30.4604 35.8052 30.0244ZM40.0782 24.5184L42.0172 26.0434L42.5592 23.7984C42.6042 23.6124 42.5172 23.2934 42.3842 23.1544L40.4302 21.1024C40.1282 20.7854 39.8932 20.2194 39.8692 19.7564C39.8472 19.2764 39.7942 18.7754 39.7122 18.2684C39.6272 17.7234 39.9612 17.1544 40.4742 16.9744L41.7292 16.5344C41.7862 16.5144 41.8132 16.4754 41.8272 16.4464C41.8392 16.4224 41.8552 16.3724 41.8332 16.3134L40.6232 13.0364C40.5662 12.8854 40.3542 12.7344 40.1932 12.7314L38.6782 12.7064C38.1932 12.6974 37.6382 12.3704 37.3852 11.9434C37.0832 11.4314 36.7572 10.9334 36.4142 10.4634C36.1442 10.0934 35.9832 9.48344 36.0402 9.04344L36.3282 6.81744C36.3532 6.62344 36.2342 6.30344 36.0882 6.17144L33.8852 4.16345L33.2392 5.88744C33.1402 6.15244 32.9462 6.35345 32.6932 6.45545C32.4312 6.55945 32.1412 6.54644 31.8762 6.41744C31.5752 6.27144 31.2782 6.15144 30.9862 6.05644C30.5892 5.92644 30.0812 5.55244 29.8772 5.08944L28.5872 2.18244C28.5312 2.05244 28.3482 1.94345 28.1922 1.96745L26.6012 2.21444L26.5342 1.78245L26.5182 2.34544L27.3892 5.28444C27.5272 5.75044 27.3452 6.34745 26.9562 6.70545C26.8182 6.83245 26.6862 6.97345 26.5632 7.12745C26.1902 7.58945 25.5672 7.67944 25.1122 7.33444L23.1732 5.81044L22.6332 8.05444C22.5872 8.23944 22.6732 8.55944 22.8072 8.69944L24.7602 10.7504C25.0582 11.0634 25.2992 11.6414 25.3212 12.0954C25.3442 12.5754 25.3972 13.0764 25.4772 13.5824C25.5652 14.1284 25.2322 14.6964 24.7172 14.8774L23.4632 15.3174C23.4022 15.3384 23.3742 15.3824 23.3632 15.4064C23.3492 15.4354 23.3372 15.4824 23.3582 15.5384L24.5692 18.8164C24.6232 18.9674 24.8372 19.1174 24.9982 19.1204L26.5122 19.1464C26.9972 19.1534 27.5542 19.4814 27.8062 19.9094C28.1082 20.4204 28.4342 20.9194 28.7772 21.3894C29.0472 21.7584 29.2082 22.3694 29.1512 22.8084L28.8632 25.0334C28.8392 25.2284 28.9572 25.5474 29.1032 25.6794L31.3052 27.6864L31.9512 25.9634C32.0502 25.6984 32.2442 25.4964 32.4972 25.3954C32.7592 25.2904 33.0482 25.3044 33.3152 25.4334C33.6152 25.5794 33.9122 25.6994 34.2042 25.7944C34.6012 25.9234 35.1092 26.2974 35.3132 26.7614L36.6032 29.6684C36.6592 29.7984 36.8452 29.9034 36.9972 29.8834L38.5872 29.6364L38.6712 29.5044L37.8002 26.5684C37.6632 26.1024 37.8442 25.5054 38.2332 25.1484C38.3722 25.0204 38.5032 24.8804 38.6262 24.7264C38.8462 24.4534 39.1542 24.3104 39.4632 24.3104C39.6782 24.3104 39.8922 24.3784 40.0782 24.5184ZM31.1492 21.0394C28.6332 18.7774 27.1312 14.6754 27.8012 11.8954C28.1092 10.6174 28.8382 9.74044 29.8552 9.42444C31.1022 9.03644 32.6282 9.54545 34.0412 10.8164C36.5582 13.0774 38.0602 17.1794 37.3902 19.9594C37.0822 21.2374 36.3532 22.1154 35.3352 22.4304C35.0612 22.5154 34.7732 22.5574 34.4762 22.5574C33.4232 22.5574 32.2522 22.0314 31.1492 21.0394ZM30.1152 10.2594C29.3932 10.4834 28.8872 11.1194 28.6502 12.1004C28.0482 14.6014 29.4312 18.3194 31.7332 20.3904C32.9112 21.4504 34.1322 21.8914 35.0762 21.5974C35.7982 21.3734 36.3042 20.7364 36.5412 19.7554C37.1442 17.2544 35.7612 13.5364 33.4572 11.4664C32.5182 10.6214 31.5542 10.1704 30.7222 10.1704C30.5102 10.1704 30.3072 10.1994 30.1152 10.2594Z" fill="#27DEBF"/>
<path d="M8.03777 81.5788C7.33277 81.5788 6.58378 81.3568 5.83678 80.9168C5.74578 80.8628 5.65576 80.8068 5.56676 80.7478C5.25976 80.5468 5.16078 80.1078 5.34078 79.7488L7.84078 74.7268L6.56078 70.5128L4.26878 69.1618L1.99678 73.7208C1.90378 73.9028 1.72876 74.0068 1.52876 73.9828C1.08276 73.9348 0.739769 73.2248 0.628769 72.7878C0.272769 71.3978 0.0947612 70.0258 0.101761 68.7118C0.118761 65.3438 1.34876 63.0178 3.33876 62.5328V37.5598C1.35276 34.9328 0.0837612 31.0768 0.101761 27.6928C0.115761 24.8398 1.00778 22.7018 2.54778 21.8268C3.63678 21.2078 4.96977 21.2968 6.30077 22.0818C6.39277 22.1358 6.48378 22.1918 6.57378 22.2518C6.87378 22.4488 6.97277 22.8968 6.79677 23.2498L4.29778 28.2718L5.57777 32.4858L7.86876 33.8358L10.1408 29.2798C10.2328 29.0968 10.4088 28.9938 10.6088 29.0178C11.0558 29.0658 11.3998 29.7778 11.5108 30.2158C11.8668 31.6068 12.0438 32.9758 12.0368 34.2868C12.0188 37.6548 10.7888 39.9798 8.79976 40.4658V65.4388C10.7858 68.0658 12.0548 71.9228 12.0368 75.3058C12.0228 78.1588 11.1318 80.2968 9.59077 81.1718C9.11277 81.4438 8.58877 81.5788 8.03777 81.5788ZM3.95577 68.1078L7.19276 70.0148L8.64476 74.7948L6.01076 80.0848C6.05576 80.1738 6.13578 80.2238 6.21678 80.2718C7.32178 80.9218 8.36177 81.0088 9.21977 80.5208C10.5008 79.7918 11.2738 77.8418 11.2858 75.3028C11.3028 72.0318 10.0618 68.3008 8.12679 65.7958L8.04878 65.6948V39.8298L8.37178 39.7848C10.1268 39.5408 11.2698 37.3818 11.2858 34.2828C11.2928 33.0358 11.1228 31.7298 10.7828 30.4018C10.7418 30.2418 10.6818 30.1018 10.6228 29.9918L8.17976 34.8908L4.94377 32.9838L3.49178 28.2038L6.12477 22.9138C6.07977 22.8248 6.00079 22.7758 5.91979 22.7278C4.81379 22.0758 3.77377 21.9888 2.91777 22.4778C1.63577 23.2058 0.862785 25.1568 0.850785 27.6958C0.833785 30.9668 2.07478 34.6988 4.00978 37.2018L4.08778 37.3038V63.1688L3.76479 63.2138C2.00979 63.4568 0.865785 65.6168 0.850785 68.7148C0.843785 69.9648 1.01378 71.2728 1.35478 72.6008C1.39478 72.7588 1.45477 72.8978 1.51277 73.0068L3.95577 68.1078Z" fill="#27DEBF"/>
</svg>
