<svg width="500" height="500" viewBox="0 0 500 500" fill="none" xmlns="http://www.w3.org/2000/svg">
<path d="M87.3826 402.179C177.807 448.652 324.412 448.653 414.835 402.18C505.259 355.706 505.259 280.358 414.835 233.885C324.412 187.411 177.806 187.411 87.3816 233.884C-3.04142 280.357 -3.04143 355.706 87.3826 402.179Z" fill="#ede2e214"/>
<path d="M407.509 277.691C407.618 271.478 414.119 255.237 420.707 247.283C427.295 239.329 437.534 233.607 444.691 236.196C451.357 238.607 450.477 247.392 442.239 253.08C434.001 258.768 421.643 265.878 417.89 275.893L410.167 288.127L407.509 277.691Z" fill="#27DEBF"/>
<path opacity="0.1" d="M407.509 277.691C407.618 271.478 414.119 255.237 420.707 247.283C427.295 239.329 437.534 233.607 444.691 236.196C451.357 238.607 450.477 247.392 442.239 253.08C434.001 258.768 421.643 265.878 417.89 275.893L410.167 288.127L407.509 277.691Z" fill="black"/>
<path d="M408.685 282.734C408.883 282.721 409.057 282.579 409.1 282.376C413.63 261.241 431.087 244.302 441.422 240.673C441.658 240.59 441.783 240.331 441.7 240.094C441.618 239.859 441.364 239.729 441.121 239.816C430.589 243.514 412.811 260.73 408.212 282.186C408.159 282.431 408.315 282.672 408.56 282.725C408.603 282.733 408.645 282.736 408.685 282.734Z" fill="white"/>
<path d="M411.612 296.364C412.671 292.889 417.037 287.201 424.019 282.561C431.743 277.428 441.443 275.175 443.742 271.115C446.503 266.238 442.433 261.513 434.577 262.349C426.72 263.184 412.75 273.641 410.266 289.707L411.612 296.364Z" fill="#27DEBF"/>
<path d="M410.158 292.673C410.331 292.662 410.489 292.553 410.554 292.38C417.374 274.325 431.347 268.19 437.782 267.468C438.031 267.44 438.21 267.215 438.183 266.966C438.155 266.716 437.94 266.537 437.681 266.565C430.565 267.363 416.666 273.63 409.704 292.058C409.615 292.292 409.734 292.555 409.968 292.643C410.032 292.668 410.096 292.676 410.158 292.673Z" fill="white"/>
<path d="M104.151 336.429L111.72 332.105C111.72 332.105 115.35 312.099 112.635 294.902C108.818 270.724 92.3547 262.384 86.3757 264.787C80.3967 267.19 78.9917 274.353 89.7897 288.323C96.1607 296.566 104.355 313.99 104.151 336.429Z" fill="#27DEBF"/>
<g opacity="0.1">
<path d="M104.151 336.429L111.72 332.105C111.72 332.105 115.35 312.099 112.635 294.902C108.818 270.724 92.3547 262.384 86.3757 264.787C80.3967 267.19 78.9917 274.353 89.7897 288.323C96.1607 296.566 104.355 313.99 104.151 336.429Z" fill="black"/>
</g>
<path d="M106.893 326.826C106.868 326.826 106.844 326.824 106.818 326.821C106.523 326.78 106.316 326.508 106.357 326.213C109.485 303.577 100.382 278.777 90.1545 268.782C89.9415 268.574 89.9375 268.232 90.1465 268.019C90.3555 267.808 90.6965 267.802 90.9095 268.011C101.323 278.188 110.6 303.392 107.426 326.361C107.39 326.63 107.158 326.826 106.893 326.826Z" fill="white"/>
<path d="M83.1509 348.561C81.9549 349.248 79.4899 347.746 78.5459 347.113C76.9299 346.028 75.6199 344.493 74.7499 342.756C73.7379 340.734 73.4829 338.568 73.7999 336.332C73.9639 335.172 74.2889 334.042 74.6119 332.916C74.9299 331.811 75.2469 330.705 75.5649 329.6C75.8779 328.509 76.1949 327.381 76.0509 326.256C75.7609 323.989 73.7479 322.4 71.9179 321.03C69.8949 319.515 67.7869 317.515 67.7989 314.785C67.8079 312.679 68.8989 310.722 70.2039 309.069C71.5089 307.416 73.0579 305.955 74.2379 304.21C75.0869 302.954 75.7499 301.478 75.6119 299.968C75.5259 299.03 75.1369 298.146 74.6879 297.318C73.7239 295.54 72.4519 293.912 71.7869 292.003C71.1219 290.093 71.2169 287.718 72.7069 286.352C73.9299 285.23 75.7479 285.074 77.4039 285.183C78.9359 285.284 80.4329 285.975 81.7729 286.721C86.1069 289.131 88.5809 294.264 93.1799 296.118C94.9539 296.833 96.8969 296.99 98.7459 297.479C100.595 297.968 102.48 298.912 103.337 300.622C105.025 303.994 101.892 308.15 103.079 311.729C104.129 314.897 107.207 316.109 108.935 318.963C109.691 320.212 109.865 321.655 109.743 323.11C109.536 325.572 109.176 327.379 107.995 330.117C107.019 332.38 104.149 336.429 104.149 336.429C104.079 336.501 83.3339 348.456 83.1509 348.561Z" fill="#27DEBF"/>
<path d="M95.4383 342.015C95.4313 342.015 95.4233 342.015 95.4233 342.015C95.1173 342.002 94.8873 341.751 94.8983 341.453C95.7903 320.028 85.6953 296.374 78.3543 289.502C78.1373 289.299 78.1253 288.957 78.3293 288.739C78.5333 288.522 78.8743 288.511 79.0923 288.714C86.5813 295.724 96.8813 319.77 95.9783 341.497C95.9653 341.788 95.7253 342.015 95.4383 342.015Z" fill="white"/>
<path d="M92.2273 316.703C92.1743 316.703 92.1203 316.696 92.0683 316.679C85.1853 314.551 76.6053 314.176 76.5203 314.173C76.2223 314.16 75.9913 313.909 76.0023 313.611C76.0153 313.314 76.2403 313.079 76.5643 313.094C76.6523 313.098 85.3673 313.479 92.3863 315.649C92.6713 315.736 92.8313 316.039 92.7423 316.323C92.6713 316.555 92.4583 316.703 92.2273 316.703Z" fill="white"/>
<path d="M85.7872 340.612L194.923 403.617C197.314 404.998 201.192 404.998 203.583 403.617L410.211 284.296C412.603 282.916 412.603 280.677 410.211 279.296L301.074 216.29C298.682 214.909 294.805 214.909 292.414 216.29L85.7872 335.612C83.3952 336.993 83.3952 339.232 85.7872 340.612Z" fill="#37474F"/>
<path d="M144.772 369.883C148.094 371.801 153.479 371.801 156.801 369.883C160.123 367.965 160.123 364.856 156.801 362.938C153.479 361.02 148.094 361.02 144.772 362.938C141.45 364.855 141.45 367.966 144.772 369.883Z" fill="#263238"/>
<path d="M194.923 403.617L85.787 340.611C83.649 339.377 83.428 337.458 85.114 336.078C83.045 337.648 81.457 340.616 81.457 343.111V347.182C81.457 349.944 83.396 353.301 85.787 354.682L194.923 417.687C196.118 418.377 197.686 418.723 199.253 418.723V404.652C197.686 404.653 196.118 404.307 194.923 403.617Z" fill="#455A64"/>
<path d="M410.21 298.366C412.602 296.986 414.54 293.628 414.54 290.867V286.795C414.54 284.299 412.95 281.329 410.879 279.76C412.57 281.14 412.352 283.061 410.211 284.296L203.583 403.617C202.387 404.307 200.82 404.653 199.253 404.653V418.724C200.82 418.724 202.387 418.378 203.583 417.688L410.21 298.366Z" fill="#263238"/>
<path d="M212.906 390.561L109.888 331.082C108.453 330.253 108.453 328.91 109.888 328.082L279.31 230.206C280.746 229.377 283.072 229.377 284.506 230.205L387.56 289.675C388.995 290.504 388.995 291.847 387.56 292.675L218.101 390.561C216.668 391.39 214.341 391.39 212.906 390.561Z" fill="#FAFAFA"/>
<path d="M186.118 310.525L247.049 345.704L208.593 367.907C207.402 368.595 205.454 368.595 204.263 367.907L147.663 335.228C146.472 334.54 146.472 333.415 147.663 332.728L186.118 310.525Z" fill="#E6E6E6"/>
<path d="M247.044 345.701L239.863 317.157C239.692 316.479 239.323 315.861 238.782 315.418C238.778 315.415 238.774 315.411 238.77 315.408C238.222 314.948 237.554 314.656 236.84 314.599L186.115 310.521L247.044 345.701Z" fill="#E0E0E0"/>
<path d="M247.044 345.701L192.514 343.451C191.164 343.401 190.054 342.371 189.894 341.031L186.114 310.521L247.044 345.701Z" fill="#E0E0E0"/>
<path d="M247.044 345.701L192.514 343.451C191.164 343.401 190.054 342.371 189.894 341.031L186.114 310.521L192.844 340.501C192.964 341.041 193.434 341.441 193.994 341.491L247.044 345.701Z" fill="#FAFAFA"/>
<path d="M198.303 343.357L206.427 369.155L208.592 367.906L198.303 343.357Z" fill="#FAFAFA"/>
<path d="M145.496 333.978L147.662 332.727L190.179 338.668L145.496 333.978Z" fill="#FAFAFA"/>
<path d="M220.777 297.703L269.254 325.691C270.45 326.381 272.388 326.381 273.584 325.691L342.372 285.977C343.568 285.287 343.568 284.167 342.372 283.477L293.897 255.49C292.701 254.8 290.763 254.8 289.567 255.49L220.778 295.203C219.581 295.894 219.581 297.013 220.777 297.703Z" fill="#E6E6E6"/>
<path d="M259.322 294.01C258.131 291.975 257.986 289.944 258.888 287.915C259.791 285.887 261.749 284.004 264.759 282.266C268.197 280.282 271.773 279.021 275.486 278.485C279.199 277.95 282.9 278.08 286.59 278.877C290.276 279.674 293.84 281.063 297.278 283.049C300.489 284.902 302.678 286.812 303.844 288.775C305.011 290.738 305.155 292.654 304.278 294.522C303.399 296.391 301.555 298.136 298.746 299.758C295.76 301.483 292.818 302.442 289.921 302.638C287.023 302.832 284.521 302.323 282.413 301.106C281.384 300.511 280.8 299.871 280.662 299.183C280.524 298.495 280.768 297.839 281.395 297.216C279.764 297.346 278.159 297.237 276.578 296.89C274.997 296.542 273.529 295.978 272.176 295.196C269.866 293.835 268.661 292.385 268.563 290.85C268.462 289.314 269.565 287.88 271.874 286.547C274.734 284.896 277.808 284.106 281.095 284.179C284.382 284.251 287.506 285.142 290.467 286.851C291.746 287.59 292.78 288.441 293.571 289.405C294.363 290.369 294.795 291.277 294.87 292.132L285.838 297.347C285.109 297.768 284.715 298.141 284.652 298.466C284.589 298.792 284.847 299.121 285.423 299.455C286.402 300.019 287.726 300.132 289.394 299.791C291.063 299.451 292.913 298.694 294.945 297.521C297.204 296.216 298.633 294.826 299.236 293.348C299.838 291.87 299.679 290.404 298.766 288.949C297.849 287.493 296.287 286.128 294.079 284.852C290.039 282.52 285.83 281.271 281.452 281.104C277.074 280.938 272.79 282.064 268.6 284.484C266.14 285.903 264.559 287.402 263.858 288.981C263.155 290.56 263.261 292.107 264.177 293.62C265.093 295.135 266.68 296.543 268.938 297.847C270.168 298.557 271.504 299.155 272.947 299.64C274.389 300.125 275.738 300.426 276.993 300.541C277.193 300.57 277.331 300.606 277.406 300.649C277.481 300.693 277.481 300.78 277.406 300.91L276.09 302.758C275.989 302.873 275.927 302.939 275.902 302.953C275.777 303.025 275.576 303.04 275.299 302.996C273.769 302.808 272.157 302.428 270.464 301.855C268.77 301.283 267.195 300.577 265.739 299.737C262.652 297.954 260.514 296.045 259.322 294.01ZM280.172 294.879C281.739 295.017 283.076 294.767 284.18 294.129L289.412 291.108C289.01 290.268 288.133 289.458 286.777 288.675C285.071 287.69 283.238 287.183 281.282 287.153C279.324 287.125 277.494 287.602 275.788 288.588C274.333 289.428 273.623 290.257 273.661 291.075C273.698 291.893 274.482 292.745 276.013 293.628C277.217 294.325 278.604 294.742 280.172 294.879Z" fill="#FAFAFA"/>
<path d="M347.262 252.904C347.995 253.328 349.183 253.327 349.916 252.904C350.649 252.481 350.649 251.794 349.916 251.372C349.183 250.949 347.995 250.949 347.262 251.372C346.528 251.794 346.528 252.481 347.262 252.904Z" fill="#263238"/>
<path d="M351.503 264.942C352.969 265.789 355.346 265.789 356.812 264.942C358.278 264.095 358.278 262.723 356.812 261.877C355.346 261.03 352.969 261.03 351.503 261.877C350.037 262.723 350.037 264.095 351.503 264.942Z" fill="#263238"/>
<path d="M347.76 259.607C348.738 259.043 348.686 258.098 347.643 257.497L330.18 247.415C329.138 246.813 327.501 246.783 326.524 247.347C325.547 247.912 325.599 248.857 326.641 249.458L344.105 259.54C345.146 260.142 346.784 260.172 347.76 259.607Z" fill="#263238"/>
<path d="M121.38 132.436C121.38 130.464 122.765 128.065 124.473 127.079L282.7 35.7258C284.408 34.7398 287.178 34.7398 288.886 35.7258L292.372 37.7388C294.08 38.7248 295.465 41.1238 295.465 43.0958V164.38C295.465 166.344 294.073 168.755 292.372 169.737L134.145 261.089C132.444 262.071 129.66 262.071 127.959 261.089L124.473 259.077C122.772 258.095 121.38 255.684 121.38 253.72V132.436Z" fill="#27DEBF"/>
<path opacity="0.4" d="M122.282 129.39L131.061 134.453L294.556 40.0486C294 39.0826 293.224 38.2346 292.376 37.7366L288.879 35.7326C287.182 34.7376 284.402 34.7376 282.704 35.7326L124.477 127.079C123.614 127.575 122.838 128.424 122.282 129.39Z" fill="white"/>
<path opacity="0.1" d="M121.375 132.433V253.715C121.375 255.69 122.765 258.09 124.477 259.07L127.959 261.089C128.222 261.235 128.5 261.367 128.808 261.469C129.203 261.601 129.627 261.703 130.081 261.762C130.886 261.864 131.734 261.835 132.525 261.674C132.73 261.63 132.935 261.572 133.125 261.513C133.257 261.469 133.374 261.425 133.491 261.367C132.921 261.572 132.423 261.543 132.013 261.338C131.428 261.031 131.062 260.328 131.062 259.304V138.022C131.062 136.749 131.706 135.783 132.671 135.388L131.062 134.452L122.283 129.389C121.726 130.355 121.375 131.453 121.375 132.433Z" fill="black"/>
<path opacity="0.2" d="M131.061 134.451L204.337 161.827C209.56 163.773 215.428 161.842 218.471 157.174L230.238 139.147L295.141 39.7109L232.584 139.824L295.463 164.432C295.448 165.427 295.083 166.539 294.497 167.519L232.408 140.105L218.734 161.988C215.588 167.007 209.238 168.967 203.824 166.568L194.088 162.271L132.011 261.338C131.426 261.031 131.06 260.328 131.06 259.304V257.285L193.784 162.137L131.061 134.451Z" fill="black"/>
<path d="M149.187 106.134L138.375 99.8968C138.372 99.8948 138.366 99.8918 138.362 99.8898L138.263 99.8328L138.253 99.8488C133.453 97.1388 126.866 97.5478 119.581 101.753C104.911 110.224 93.0146 130.825 93.0146 147.767C93.0146 156.224 95.9817 162.167 100.772 164.948V164.952L100.794 164.964C100.794 164.964 100.797 164.965 100.797 164.967L110.635 170.584L112.985 166.653C115.412 166.095 117.938 165.229 120.604 163.689C135.274 155.218 147.17 134.617 147.173 117.675C147.173 115.159 146.834 112.944 146.34 110.889L149.187 106.134Z" fill="#37474F"/>
<path d="M129.855 107.646C115.182 116.117 103.287 136.718 103.287 153.66C103.287 170.602 115.181 177.469 129.853 168.998C144.525 160.527 156.42 139.926 156.421 122.984C156.422 106.042 144.528 99.1749 129.855 107.646Z" fill="#455A64"/>
<path d="M121.598 140.338C121.422 140.178 121.353 139.929 121.391 139.587C121.429 139.245 121.561 138.908 121.787 138.574L129.974 126.398C130.176 126.107 130.383 125.821 130.598 125.538C130.81 125.256 131.044 125.041 131.295 124.896L134.238 123.197C134.515 123.038 134.753 123.016 134.955 123.131C135.156 123.248 135.256 123.466 135.256 123.785V151.926C135.256 152.246 135.155 152.58 134.955 152.928C134.753 153.277 134.515 153.53 134.238 153.69L131.182 155.454C130.905 155.614 130.666 155.636 130.464 155.52C130.263 155.404 130.163 155.185 130.163 154.866V133.346L124.806 141.275C124.579 141.608 124.334 141.83 124.071 141.938C123.806 142.047 123.573 142.03 123.373 141.884L121.598 140.338Z" fill="#FAFAFA"/>
<path d="M420.392 131.55L389.03 113.441C388.305 113.022 387.649 112.987 387.178 113.268C386.717 113.543 383.605 115.333 383.135 115.602C382.662 115.872 382.369 116.456 382.369 117.287V162.878C382.369 164.535 383.532 166.55 384.967 167.378L416.329 185.487C417.053 185.905 417.708 185.941 418.179 185.661C418.641 185.386 421.758 183.595 422.228 183.323C422.698 183.052 422.989 182.469 422.989 181.641V136.051C422.99 134.393 421.827 132.378 420.392 131.55Z" fill="#455A64"/>
<path d="M422.989 136.052V181.637C422.989 182.467 422.699 183.047 422.229 183.327C421.789 183.577 419.019 185.167 418.299 185.587C418.699 185.287 418.929 184.737 418.929 183.987V138.392C418.929 137.572 418.639 136.652 418.169 135.832L422.229 133.492C422.699 134.302 422.989 135.222 422.989 136.052Z" fill="#263238"/>
<path d="M384.968 167.376L416.33 185.485C417.765 186.313 418.928 185.642 418.928 183.985V138.395C418.928 136.738 417.765 134.723 416.33 133.895L384.968 115.786C383.533 114.958 382.37 115.629 382.37 117.286V162.876C382.37 164.533 383.533 166.548 384.968 167.376Z" fill="#455A64"/>
<path d="M422.229 133.491L418.169 135.831C417.699 135.021 417.049 134.311 416.329 133.891L384.971 115.785C384.311 115.405 383.711 115.335 383.251 115.535C383.981 115.115 386.751 113.525 387.181 113.265C387.651 112.985 388.301 113.025 389.031 113.445L420.388 131.551C421.109 131.961 421.759 132.671 422.229 133.491Z" fill="#37474F"/>
<path d="M409.239 163.093C408.549 161.838 407.809 160.643 407.083 159.438C405.633 157.034 404.308 156.147 403.226 158.044C402.619 159.109 400.848 159.194 399.959 158.06C397.509 154.934 395.616 151.207 394.508 146.731C394.018 144.751 394.945 142.72 396.091 142.183C396.698 141.9 397.31 141.502 397.262 140.087C397.198 138.242 394.347 130.554 393.221 129.267C392.755 128.734 392.291 128.482 391.818 128.455C389.177 128.298 386.019 131.575 387.066 136.139C390.191 149.752 392.772 156.909 401.477 168.279C405.19 173.165 409.952 170.478 410.801 168.568C411.362 166.45 410.177 164.797 409.239 163.093Z" fill="#FAFAFA"/>
<path d="M402.387 133.67C407.92 138.174 410.472 143.7 411.176 152.687C411.242 153.516 411.05 154.598 411.784 155.046C412.551 155.512 412.366 154.23 412.373 153.441C412.243 144.221 408.502 135.686 402.547 131.918C402.186 131.703 401.316 130.782 401.264 132.136C401.229 133.046 401.929 133.296 402.387 133.67Z" fill="#FAFAFA"/>
<path d="M402.666 137.09C402.133 136.684 401.431 135.891 401.306 136.958C401.177 138.076 401.96 138.407 402.462 138.871C405.88 142.02 407.07 144.621 407.632 150.166C407.715 150.974 407.551 152.064 408.39 152.352C409.012 152.566 408.788 151.421 408.841 150.857C408.87 145.863 406.081 139.693 402.666 137.09Z" fill="#FAFAFA"/>
<path d="M402.149 141.617C401.793 141.425 401.444 141.283 401.315 141.793C401.119 142.552 401.531 143 401.951 143.345C403.353 144.502 404.091 146.2 404.232 148.434C404.27 149.04 404.511 149.652 404.877 149.798C405.385 149.998 405.43 149.329 405.416 148.657C405.439 146.253 403.664 142.433 402.149 141.617Z" fill="#FAFAFA"/>
<path d="M421.962 112.17L420.167 108.119C420.039 107.832 419.626 107.483 419.282 107.371C418.829 107.223 418.366 107.035 417.904 106.812C417.815 106.767 417.727 106.76 417.655 106.79C417.592 106.815 417.545 106.868 417.515 106.946L416.614 109.35C416.476 109.717 416.205 109.975 415.869 110.057C415.531 110.141 415.173 110.036 414.881 109.774L411.777 106.983C411.302 106.556 411.006 105.757 411.088 105.124L411.489 102.02C411.534 101.681 411.384 101.125 411.171 100.832C410.675 100.152 410.198 99.4278 409.757 98.6788C409.599 98.4108 409.183 98.1618 408.885 98.1568L406.773 98.1208C406.089 98.1098 405.396 97.6178 405.159 96.9758L403.474 92.4078C403.348 92.0668 403.364 91.6998 403.518 91.3718C403.671 91.0448 403.945 90.7988 404.288 90.6788L406.037 90.0658C406.256 89.9888 406.414 89.7128 406.375 89.4738C406.258 88.7328 406.18 87.9948 406.145 87.2788C406.128 86.9048 405.904 86.3588 405.666 86.1098L402.942 83.2498C402.496 82.7828 402.275 81.9588 402.426 81.3328L403.18 78.2048C403.273 77.8198 403.512 77.5328 403.836 77.4168C404.161 77.3008 404.529 77.3708 404.845 77.6098L407.617 79.7098C407.797 79.8458 408.002 79.7518 408.118 79.6078C408.323 79.3528 408.546 79.1138 408.78 78.8998C409.012 78.6858 409.146 78.2938 409.072 78.0428L407.858 73.9458C407.753 73.5928 407.801 73.2188 407.99 72.9208C408.178 72.6218 408.496 72.4188 408.861 72.3608L411.079 72.0168C411.765 71.9098 412.523 72.3248 412.806 72.9598L414.602 77.0118C414.728 77.2978 415.14 77.6468 415.484 77.7588C415.939 77.9068 416.403 78.0948 416.863 78.3178C416.951 78.3608 417.042 78.3698 417.112 78.3398C417.175 78.3148 417.222 78.2618 417.252 78.1838L418.153 75.7798C418.291 75.4128 418.563 75.1548 418.899 75.0728C419.235 74.9928 419.595 75.0938 419.886 75.3568L422.99 78.1478C423.467 78.5748 423.762 79.3748 423.68 80.0078L423.279 83.1108C423.235 83.4508 423.384 84.0068 423.598 84.2998C424.092 84.9768 424.568 85.7008 425.012 86.4538C425.17 86.7218 425.585 86.9698 425.884 86.9748L427.996 87.0108C428.681 87.0218 429.374 87.5148 429.609 88.1558L431.296 92.7248C431.421 93.0658 431.405 93.4328 431.251 93.7598C431.097 94.0868 430.823 94.3328 430.481 94.4518L428.733 95.0648C428.514 95.1418 428.356 95.4178 428.394 95.6568C428.513 96.4058 428.59 97.1438 428.624 97.8508C428.643 98.2258 428.866 98.7718 429.103 99.0208L431.829 101.881C432.273 102.348 432.494 103.171 432.344 103.797L431.589 106.926C431.496 107.311 431.257 107.598 430.933 107.714C430.611 107.83 430.242 107.759 429.925 107.521L427.152 105.421C426.97 105.286 426.766 105.38 426.651 105.522C426.447 105.776 426.225 106.014 425.99 106.231C425.758 106.445 425.623 106.837 425.697 107.087L426.911 111.184C427.016 111.537 426.969 111.911 426.78 112.209C426.591 112.508 426.273 112.711 425.908 112.768L423.691 113.112C423.619 113.123 423.545 113.129 423.471 113.129C422.847 113.129 422.214 112.738 421.962 112.17ZM427.743 104.636L430.516 106.736C430.558 106.768 430.586 106.779 430.593 106.786C430.602 106.774 430.617 106.746 430.629 106.696L431.384 103.567C431.457 103.265 431.327 102.785 431.113 102.56L428.387 99.6998C427.99 99.2828 427.667 98.5098 427.638 97.8988C427.606 97.2278 427.533 96.5248 427.418 95.8108C427.307 95.1048 427.739 94.3688 428.403 94.1358L430.152 93.5228C430.243 93.4908 430.316 93.4258 430.357 93.3388C430.397 93.2528 430.401 93.1548 430.368 93.0638L428.682 88.4938C428.587 88.2368 428.251 87.9978 427.976 87.9938L425.865 87.9578C425.224 87.9468 424.492 87.5148 424.161 86.9528C423.733 86.2278 423.275 85.5298 422.8 84.8788C422.44 84.3848 422.224 83.5698 422.299 82.9838L422.7 79.8798C422.741 79.5668 422.564 79.0898 422.329 78.8788L419.225 76.0868C419.172 76.0388 419.135 76.0278 419.132 76.0268C419.124 76.0308 419.096 76.0578 419.071 76.1248L418.17 78.5278C418.043 78.8668 417.796 79.1238 417.475 79.2528C417.145 79.3858 416.773 79.3678 416.431 79.2018C416.011 78.9988 415.588 78.8278 415.176 78.6928C414.648 78.5208 413.971 78.0248 413.698 77.4088L411.902 73.3578C411.8 73.1258 411.475 72.9478 411.226 72.9888L409.009 73.3328C408.922 73.3458 408.857 73.3848 408.818 73.4458C408.781 73.5058 408.774 73.5818 408.798 73.6658L410.012 77.7628C410.193 78.3708 409.953 79.1538 409.443 79.6238C409.245 79.8058 409.056 80.0078 408.882 80.2248C408.404 80.8188 407.602 80.9358 407.02 80.4948L404.247 78.3948C404.205 78.3628 404.176 78.3518 404.169 78.3448C404.16 78.3568 404.146 78.3838 404.133 78.4348L403.379 81.5638C403.306 81.8648 403.435 82.3458 403.65 82.5708L406.374 85.4308C406.773 85.8478 407.096 86.6228 407.124 87.2318C407.157 87.9118 407.231 88.6138 407.344 89.3188C407.456 90.0248 407.025 90.7608 406.36 90.9948L404.61 91.6078C404.519 91.6398 404.446 91.7048 404.406 91.7918C404.365 91.8778 404.361 91.9758 404.395 92.0668L406.08 96.6358C406.175 96.8938 406.512 97.1328 406.787 97.1368L408.898 97.1728C409.537 97.1838 410.269 97.6158 410.602 98.1788C411.028 98.9008 411.486 99.5988 411.963 100.253C412.324 100.748 412.539 101.563 412.463 102.148L412.062 105.251C412.022 105.564 412.199 106.042 412.433 106.253L415.537 109.044C415.59 109.092 415.628 109.103 415.63 109.105C415.638 109.101 415.666 109.074 415.691 109.007L416.592 106.604C416.719 106.265 416.966 106.008 417.288 105.879C417.621 105.746 417.992 105.766 418.331 105.929C418.752 106.133 419.175 106.303 419.586 106.438C420.113 106.609 420.79 107.105 421.065 107.722L422.861 111.774C422.964 112.007 423.288 112.184 423.537 112.143L425.754 111.799C425.84 111.786 425.906 111.747 425.944 111.687C425.981 111.627 425.989 111.551 425.964 111.467L424.75 107.369C424.57 106.76 424.81 105.978 425.319 105.509C425.516 105.327 425.704 105.127 425.88 104.907C426.163 104.555 426.56 104.371 426.956 104.371C427.231 104.369 427.506 104.456 427.743 104.636ZM415.444 99.6048C411.965 96.4758 409.886 90.8088 410.811 86.9718C411.231 85.2318 412.22 84.0378 413.597 83.6108C415.296 83.0838 417.38 83.7818 419.32 85.5258C422.8 88.6538 424.879 94.3218 423.954 98.1588C423.534 99.8988 422.545 101.093 421.168 101.52C420.797 101.635 420.407 101.692 420.005 101.692C418.565 101.691 416.96 100.967 415.444 99.6048ZM413.889 84.5498C412.842 84.8748 412.109 85.7918 411.769 87.2008C410.919 90.7238 412.864 95.9598 416.103 98.8718C417.779 100.378 419.517 100.998 420.877 100.578C421.924 100.253 422.657 99.3358 422.997 97.9268C423.847 94.4038 421.902 89.1688 418.662 86.2558C417.331 85.0588 415.959 84.4198 414.769 84.4198C414.463 84.4208 414.168 84.4638 413.889 84.5498Z" fill="#27DEBF"/>
<path d="M393.704 101.915L392.414 99.0081C392.333 98.8251 392.057 98.5911 391.833 98.5191C391.501 98.4101 391.165 98.2741 390.833 98.1131C390.794 98.0941 390.754 98.0851 390.669 98.1641L390.023 99.8871C389.914 100.177 389.699 100.381 389.43 100.447C389.163 100.51 388.876 100.432 388.644 100.225L386.418 98.2231C386.059 97.9001 385.835 97.2941 385.897 96.8161L386.185 94.5911C386.214 94.3691 386.111 93.9911 385.971 93.7981C385.612 93.3041 385.268 92.7831 384.953 92.2471C384.854 92.0791 384.584 91.9161 384.397 91.9131L382.882 91.8871C382.359 91.8781 381.828 91.5011 381.649 91.0121L380.439 87.7351C380.341 87.4701 380.353 87.1831 380.473 86.9291C380.592 86.6741 380.806 86.4811 381.074 86.3871L382.328 85.9471C382.447 85.9051 382.537 85.7471 382.515 85.6141C382.431 85.0751 382.374 84.5431 382.35 84.0301C382.338 83.7831 382.186 83.4091 382.029 83.2461L380.075 81.1941C379.738 80.8401 379.571 80.2161 379.686 79.7421L380.226 77.4981C380.298 77.1941 380.49 76.9661 380.751 76.8731C381.01 76.7821 381.302 76.8351 381.552 77.0241L383.541 78.5301C383.639 78.6021 383.739 78.5271 383.785 78.4711C383.936 78.2821 384.097 78.1101 384.268 77.9531C384.411 77.8211 384.498 77.5741 384.454 77.4241L383.583 74.4851C383.501 74.2081 383.539 73.9151 383.687 73.6811C383.835 73.4471 384.084 73.2861 384.369 73.2411L385.96 72.9941C386.502 72.9091 387.073 73.2311 387.287 73.7201L388.577 76.6271C388.658 76.8101 388.935 77.0441 389.158 77.1171C389.486 77.2241 389.82 77.3591 390.158 77.5221C390.198 77.5431 390.239 77.5471 390.322 77.4721L390.968 75.7481C391.077 75.4581 391.293 75.2541 391.561 75.1881C391.835 75.1221 392.115 75.2041 392.346 75.4111L394.573 77.4131C394.932 77.7361 395.156 78.3401 395.094 78.8201L394.806 81.0461C394.777 81.2681 394.88 81.6461 395.02 81.8391C395.379 82.3321 395.723 82.8541 396.038 83.3901C396.137 83.5581 396.407 83.7201 396.594 83.7241L398.109 83.7491C398.631 83.7581 399.161 84.1341 399.343 84.6241L400.554 87.9021C400.651 88.1681 400.638 88.4551 400.518 88.7101C400.398 88.9641 400.184 89.1561 399.918 89.2481L398.664 89.6881C398.545 89.7301 398.455 89.8881 398.475 90.0201C398.561 90.5581 398.618 91.0921 398.641 91.6031C398.654 91.8511 398.806 92.2251 398.963 92.3891L400.916 94.4401C401.254 94.7941 401.421 95.4181 401.307 95.8921L400.765 98.1371C400.691 98.4411 400.501 98.6681 400.24 98.7611C399.984 98.8521 399.689 98.7991 399.439 98.6101L397.45 97.1041C397.356 97.0301 397.251 97.1071 397.206 97.1621C397.055 97.3511 396.894 97.5231 396.723 97.6801C396.58 97.8121 396.493 98.0591 396.537 98.2091L397.408 101.148C397.49 101.425 397.452 101.718 397.304 101.953C397.155 102.187 396.906 102.347 396.621 102.391L395.031 102.638C394.975 102.646 394.919 102.651 394.863 102.651C394.383 102.652 393.896 102.351 393.704 101.915ZM397.977 96.4091L399.916 97.9341L400.458 95.6891C400.503 95.5031 400.416 95.1841 400.283 95.0451L398.329 92.9931C398.027 92.6761 397.792 92.1101 397.768 91.6471C397.746 91.1671 397.693 90.6661 397.611 90.1591C397.526 89.6141 397.86 89.0451 398.373 88.8651L399.628 88.4251C399.685 88.4051 399.712 88.3661 399.726 88.3371C399.738 88.3131 399.754 88.2631 399.732 88.2041L398.522 84.9271C398.465 84.7761 398.253 84.6251 398.092 84.6221L396.577 84.5971C396.092 84.5881 395.537 84.2611 395.284 83.8341C394.982 83.3221 394.656 82.8241 394.313 82.3541C394.043 81.9841 393.882 81.3741 393.939 80.9341L394.227 78.7081C394.252 78.5141 394.133 78.1941 393.987 78.0621L391.784 76.0541L391.138 77.7781C391.039 78.0431 390.845 78.2441 390.592 78.3461C390.33 78.4501 390.04 78.4371 389.775 78.3081C389.474 78.1621 389.177 78.0421 388.885 77.9471C388.488 77.8171 387.98 77.4431 387.776 76.9801L386.486 74.0731C386.43 73.9431 386.247 73.8341 386.091 73.8581L384.5 74.1051L384.433 73.6731L384.417 74.2361L385.288 77.1751C385.426 77.6411 385.244 78.2381 384.855 78.5961C384.717 78.7231 384.585 78.8641 384.462 79.0181C384.089 79.4801 383.466 79.5701 383.011 79.2251L381.072 77.7011L380.532 79.9451C380.486 80.1301 380.572 80.4501 380.706 80.5901L382.659 82.6411C382.957 82.9541 383.198 83.5321 383.22 83.9861C383.243 84.4661 383.296 84.9671 383.376 85.4731C383.464 86.0191 383.131 86.5871 382.616 86.7681L381.362 87.2081C381.301 87.2291 381.273 87.2731 381.262 87.2971C381.248 87.3261 381.236 87.3731 381.257 87.4291L382.468 90.7071C382.522 90.8581 382.736 91.0081 382.897 91.0111L384.411 91.0371C384.896 91.0441 385.453 91.3721 385.705 91.8001C386.007 92.3111 386.333 92.8101 386.676 93.2801C386.946 93.6491 387.107 94.2601 387.05 94.6991L386.762 96.9241C386.738 97.1191 386.856 97.4381 387.002 97.5701L389.204 99.5771L389.85 97.8541C389.949 97.5891 390.143 97.3871 390.396 97.2861C390.658 97.1811 390.947 97.1951 391.214 97.3241C391.514 97.4701 391.811 97.5901 392.103 97.6851C392.5 97.8141 393.008 98.1881 393.212 98.6521L394.502 101.559C394.558 101.689 394.744 101.794 394.896 101.774L396.486 101.527L396.57 101.395L395.699 98.4591C395.562 97.9931 395.743 97.3961 396.132 97.0391C396.271 96.9111 396.402 96.7711 396.525 96.6171C396.745 96.3441 397.053 96.2011 397.362 96.2011C397.577 96.2011 397.791 96.2691 397.977 96.4091ZM389.048 92.9301C386.532 90.6681 385.03 86.5661 385.7 83.7861C386.008 82.5081 386.737 81.6311 387.754 81.3151C389.001 80.9271 390.527 81.4361 391.94 82.7071C394.457 84.9681 395.959 89.0701 395.289 91.8501C394.981 93.1281 394.252 94.0061 393.234 94.3211C392.96 94.4061 392.672 94.4481 392.375 94.4481C391.322 94.4481 390.151 93.9221 389.048 92.9301ZM388.014 82.1501C387.292 82.3741 386.786 83.0101 386.549 83.9911C385.947 86.4921 387.33 90.2101 389.632 92.2811C390.81 93.3411 392.031 93.7821 392.975 93.4881C393.697 93.2641 394.203 92.6271 394.44 91.6461C395.043 89.1451 393.66 85.4271 391.356 83.3571C390.417 82.5121 389.453 82.0611 388.621 82.0611C388.409 82.0611 388.206 82.0901 388.014 82.1501Z" fill="#27DEBF"/>
<path d="M365.936 153.469C365.231 153.469 364.482 153.247 363.735 152.807C363.644 152.753 363.554 152.697 363.465 152.638C363.158 152.437 363.059 151.998 363.239 151.639L365.739 146.617L364.459 142.403L362.167 141.052L359.895 145.611C359.802 145.793 359.627 145.897 359.427 145.873C358.981 145.825 358.638 145.115 358.527 144.678C358.171 143.288 357.993 141.916 358 140.602C358.017 137.234 359.247 134.908 361.237 134.423V109.45C359.251 106.823 357.982 102.967 358 99.5834C358.014 96.7304 358.906 94.5924 360.446 93.7174C361.535 93.0984 362.868 93.1874 364.199 93.9724C364.291 94.0264 364.382 94.0824 364.472 94.1424C364.772 94.3394 364.871 94.7874 364.695 95.1404L362.196 100.162L363.476 104.376L365.767 105.726L368.039 101.17C368.131 100.987 368.307 100.884 368.507 100.908C368.954 100.956 369.298 101.668 369.409 102.106C369.765 103.497 369.942 104.866 369.935 106.177C369.917 109.545 368.687 111.87 366.698 112.356V137.329C368.684 139.956 369.953 143.813 369.935 147.196C369.921 150.049 369.03 152.187 367.489 153.062C367.011 153.334 366.487 153.469 365.936 153.469ZM361.854 139.998L365.091 141.905L366.543 146.685L363.909 151.975C363.954 152.064 364.034 152.114 364.115 152.162C365.22 152.812 366.26 152.899 367.118 152.411C368.399 151.682 369.172 149.732 369.184 147.193C369.201 143.922 367.96 140.191 366.025 137.686L365.947 137.585V111.72L366.27 111.675C368.025 111.431 369.168 109.272 369.184 106.173C369.191 104.926 369.021 103.62 368.681 102.292C368.64 102.132 368.58 101.992 368.521 101.882L366.078 106.781L362.842 104.874L361.39 100.094L364.023 94.8044C363.978 94.7154 363.899 94.6664 363.818 94.6184C362.712 93.9664 361.672 93.8794 360.816 94.3684C359.534 95.0964 358.761 97.0474 358.749 99.5864C358.732 102.857 359.973 106.589 361.908 109.092L361.986 109.194V135.059L361.663 135.104C359.908 135.347 358.764 137.507 358.749 140.605C358.742 141.855 358.912 143.163 359.253 144.491C359.293 144.649 359.353 144.788 359.411 144.897L361.854 139.998Z" fill="#27DEBF"/>
</svg>
