<svg width="290" height="50" viewBox="0 0 290 50" fill="none" xmlns="http://www.w3.org/2000/svg">
<path d="M33.4288 17.04L13.1788 24.015V22.035L33.4288 28.965V35.445L8.22883 26.4V19.65L33.4288 10.605V17.04ZM248.142 4.035H254.532L241.932 40.215H235.542L248.142 4.035ZM256.566 17.04V10.605L281.766 19.65V26.4L256.566 35.445V28.965L276.816 22.035V24.015L256.566 17.04Z" fill="#00BFB3"/>
<path d="M64.3041 31.26C64.3041 32.97 63.8241 34.455 62.8641 35.715C61.9041 36.975 60.4491 37.95 58.4991 38.64C56.5491 39.3 54.1041 39.63 51.1641 39.63C48.1341 39.63 45.5091 39.255 43.2891 38.505C41.0691 37.725 39.3441 36.645 38.1141 35.265C36.9141 33.855 36.2691 32.235 36.1791 30.405H42.1191C42.2991 31.365 42.7791 32.22 43.5591 32.97C44.3691 33.69 45.4191 34.245 46.7091 34.635C48.0291 35.025 49.5291 35.22 51.2091 35.22C53.6391 35.22 55.4691 34.935 56.6991 34.365C57.9291 33.765 58.5441 32.865 58.5441 31.665C58.5441 30.855 58.1241 30.24 57.2841 29.82C56.4741 29.4 54.9291 29.085 52.6491 28.875L47.6541 28.425C44.9541 28.185 42.8241 27.705 41.2641 26.985C39.7041 26.235 38.5941 25.335 37.9341 24.285C37.2741 23.205 36.9441 22.065 36.9441 20.865C36.9441 19.125 37.4841 17.67 38.5641 16.5C39.6441 15.33 41.1441 14.445 43.0641 13.845C44.9841 13.215 47.2191 12.9 49.7691 12.9C52.4091 12.9 54.7641 13.275 56.8341 14.025C58.9041 14.745 60.5541 15.765 61.7841 17.085C63.0141 18.375 63.7041 19.875 63.8541 21.585H57.9141C57.7941 20.895 57.4341 20.235 56.8341 19.605C56.2641 18.945 55.3791 18.405 54.1791 17.985C53.0091 17.535 51.4341 17.31 49.4541 17.31C47.3541 17.31 45.7041 17.58 44.5041 18.12C43.3341 18.66 42.7491 19.455 42.7491 20.505C42.7491 21.165 43.1091 21.735 43.8291 22.215C44.5491 22.665 45.8841 22.98 47.8341 23.16L54.2691 23.745C56.8491 23.985 58.8591 24.45 60.2991 25.14C61.7691 25.8 62.8041 26.655 63.4041 27.705C64.0041 28.755 64.3041 29.94 64.3041 31.26ZM67.8324 13.53H73.6824L75.2124 22.8V39H69.3624V21.675L67.8324 13.53ZM88.1274 13.35V18.48C87.4674 18.3 86.7474 18.165 85.9674 18.075C85.1874 17.985 84.4524 17.94 83.7624 17.94C82.1124 17.94 80.6424 18.3 79.3524 19.02C78.0624 19.74 77.0424 20.82 76.2924 22.26C75.5724 23.67 75.2124 25.41 75.2124 27.48L73.8624 25.815C73.9824 24.015 74.2824 22.335 74.7624 20.775C75.2724 19.185 75.9624 17.805 76.8324 16.635C77.7324 15.465 78.8274 14.55 80.1174 13.89C81.4074 13.23 82.9074 12.9 84.6174 12.9C85.2174 12.9 85.8324 12.945 86.4624 13.035C87.0924 13.095 87.6474 13.2 88.1274 13.35ZM114.604 39L113.614 29.55L114.784 26.265L113.614 23.025L114.604 13.53H120.634L119.284 26.265L120.634 39H114.604ZM116.404 26.265C115.834 28.935 114.889 31.275 113.569 33.285C112.249 35.295 110.614 36.855 108.664 37.965C106.744 39.075 104.599 39.63 102.229 39.63C99.7393 39.63 97.5343 39.075 95.6143 37.965C93.6943 36.825 92.1943 35.25 91.1143 33.24C90.0343 31.23 89.4943 28.905 89.4943 26.265C89.4943 23.595 90.0343 21.27 91.1143 19.29C92.1943 17.28 93.6943 15.72 95.6143 14.61C97.5343 13.47 99.7393 12.9 102.229 12.9C104.599 12.9 106.744 13.455 108.664 14.565C110.614 15.675 112.249 17.235 113.569 19.245C114.919 21.225 115.864 23.565 116.404 26.265ZM95.4343 26.265C95.4343 27.975 95.7793 29.49 96.4693 30.81C97.1893 32.1 98.1643 33.12 99.3943 33.87C100.624 34.59 102.034 34.95 103.624 34.95C105.244 34.95 106.744 34.59 108.124 33.87C109.504 33.12 110.719 32.1 111.769 30.81C112.849 29.49 113.704 27.975 114.334 26.265C113.704 24.555 112.849 23.055 111.769 21.765C110.719 20.445 109.504 19.425 108.124 18.705C106.744 17.955 105.244 17.58 103.624 17.58C102.034 17.58 100.624 17.955 99.3943 18.705C98.1643 19.425 97.1893 20.445 96.4693 21.765C95.7793 23.055 95.4343 24.555 95.4343 26.265ZM140.484 36.39H138.234L148.674 13.53H154.929L142.509 39H135.939L123.519 13.53H129.954L140.484 36.39ZM180.874 39L179.884 29.55L181.054 26.265L179.884 23.025L180.874 13.53H186.904L185.554 26.265L186.904 39H180.874ZM182.674 26.265C182.104 28.935 181.159 31.275 179.839 33.285C178.519 35.295 176.884 36.855 174.934 37.965C173.014 39.075 170.869 39.63 168.499 39.63C166.009 39.63 163.804 39.075 161.884 37.965C159.964 36.825 158.464 35.25 157.384 33.24C156.304 31.23 155.764 28.905 155.764 26.265C155.764 23.595 156.304 21.27 157.384 19.29C158.464 17.28 159.964 15.72 161.884 14.61C163.804 13.47 166.009 12.9 168.499 12.9C170.869 12.9 173.014 13.455 174.934 14.565C176.884 15.675 178.519 17.235 179.839 19.245C181.189 21.225 182.134 23.565 182.674 26.265ZM161.704 26.265C161.704 27.975 162.049 29.49 162.739 30.81C163.459 32.1 164.434 33.12 165.664 33.87C166.894 34.59 168.304 34.95 169.894 34.95C171.514 34.95 173.014 34.59 174.394 33.87C175.774 33.12 176.989 32.1 178.039 30.81C179.119 29.49 179.974 27.975 180.604 26.265C179.974 24.555 179.119 23.055 178.039 21.765C176.989 20.445 175.774 19.425 174.394 18.705C173.014 17.955 171.514 17.58 169.894 17.58C168.304 17.58 166.894 17.955 165.664 18.705C164.434 19.425 163.459 20.445 162.739 21.765C162.049 23.055 161.704 24.555 161.704 26.265ZM191.319 13.53H197.169L198.699 22.71V39H192.849V21.855L191.319 13.53ZM208.824 12.9C211.224 12.9 213.264 13.38 214.944 14.34C216.624 15.3 217.899 16.68 218.769 18.48C219.669 20.25 220.119 22.395 220.119 24.915V39H214.269V25.86C214.269 23.19 213.639 21.18 212.379 19.83C211.149 18.45 209.334 17.76 206.934 17.76C205.284 17.76 203.829 18.135 202.569 18.885C201.339 19.605 200.379 20.625 199.689 21.945C199.029 23.265 198.699 24.81 198.699 26.58L196.629 25.455C196.899 22.815 197.589 20.565 198.699 18.705C199.809 16.845 201.234 15.42 202.974 14.43C204.714 13.41 206.664 12.9 208.824 12.9ZM225.976 13.35L228.901 13.89L231.826 13.35V39H225.976V13.35ZM228.901 10.155C227.791 10.155 226.876 9.855 226.156 9.255C225.436 8.625 225.076 7.815 225.076 6.825C225.076 5.835 225.436 5.04 226.156 4.44C226.876 3.81 227.791 3.495 228.901 3.495C230.041 3.495 230.956 3.81 231.646 4.44C232.366 5.04 232.726 5.835 232.726 6.825C232.726 7.815 232.366 8.625 231.646 9.255C230.956 9.855 230.041 10.155 228.901 10.155Z" fill="white"/>
</svg>
