<svg width="61" height="68" viewBox="0 0 61 68" fill="none" xmlns="http://www.w3.org/2000/svg">
<path d="M35.9634 63.1749L32.0364 55.7899L35.1964 46.6689V41.0859L25.5264 46.6689V52.2519L29.6844 59.4529C29.7544 59.5749 29.8554 59.6539 29.9664 59.7039L29.9644 59.7069L35.9634 63.1749Z" fill="#27DEBF"/>
<path opacity="0.2" d="M35.9634 63.1749L32.0364 55.7899L35.1964 46.6689V41.0859L25.5264 46.6689V52.2519L29.6844 59.4529C29.7544 59.5749 29.8554 59.6539 29.9664 59.7039L29.9644 59.7069L35.9634 63.1749Z" fill="black"/>
<path d="M60.9814 7.2643C60.9814 5.4153 59.6834 3.1673 58.0824 2.2423L55.7214 0.879297C54.1204 -0.0457031 51.5244 -0.0457031 49.9234 0.879297L3.79841 27.5103C2.19741 28.4353 0.899414 30.6833 0.899414 32.5323V60.8113C0.899414 62.6603 2.19841 64.9083 3.79841 65.8333L6.15941 67.1963C7.76041 68.1203 10.3574 68.1203 11.9584 67.1963L31.5984 55.7683L35.7474 62.9553C36.0124 63.4153 36.6954 63.3493 36.8684 62.8483L41.2534 50.1903L58.0834 40.5663C59.6844 39.6423 60.9824 37.3933 60.9824 35.5443L60.9814 7.2643Z" fill="#27DEBF"/>
<path opacity="0.2" d="M0.898438 60.8118C0.898438 62.6608 2.19643 64.9088 3.79743 65.8338L6.15843 67.1968C7.60543 68.0328 9.85843 68.1048 11.4614 67.4308C10.0964 67.9468 9.05743 67.1768 9.05743 65.5228V37.2438C9.05743 36.3188 9.38243 35.2948 9.90643 34.3868L1.74744 29.6758C1.22244 30.5838 0.898438 31.6088 0.898438 32.5328V60.8118Z" fill="black"/>
<path opacity="0.4" d="M60.8878 6.44041C60.5498 5.20941 59.4268 4.81741 58.0878 5.58841L11.9558 32.2234C11.1578 32.6834 10.4278 33.4674 9.91284 34.3874L1.75684 29.6804C2.28384 28.7604 3.00084 27.9764 3.79884 27.5164L49.9168 0.881406C51.5258 -0.0385938 54.1228 -0.0385938 55.7198 0.881406L58.0868 2.24741C59.4538 3.03241 60.6038 4.79041 60.8878 6.44041Z" fill="white"/>
<path d="M20.8387 40.1185C18.7017 41.3525 16.9697 44.3525 16.9697 46.8205C16.9697 49.2885 18.7027 50.2875 20.8387 49.0545C22.9757 47.8205 24.7077 44.8205 24.7077 42.3525C24.7087 39.8845 22.9757 38.8845 20.8387 40.1185Z" fill="#FAFAFA"/>
<path d="M35.1043 31.8644C32.9673 33.0984 31.2354 36.0984 31.2354 38.5664C31.2354 41.0344 32.9683 42.0344 35.1043 40.8004C37.2413 39.5664 38.9734 36.5664 38.9734 34.0984C38.9734 31.6314 37.2413 30.6304 35.1043 31.8644Z" fill="#FAFAFA"/>
<path d="M49.37 23.612C47.233 24.846 45.501 27.847 45.501 30.314C45.501 32.781 47.233 33.781 49.37 32.548C51.507 31.314 53.239 28.314 53.239 25.846C53.24 23.379 51.507 22.379 49.37 23.612Z" fill="#FAFAFA"/>
</svg>
