<svg width="49" height="52" viewBox="0 0 49 52" fill="none" xmlns="http://www.w3.org/2000/svg">
<path d="M5.05301 0.647149L41.611 21.7531C42.017 21.9871 42.346 22.5572 42.346 23.0262V48.6322C42.346 49.1012 42.015 49.6662 41.607 49.8962L38.975 51.4102C38.567 51.6402 37.907 51.6371 37.501 51.4031L0.943008 30.2971C0.537008 30.0631 0.208008 29.4932 0.208008 29.0242V3.38115C0.208008 2.91215 0.539021 2.34615 0.947021 2.11515L3.58002 0.63915C3.98802 0.40915 4.64701 0.412149 5.05301 0.647149Z" fill="#27DEBF"/>
<path d="M38.236 50.9806V25.3366C38.236 24.8676 37.907 24.2986 37.501 24.0636L0.943008 2.95759C0.537008 2.72359 0.208008 2.91359 0.208008 3.38159V29.0246C0.208008 29.4936 0.537008 30.0626 0.943008 30.2976L37.501 51.4036C37.907 51.6386 38.236 51.4496 38.236 50.9806Z" fill="#27DEBF"/>
<path d="M38.236 50.9806V25.3366C38.236 24.8676 37.907 24.2986 37.501 24.0636L0.943008 2.95759C0.537008 2.72359 0.208008 2.91359 0.208008 3.38159V29.0246C0.208008 29.4936 0.537008 30.0626 0.943008 30.2976L37.501 51.4036C37.907 51.6386 38.236 51.4496 38.236 50.9806Z" fill="#27DEBF"/>
<path opacity="0.2" d="M37.501 51.4034C37.892 51.6304 38.607 51.6384 38.976 51.4124L41.607 49.8964C42.014 49.6694 42.346 49.1004 42.346 48.6324V23.0254C42.346 22.7814 42.254 22.5134 42.112 22.2754L38.018 24.6124C38.154 24.8394 38.235 25.1014 38.235 25.3354V50.9774C38.236 51.4074 37.933 51.6544 37.501 51.4034Z" fill="black"/>
<path opacity="0.4" d="M0.217773 3.24865C0.275773 2.87865 0.577771 2.74665 0.943771 2.95665L37.4988 24.0637C37.7028 24.1827 37.8858 24.3826 38.0178 24.6136L42.1148 22.2767C41.9818 22.0557 41.8058 21.8656 41.6088 21.7536L5.04977 0.646649C4.64577 0.412649 3.98777 0.408649 3.57677 0.639649L0.94577 2.11465C0.57677 2.32465 0.268773 2.81065 0.217773 3.24865Z" fill="white"/>
<path d="M44.3603 41.6838C44.8223 41.4088 48.2773 39.4638 48.3893 39.3988C48.7293 39.1918 48.8513 38.6898 48.5353 38.3498L42.2833 30.5488L38.2373 32.8488L44.4863 40.6528C44.7903 40.9798 44.6693 41.4598 44.3603 41.6838Z" fill="#27DEBF"/>
<path opacity="0.4" d="M44.3603 41.6838C44.8223 41.4088 48.2773 39.4638 48.3893 39.3988C48.7293 39.1918 48.8513 38.6898 48.5353 38.3498L42.2833 30.5488L38.2373 32.8488L44.4863 40.6528C44.7903 40.9798 44.6693 41.4598 44.3603 41.6838Z" fill="white"/>
<path d="M38.2363 32.8516L44.4863 40.6536C44.9103 41.1076 44.5993 41.7316 44.0663 41.7806L38.2363 42.4126V32.8516Z" fill="#27DEBF"/>
<path d="M29.4474 29.0181C29.4474 29.9951 28.7314 30.3661 27.8494 29.8451L7.53941 18.1191C6.65741 17.5981 5.94141 16.3831 5.94141 15.4061C5.94141 14.4281 6.65641 14.0591 7.53941 14.5801L27.8494 26.3061C28.7324 26.8261 29.4474 28.0401 29.4474 29.0181Z" fill="#FAFAFA"/>
<path d="M33.9784 39.4968C33.9784 40.4738 33.2634 40.8438 32.3804 40.3228L7.53941 25.9868C6.65741 25.4658 5.94141 24.2508 5.94141 23.2738C5.94141 22.2968 6.65641 21.9258 7.53941 22.4468L32.3804 36.7828C33.2634 37.3048 33.9784 38.5188 33.9784 39.4968Z" fill="#FAFAFA"/>
</svg>
