<svg width="500" height="500" viewBox="0 0 500 500" fill="none" xmlns="http://www.w3.org/2000/svg">
<path d="M253.868 485.797C382.952 485.797 487.595 426.718 487.595 353.841C487.595 280.963 382.952 221.885 253.868 221.885C124.784 221.885 20.1411 280.963 20.1411 353.841C20.1411 426.718 124.784 485.797 253.868 485.797Z" fill="#F5F5F5" fillOpacity="0.06"/>
<path d="M79.0619 441.509L71.8879 437.367C69.6269 436.062 69.6269 433.945 71.8879 432.64L323.518 287.354C325.779 286.049 329.448 286.043 331.713 287.342L338.926 291.478C341.191 292.777 341.194 294.887 338.933 296.193L87.2499 441.509C84.9889 442.815 81.3229 442.815 79.0619 441.509Z" fill="#E6E6E6"/>
<path d="M368.756 417.365C409.572 417.365 442.661 398.262 442.661 374.696C442.661 351.131 409.572 332.027 368.756 332.027C327.939 332.027 294.851 351.131 294.851 374.696C294.851 398.262 327.939 417.365 368.756 417.365Z" fill="#E0E0E0"/>
<path d="M91.6599 421.246C90.6179 406.017 91.7329 390.549 82.2419 369.551C74.2769 351.93 61.1239 338.051 46.1659 336.972C39.9679 336.525 35.4859 337.97 32.8819 342.381C28.3049 350.133 35.1249 358.437 42.4209 363.235C45.6299 365.345 72.0349 379 79.2869 409.293L82.4479 426.542L83.4979 425.951L91.6599 421.246Z" fill="#BA68C8"/>
<path opacity="0.25" d="M91.6599 421.246C90.6179 406.017 91.7329 390.549 82.2419 369.551C74.2769 351.93 61.1239 338.051 46.1659 336.972C39.9679 336.525 35.4859 337.97 32.8819 342.381C28.3049 350.133 35.1249 358.437 42.4209 363.235C45.6299 365.345 72.0349 379 79.2869 409.293L82.4479 426.542L83.4979 425.951L91.6599 421.246Z" fill="white"/>
<path d="M86.8499 416.046C86.5579 416.003 86.3189 415.77 86.2799 415.465C81.5409 378.604 67.548 356.558 42.021 347.89C41.669 347.77 41.529 347.338 41.681 346.999C41.832 346.661 42.207 346.543 42.572 346.659C68.339 354.891 82.8169 377.95 87.6169 415.293C87.6649 415.662 87.404 415.999 87.035 416.047C86.972 416.055 86.9099 416.055 86.8499 416.046Z" fill="white"/>
<path d="M77.4868 429.515C76.4078 424.228 73.5668 418.111 62.8228 406.322C53.5428 396.141 39.0648 390.463 36.2358 384.137C32.8368 376.538 38.9368 369.562 50.5758 371.073C64.5648 372.888 78.8498 393.708 84.0368 425.638L77.4868 429.515Z" fill="#BA68C8"/>
<path opacity="0.65" d="M77.4868 429.515C76.4078 424.228 73.5668 418.111 62.8228 406.322C53.5428 396.141 39.0648 390.463 36.2358 384.137C32.8368 376.538 38.9368 369.562 50.5758 371.073C64.5648 372.888 78.8498 393.708 84.0368 425.638L77.4868 429.515Z" fill="white"/>
<path d="M45.8338 378.259C45.4548 378.181 45.1118 378.415 45.0358 378.781C44.9598 379.145 45.1938 379.503 45.5578 379.579C54.9728 381.548 74.6428 399.228 81.0078 427.27C81.0188 427.316 81.0428 427.356 81.0638 427.397L82.2468 426.697C75.7688 398.328 56.2178 380.43 45.8338 378.259Z" fill="white"/>
<path d="M423.1 352.509C423.916 340.593 423.043 328.491 430.469 312.061C436.701 298.273 446.993 287.415 458.696 286.57C463.546 286.22 467.052 287.351 469.09 290.802C472.671 296.867 467.335 303.365 461.626 307.119C459.115 308.77 438.455 319.454 432.781 343.157L430.308 356.653L429.486 356.19L423.1 352.509Z" fill="#BA68C8"/>
<path opacity="0.25" d="M423.1 352.509C423.916 340.593 423.043 328.491 430.469 312.061C436.701 298.273 446.993 287.415 458.696 286.57C463.546 286.22 467.052 287.351 469.09 290.802C472.671 296.867 467.335 303.365 461.626 307.119C459.115 308.77 438.455 319.454 432.781 343.157L430.308 356.653L429.486 356.19L423.1 352.509Z" fill="white"/>
<path d="M426.863 348.44C427.091 348.406 427.279 348.224 427.309 347.985C431.017 319.144 441.965 301.894 461.938 295.112C462.214 295.018 462.323 294.68 462.204 294.415C462.086 294.15 461.792 294.058 461.507 294.149C441.346 300.59 430.019 318.632 426.263 347.85C426.225 348.139 426.43 348.403 426.718 348.44C426.768 348.448 426.817 348.447 426.863 348.44Z" fill="white"/>
<path d="M434.19 358.979C435.034 354.842 437.257 350.056 445.664 340.832C452.925 332.866 464.253 328.423 466.467 323.474C469.127 317.528 464.354 312.07 455.247 313.252C444.302 314.673 433.125 330.962 429.066 355.946L434.19 358.979Z" fill="#BA68C8"/>
<path opacity="0.65" d="M434.19 358.979C435.034 354.842 437.257 350.056 445.664 340.832C452.925 332.866 464.253 328.423 466.467 323.474C469.127 317.528 464.354 312.07 455.247 313.252C444.302 314.673 433.125 330.962 429.066 355.946L434.19 358.979Z" fill="white"/>
<path d="M431.609 355.349C431.808 355.318 431.978 355.174 432.036 354.967C437.948 333.328 451.805 321.451 459.172 319.91C459.457 319.851 459.64 319.571 459.581 319.286C459.521 319 459.253 318.816 458.956 318.877C450.81 320.58 437.052 332.602 431.017 354.689C430.94 354.97 431.107 355.26 431.387 355.337C431.462 355.357 431.537 355.36 431.609 355.349Z" fill="white"/>
<path d="M222.585 58.8313L225.722 56.9343C225.695 56.7253 225.677 56.5093 225.677 56.2773V54.7253C225.677 51.9643 227.616 48.6063 230.007 47.2253C230.976 46.6663 231.866 46.5233 232.588 46.7273C232.98 42.8033 235.704 38.3633 239.013 36.4533C242.591 34.3873 245.491 36.0623 245.491 40.1933V42.5153C245.491 43.5853 245.293 44.7153 244.943 45.8383L249.392 43.2693C250.719 42.5033 251.794 43.1243 251.794 44.6563C251.794 46.1883 250.719 48.0503 249.392 48.8163L222.585 64.3793C221.259 65.1453 220.183 64.5243 220.183 62.9923C220.184 61.4603 221.259 59.5973 222.585 58.8313Z" fill="#EBEBEB"/>
<path d="M203.38 40.4082L200.248 41.6132V34.7122C200.248 29.2422 195.885 27.9302 191.147 30.6652C186.41 33.4002 182.569 40.0522 182.569 45.5232V46.5252C181.494 46.0962 180.106 46.2622 178.588 47.1392C175.179 49.1072 172.415 53.8942 172.415 57.8312V58.2862L168.047 60.8082C165.802 62.1042 163.982 65.2562 163.982 67.8492C163.982 70.4412 165.802 71.4922 168.047 70.1962L203.38 49.7972C205.625 48.5012 207.445 45.3482 207.445 42.7562C207.446 40.1622 205.625 39.1112 203.38 40.4082Z" fill="#EBEBEB"/>
<path opacity="0.5" d="M82.535 110.242L126.999 84.5703L104.766 125.412L82.535 110.242Z" fill="#BA68C8"/>
<path opacity="0.3" d="M82.535 91.5714L126.999 65.9004L104.766 106.741L82.535 91.5714Z" fill="#BA68C8"/>
<path opacity="0.1" d="M82.535 72.9015L126.999 47.2305L104.766 88.0715L82.535 72.9015Z" fill="#BA68C8"/>
<path d="M96.964 427.041C96.89 427.066 95.615 428.027 92.789 428.307C90.601 428.524 88.323 428.192 86.678 427.235C83.904 425.639 81.695 421.614 81.695 418.227L81.67 212.584L91.66 218.352V423.97C91.66 426.375 92.868 427.766 94.611 427.766C94.857 427.766 95.808 427.69 96.964 427.041Z" fill="#E0E0E0"/>
<path d="M333.99 284.045C333.99 287.432 331.63 291.561 328.684 293.254L96.964 427.041C94.043 428.735 91.66 427.357 91.66 423.97V192.168L106.289 183.724C109.21 182.03 253.56 98.6992 256.481 97.0062L333.989 52.2422V78.4262L333.99 284.045Z" fill="#FAFAFA"/>
<path d="M331.721 56.1732V78.4262V284.044C331.721 286.625 329.773 290.01 327.55 291.288L95.826 425.078C95.198 425.442 94.79 425.496 94.602 425.496C94.017 425.496 93.93 424.54 93.93 423.97V193.478L107.428 185.687C108.899 184.834 146.814 162.944 183.481 141.775C219.217 121.143 256.17 99.8092 257.617 98.9702L331.721 56.1732ZM333.99 52.2422L256.482 97.0062C253.561 98.6992 109.211 182.03 106.29 183.724L91.661 192.168V423.97C91.661 426.374 92.861 427.766 94.602 427.766C95.314 427.766 96.117 427.533 96.965 427.041L328.685 293.254C331.631 291.56 333.991 287.432 333.991 284.045V78.4262V52.2422H333.99Z" fill="#EBEBEB"/>
<path d="M306.367 166.649L306.37 272.41C306.355 272.507 306.242 272.703 306.194 272.746L130.084 374.424L130.081 268.664C130.096 268.567 130.209 268.371 130.257 268.328L306.367 166.649ZM307.796 163.539C307.631 163.539 307.445 163.593 307.248 163.707L129.203 266.502C128.525 266.894 127.975 267.846 127.975 268.629L127.976 376.658C127.976 377.214 128.253 377.535 128.656 377.535C128.821 377.535 129.007 377.481 129.205 377.367L307.25 274.572C307.928 274.18 308.478 273.228 308.478 272.445L308.476 164.416C308.475 163.86 308.198 163.539 307.796 163.539Z" fill="#EBEBEB"/>
<path d="M86.667 208.52C83.915 206.93 81.683 202.894 81.683 199.505L81.675 174.506C81.675 171.117 84.06 166.996 86.996 165.302L318.712 31.5119C321.647 29.8179 326.258 29.7329 329.011 31.3219C331.764 32.9119 333.996 36.9479 333.986 40.3339L333.99 65.3379C334 68.7299 331.62 72.8459 328.684 74.5399L96.964 208.327C94.029 210.021 89.42 210.11 86.667 208.52Z" fill="#263238"/>
<path d="M333.937 39.4708C333.569 36.7218 331.335 35.7148 328.684 37.2618L96.9631 171.051C95.5151 171.91 94.1901 173.358 93.2071 175.027L83.2421 169.259C84.2241 167.59 85.5241 166.162 86.9971 165.303L318.719 31.5178C321.64 29.8238 326.255 29.7258 329.004 31.3218C331.531 32.7948 333.618 36.2798 333.937 39.4708Z" fill="#455A64"/>
<path d="M333.986 40.3304L333.99 52.2444L256.482 97.0084C253.561 98.7014 109.211 182.032 106.29 183.726L91.661 192.17V180.257C91.661 176.87 94.042 172.746 96.963 171.052L328.684 37.2624C331.605 35.5684 333.986 36.9434 333.986 40.3304Z" fill="#37474F"/>
<path d="M325.095 44.9816C326.813 43.9896 328.206 44.7936 328.206 46.7776C328.206 48.7616 326.813 51.1736 325.095 52.1666C323.376 53.1586 321.984 52.3546 321.984 50.3706C321.983 48.3866 323.376 45.9736 325.095 44.9816Z" fill="white"/>
<path d="M313.893 51.4405C315.611 50.4485 317.004 51.2525 317.004 53.2375C317.004 55.2215 315.611 57.6345 313.893 58.6265C312.175 59.6185 310.782 58.8145 310.782 56.8305C310.782 54.8455 312.175 52.4325 313.893 51.4405Z" fill="white"/>
<path d="M302.692 57.8976C304.411 56.9056 305.803 57.7096 305.803 59.6936C305.803 61.6776 304.41 64.0906 302.692 65.0826C300.974 66.0746 299.581 65.2706 299.581 63.2866C299.581 61.3026 300.974 58.8896 302.692 57.8976Z" fill="white"/>
<path d="M100.669 186.951C102.15 186.092 102.647 184.787 103.357 182.285L104.99 176.652C105.582 174.387 106.197 172.844 107.69 171.986L172.541 134.537C174.034 133.678 175.199 133.584 176.335 135.461L178.305 139.092C179.15 140.553 179.573 141.411 181.054 140.553L231.409 111.488L333.99 52.2422V78.4382L91.66 218.364V192.168L100.669 186.951Z" fill="#E0E0E0"/>
<path d="M91.66 192.168V218.352L81.671 212.584V186.424L91.66 192.168Z" fill="#E0E0E0"/>
<path opacity="0.15" d="M91.66 192.168V218.352L81.671 212.584V186.424L91.66 192.168Z" fill="black"/>
<path opacity="0.3" d="M105.131 197.359L100.465 200.053L102.244 196.631C102.4 196.331 102.417 195.957 102.279 195.795C102.143 195.632 101.905 195.747 101.75 196.046L99.219 200.915C99.216 200.921 99.215 200.928 99.212 200.934C99.184 200.99 99.163 201.051 99.144 201.114C99.137 201.134 99.128 201.153 99.123 201.173C99.102 201.256 99.09 201.341 99.09 201.425C99.09 201.508 99.102 201.579 99.123 201.639C99.128 201.654 99.137 201.661 99.144 201.674C99.163 201.715 99.184 201.752 99.212 201.776C99.215 201.779 99.216 201.784 99.219 201.786L101.75 203.732C101.821 203.787 101.909 203.783 101.997 203.732C102.101 203.672 102.205 203.545 102.279 203.371C102.416 203.052 102.4 202.696 102.244 202.576L100.465 201.208L105.131 198.514C105.338 198.394 105.506 198.039 105.506 197.719C105.506 197.401 105.338 197.24 105.131 197.359Z" fill="black"/>
<path opacity="0.3" d="M109.028 195.108L113.694 192.414L111.915 191.046C111.759 190.926 111.743 190.571 111.88 190.251C112.016 189.931 112.254 189.772 112.409 189.891L114.94 191.837C114.943 191.839 114.944 191.845 114.947 191.848C114.975 191.872 114.996 191.909 115.015 191.95C115.021 191.963 115.031 191.97 115.036 191.985C115.056 192.045 115.069 192.116 115.069 192.199C115.069 192.282 115.056 192.367 115.036 192.45C115.031 192.47 115.021 192.489 115.015 192.509C114.996 192.572 114.975 192.633 114.947 192.689C114.944 192.695 114.943 192.702 114.94 192.708L112.409 197.577C112.338 197.714 112.25 197.811 112.162 197.862C112.058 197.922 111.954 197.915 111.88 197.827C111.743 197.666 111.759 197.291 111.915 196.991L113.694 193.569L109.028 196.263C108.821 196.383 108.653 196.221 108.653 195.902C108.653 195.584 108.821 195.228 109.028 195.108Z" fill="black"/>
<path opacity="0.3" d="M123.933 181.672C123.904 181.39 123.659 181.427 123.535 181.731L122.896 183.294C121.807 183.175 120.486 184.24 119.594 186.128C118.439 188.575 118.439 191.469 119.594 192.581C120.172 193.137 120.931 193.144 121.69 192.705C122.449 192.267 123.208 191.384 123.785 190.161C123.932 189.851 123.932 189.485 123.785 189.344C123.639 189.203 123.401 189.34 123.254 189.65C122.391 191.474 120.987 192.288 120.124 191.457C119.261 190.627 119.261 188.465 120.124 186.638C120.738 185.339 121.621 184.57 122.392 184.522L121.91 185.7C121.785 186.005 121.899 186.29 122.096 186.162L123.999 184.92C124.133 184.833 124.231 184.59 124.212 184.398L123.933 181.672Z" fill="black"/>
<path opacity="0.3" d="M171.589 142.899L173.459 138.941C173.68 138.473 173.68 137.922 173.459 137.709C173.238 137.496 172.88 137.703 172.659 138.171L170.789 142.129L168.919 140.33C168.698 140.117 168.34 140.324 168.119 140.792C167.898 141.26 167.898 141.811 168.119 142.024L169.989 143.824L168.119 147.782C167.898 148.25 167.898 148.801 168.119 149.014C168.229 149.12 168.374 149.122 168.519 149.038C168.664 148.954 168.808 148.786 168.919 148.552L170.789 144.594L172.659 146.394C172.77 146.5 172.914 146.502 173.059 146.418C173.204 146.335 173.349 146.166 173.459 145.932C173.68 145.464 173.68 144.913 173.459 144.7L171.589 142.899Z" fill="black"/>
<path d="M134.262 183.469V178.295C134.262 176.665 135.407 174.682 136.819 173.867L312.036 72.476C313.448 71.661 314.593 72.322 314.593 73.952V79.125C314.593 80.756 313.448 82.738 312.036 83.553L136.819 184.945C135.407 185.76 134.262 185.099 134.262 183.469Z" fill="#FAFAFA"/>
<path d="M308.558 83.9515C308.475 83.9515 308.397 83.9345 308.328 83.9065C308.109 83.8155 307.893 83.5655 307.945 83.1335L308.197 81.0345L307.211 80.3235C307.04 80.1995 306.944 79.9975 306.94 79.7535C306.935 79.4165 307.105 79.0575 307.362 78.8585L308.864 77.7005C308.876 77.6905 308.911 77.6465 308.93 77.5835L309.601 75.3825C309.724 74.9795 310.027 74.6925 310.357 74.6685C310.615 74.6455 310.835 74.7855 310.946 75.0225L311.511 76.2205L312.78 75.7335C313.027 75.6375 313.286 75.6975 313.456 75.8885C313.675 76.1355 313.689 76.5505 313.491 76.9235L312.405 78.9625C312.374 79.0195 312.367 79.0715 312.368 79.0865L312.625 80.9305C312.674 81.2915 312.499 81.6525 312.304 81.8515C312.13 82.0275 311.918 82.1125 311.71 82.0835L310.483 81.9315L309.157 83.6235C308.966 83.8655 308.748 83.9515 308.558 83.9515ZM307.835 79.6815L308.817 80.3895C309.017 80.5355 309.116 80.7985 309.081 81.0945L308.914 82.4925L309.801 81.3605C309.985 81.1255 310.219 81.0045 310.475 81.0375L311.702 81.1895C311.729 81.1445 311.751 81.0825 311.747 81.0515L311.49 79.2055C311.461 78.9945 311.51 78.7535 311.623 78.5435L312.573 76.7605L311.595 77.1355C311.285 77.2535 310.958 77.1215 310.818 76.8265L310.374 75.8835L309.778 77.8415C309.708 78.0685 309.573 78.2715 309.407 78.4005L307.904 79.5595C307.875 79.5815 307.849 79.6345 307.835 79.6815Z" fill="#E0E0E0"/>
<g opacity="0.2">
<path d="M319.464 70.4739C319.172 70.4739 318.89 70.3229 318.734 70.0529C318.501 69.6499 318.64 69.1349 319.042 68.9029L325.883 64.9529C326.288 64.7199 326.801 64.8589 327.033 65.2609C327.266 65.6639 327.127 66.1789 326.725 66.4109L319.884 70.3609C319.751 70.4369 319.606 70.4739 319.464 70.4739Z" fill="black"/>
<path d="M319.464 74.424C319.172 74.424 318.89 74.273 318.734 74.003C318.501 73.6 318.64 73.085 319.042 72.853L325.883 68.903C326.288 68.668 326.801 68.809 327.033 69.211C327.266 69.614 327.127 70.129 326.725 70.361L319.884 74.311C319.751 74.387 319.606 74.424 319.464 74.424Z" fill="black"/>
<path d="M319.464 78.3752C319.172 78.3752 318.89 78.2242 318.734 77.9542C318.501 77.5512 318.64 77.0362 319.042 76.8042L325.883 72.8542C326.288 72.6192 326.801 72.7602 327.033 73.1622C327.266 73.5652 327.127 74.0802 326.725 74.3122L319.884 78.2622C319.751 78.3382 319.606 78.3752 319.464 78.3752Z" fill="black"/>
</g>
<path d="M258.201 141.161L308.277 112.25C309.761 111.393 310.964 112.088 310.964 113.801L310.966 125.058C310.966 126.771 309.764 128.855 308.28 129.712L258.203 158.622C256.719 159.479 255.516 158.784 255.516 157.071L255.515 145.815C255.514 144.101 256.717 142.018 258.201 141.161Z" fill="#BA68C8"/>
<path opacity="0.3" d="M258.201 141.161L308.277 112.25C309.761 111.393 310.964 112.088 310.964 113.801L310.966 125.058C310.966 126.771 309.764 128.855 308.28 129.712L258.203 158.622C256.719 159.479 255.516 158.784 255.516 157.071L255.515 145.815C255.514 144.101 256.717 142.018 258.201 141.161Z" fill="white"/>
<path d="M197.711 176.034L247.787 147.123C249.271 146.266 250.474 146.961 250.474 148.674L250.476 159.931C250.476 161.644 249.274 163.728 247.79 164.585L197.713 193.496C196.229 194.353 195.026 193.658 195.026 191.945L195.025 180.689C195.025 178.974 196.227 176.891 197.711 176.034Z" fill="#BA68C8"/>
<path opacity="0.3" d="M197.711 176.034L247.787 147.123C249.271 146.266 250.474 146.961 250.474 148.674L250.476 159.931C250.476 161.644 249.274 163.728 247.79 164.585L197.713 193.496C196.229 194.353 195.026 193.658 195.026 191.945L195.025 180.689C195.025 178.974 196.227 176.891 197.711 176.034Z" fill="white"/>
<path d="M189.965 189.492C189.965 188.634 189.663 188.031 189.175 187.751C188.689 187.472 184.626 185.111 184.137 184.832C183.651 184.555 182.982 184.597 182.243 185.023L117.06 222.644C115.576 223.501 114.373 225.584 114.373 227.298L114.374 238.554C114.374 239.402 114.668 240 115.146 240.284C115.633 240.574 119.725 242.931 120.215 243.21C120.701 243.486 121.37 243.444 122.108 243.018L187.302 205.415C188.786 204.558 189.988 202.475 189.988 200.761L189.965 189.492Z" fill="#BA68C8"/>
<path opacity="0.15" d="M189.965 189.492C189.965 188.634 189.663 188.031 189.175 187.751C188.689 187.472 184.626 185.111 184.137 184.832C183.651 184.555 182.982 184.597 182.243 185.023L117.06 222.644C115.576 223.501 114.373 225.584 114.373 227.298L114.374 238.554C114.374 239.402 114.668 240 115.146 240.284C115.633 240.574 119.725 242.931 120.215 243.21C120.701 243.486 121.37 243.444 122.108 243.018L187.302 205.415C188.786 204.558 189.988 202.475 189.988 200.761L189.965 189.492Z" fill="black"/>
<path d="M122.1 225.557L187.271 187.941C188.012 187.513 188.682 187.472 189.168 187.751C189.656 188.031 189.958 188.634 189.958 189.492L189.982 200.762C189.982 202.476 188.78 204.559 187.296 205.416L122.102 243.019C121.364 243.445 120.695 243.487 120.209 243.211C119.718 242.932 119.415 242.328 119.415 241.467L119.414 230.211C119.413 228.497 120.616 226.413 122.1 225.557Z" fill="#BA68C8"/>
<path d="M189.176 187.754C188.692 187.469 188.022 187.518 187.277 187.94L122.111 225.554C121.366 225.976 120.696 226.721 120.2 227.564L115.162 224.648C115.646 223.804 116.316 223.072 117.061 222.638L182.239 185.02C182.984 184.598 183.654 184.548 184.138 184.834C184.621 185.106 188.692 187.469 189.176 187.754Z" fill="#BA68C8"/>
<path opacity="0.3" d="M189.176 187.754C188.692 187.469 188.022 187.518 187.277 187.94L122.111 225.554C121.366 225.976 120.696 226.721 120.2 227.564L115.162 224.648C115.646 223.804 116.316 223.072 117.061 222.638L182.239 185.02C182.984 184.598 183.654 184.548 184.138 184.834C184.621 185.106 188.692 187.469 189.176 187.754Z" fill="white"/>
<path d="M134.435 227.054L136.04 221.834C136.063 221.777 136.101 221.686 136.154 221.559C136.207 221.433 136.291 221.338 136.403 221.272L136.977 220.94C137.039 220.905 137.092 220.908 137.137 220.951C137.182 220.995 137.204 221.065 137.204 221.16V229.563C137.204 229.658 137.181 229.754 137.137 229.849C137.092 229.945 137.038 230.01 136.977 230.046L136.293 230.441C136.231 230.477 136.178 230.473 136.132 230.43C136.087 230.387 136.065 230.317 136.065 230.222V225.136L134.967 228.696C134.939 228.782 134.9 228.876 134.848 228.98C134.798 229.083 134.733 229.157 134.654 229.203L134.215 229.457C134.136 229.503 134.072 229.503 134.021 229.459C133.97 229.415 133.931 229.366 133.903 229.312L132.804 227.02V232.106C132.804 232.201 132.781 232.297 132.736 232.392C132.691 232.488 132.638 232.553 132.576 232.589L131.892 232.984C131.829 233.02 131.776 233.016 131.731 232.972C131.686 232.93 131.663 232.86 131.663 232.764V224.361C131.663 224.266 131.686 224.17 131.731 224.074C131.776 223.979 131.829 223.914 131.892 223.878L132.466 223.546C132.578 223.481 132.661 223.48 132.715 223.545C132.769 223.611 132.807 223.657 132.829 223.688L134.435 227.054Z" fill="#FAFAFA"/>
<path d="M138.229 225.942C138.229 225.456 138.277 224.971 138.373 224.486C138.468 224.001 138.606 223.549 138.787 223.128C138.967 222.708 139.185 222.333 139.441 222.002C139.698 221.672 139.984 221.416 140.299 221.234C140.614 221.052 140.901 220.976 141.156 221.006C141.412 221.036 141.631 221.149 141.81 221.343C141.991 221.538 142.13 221.809 142.228 222.156C142.327 222.502 142.377 222.896 142.377 223.338V223.923C142.377 224.019 142.354 224.114 142.309 224.21C142.264 224.305 142.21 224.371 142.148 224.406L139.326 226.035C139.326 226.235 139.352 226.395 139.406 226.516C139.459 226.637 139.532 226.723 139.622 226.776C139.712 226.828 139.816 226.846 139.934 226.829C140.053 226.812 140.174 226.769 140.298 226.697C140.478 226.593 140.625 226.481 140.737 226.359C140.85 226.238 140.942 226.113 141.016 225.983C141.078 225.878 141.129 225.801 141.168 225.753C141.207 225.704 141.26 225.661 141.329 225.621L142.004 225.231C142.067 225.195 142.121 225.198 142.169 225.239C142.217 225.281 142.238 225.352 142.232 225.45C142.227 225.575 142.183 225.756 142.101 225.994C142.019 226.232 141.897 226.489 141.733 226.765C141.57 227.042 141.369 227.314 141.13 227.582C140.89 227.851 140.613 228.076 140.298 228.258C139.982 228.44 139.696 228.521 139.44 228.5C139.184 228.478 138.965 228.364 138.786 228.156C138.605 227.948 138.468 227.657 138.372 227.283C138.277 226.909 138.229 226.462 138.229 225.942ZM140.3 222.795C140.137 222.889 139.997 223.007 139.882 223.148C139.766 223.288 139.67 223.439 139.59 223.602C139.512 223.765 139.451 223.93 139.408 224.098C139.365 224.265 139.339 224.417 139.328 224.553L141.237 223.451C141.226 223.327 141.205 223.203 141.173 223.078C141.142 222.952 141.091 222.852 141.022 222.774C140.951 222.698 140.859 222.656 140.743 222.649C140.627 222.643 140.48 222.691 140.3 222.795Z" fill="#FAFAFA"/>
<path d="M147.422 223.666C147.422 223.761 147.399 223.857 147.355 223.952C147.309 224.048 147.255 224.113 147.194 224.149L146.551 224.52C146.489 224.556 146.436 224.552 146.391 224.508C146.345 224.465 146.323 224.395 146.323 224.3V220.996C146.323 220.475 146.245 220.104 146.087 219.883C145.929 219.662 145.687 219.646 145.36 219.834C145.061 220.006 144.825 220.298 144.655 220.709C144.483 221.12 144.397 221.587 144.397 222.107V225.411C144.397 225.506 144.374 225.602 144.329 225.697C144.284 225.793 144.23 225.859 144.169 225.894L143.526 226.265C143.464 226.301 143.411 226.297 143.365 226.253C143.32 226.21 143.298 226.14 143.298 226.045V219.983C143.298 219.888 143.32 219.793 143.365 219.697C143.41 219.602 143.464 219.536 143.526 219.5L144.169 219.129C144.231 219.093 144.284 219.098 144.329 219.14C144.375 219.184 144.397 219.253 144.397 219.348V219.647C144.543 219.337 144.715 219.051 144.912 218.79C145.108 218.529 145.342 218.32 145.613 218.164C145.957 217.966 146.244 217.882 146.475 217.913C146.705 217.945 146.892 218.059 147.032 218.255C147.173 218.451 147.273 218.716 147.332 219.051C147.391 219.386 147.421 219.757 147.421 220.165L147.422 223.666Z" fill="#FAFAFA"/>
<path d="M148.503 216.979C148.503 216.884 148.526 216.789 148.57 216.693C148.614 216.598 148.668 216.532 148.731 216.496L149.373 216.125C149.435 216.09 149.488 216.094 149.534 216.137C149.578 216.181 149.601 216.25 149.601 216.345V219.65C149.601 220.17 149.673 220.545 149.817 220.774C149.96 221.003 150.195 221.024 150.522 220.835C150.821 220.663 151.049 220.375 151.207 219.972C151.364 219.569 151.443 219.107 151.443 218.587V215.282C151.443 215.187 151.466 215.092 151.511 214.996C151.556 214.901 151.609 214.835 151.671 214.799L152.313 214.428C152.375 214.392 152.428 214.397 152.474 214.439C152.518 214.483 152.541 214.552 152.541 214.647V220.709C152.541 220.804 152.518 220.9 152.474 220.995C152.428 221.091 152.374 221.156 152.313 221.192L151.671 221.563C151.609 221.599 151.556 221.595 151.511 221.551C151.466 221.508 151.443 221.438 151.443 221.343V221.044C151.313 221.319 151.154 221.591 150.961 221.862C150.77 222.133 150.539 222.346 150.269 222.503C149.925 222.701 149.641 222.783 149.415 222.749C149.19 222.714 149.009 222.597 148.874 222.398C148.739 222.198 148.644 221.931 148.587 221.594C148.531 221.258 148.503 220.886 148.503 220.479V216.979Z" fill="#FAFAFA"/>
<path d="M175.939 206.171L172.222 203.36L172.892 202.095L175.629 204.164L178.367 198.934L179.347 199.674L175.939 206.171Z" fill="#FAFAFA"/>
<path d="M253.158 234.48C253.158 233.622 252.856 233.019 252.368 232.739C251.882 232.46 247.83 230.116 247.34 229.837C246.854 229.56 246.176 229.593 245.436 230.02L202.752 254.656C201.268 255.513 200.065 256.209 200.065 256.209L200.066 340.415C200.066 341.263 200.36 341.861 200.838 342.145C201.325 342.435 205.417 344.792 205.907 345.071C206.393 345.347 207.062 345.305 207.8 344.879L250.495 320.252C251.979 319.395 253.181 317.312 253.181 315.598L253.158 234.48Z" fill="#E0E0E0"/>
<path d="M247.341 229.839C246.857 229.554 246.178 229.595 245.433 230.017L202.753 254.651C202.008 255.085 200.065 256.21 200.065 256.21L192.102 260.807C191.265 261.29 191.334 262.464 192.108 262.895C192.199 262.946 196.6 265.71 197.451 265.924L205.107 267.851V259.12C205.107 259.12 207.061 257.989 207.806 257.567L250.472 232.929C251.217 232.507 251.887 232.458 252.371 232.743C251.886 232.457 247.825 230.112 247.341 229.839Z" fill="#F0F0F0"/>
<path d="M253.152 234.481C253.152 233.623 252.85 233.02 252.362 232.74C251.876 232.461 251.205 232.502 250.465 232.93L205.107 259.121L197.144 263.718C196.311 264.199 196.375 265.364 197.138 265.8C197.232 265.854 197.337 265.896 197.452 265.925L205.107 267.851L205.108 343.329C205.108 344.19 205.412 344.794 205.902 345.072C206.388 345.348 207.056 345.306 207.795 344.88L250.49 320.253C251.974 319.396 253.176 317.313 253.176 315.599L253.152 234.481Z" fill="#FAFAFA"/>
<path d="M251.689 233.893C251.716 233.918 251.816 234.089 251.816 234.48L251.84 315.6C251.84 316.842 250.897 318.476 249.822 319.097L207.127 343.723C206.833 343.893 206.657 343.911 206.57 343.916C206.543 343.891 206.443 343.72 206.443 343.329L206.442 267.851V266.809L205.432 266.555L198.091 264.713L205.774 260.277L251.132 234.086C251.426 233.916 251.602 233.898 251.664 233.898L251.689 233.893ZM251.664 232.562C251.303 232.562 250.895 232.681 250.464 232.93L205.106 259.12L197.143 263.718C196.31 264.199 196.374 265.364 197.137 265.8C197.231 265.854 197.336 265.896 197.451 265.925L205.106 267.851L205.107 343.329C205.107 344.19 205.411 344.794 205.901 345.072C206.103 345.187 206.337 345.247 206.594 345.247C206.955 345.247 207.363 345.129 207.794 344.88L250.489 320.253C251.973 319.396 253.175 317.312 253.175 315.598L253.151 234.479C253.151 233.621 252.849 233.018 252.361 232.738C252.159 232.624 251.923 232.562 251.664 232.562Z" fill="#E0E0E0"/>
<path d="M205.107 310.79V312.223L253.167 284.476L253.166 283.043L205.107 310.79Z" fill="#E0E0E0"/>
<path d="M205.107 329.685L253.172 301.935L253.171 300.502L205.107 328.253V329.685Z" fill="#E0E0E0"/>
<path d="M205.106 275.864V277.297L253.156 249.556V248.123L205.106 275.864Z" fill="#E0E0E0"/>
<path d="M205.107 293.327V294.76L253.161 267.015V265.582L205.107 293.327Z" fill="#E0E0E0"/>
<path d="M206.348 294.044L251.966 267.705V283.859L206.348 310.072V294.044Z" fill="#BA68C8"/>
<path opacity="0.6" d="M206.348 294.044L251.966 267.705V283.859L206.348 310.072V294.044Z" fill="white"/>
<path d="M215.188 294.031L235.351 282.39C236.241 281.876 236.963 282.293 236.963 283.321V284.178C236.963 285.206 236.241 286.456 235.351 286.97L215.188 298.611C214.298 299.125 213.576 298.708 213.576 297.68V296.823C213.576 295.795 214.298 294.545 215.188 294.031Z" fill="#BA68C8"/>
<path d="M215.188 276.595L235.351 264.954C236.241 264.44 236.963 264.857 236.963 265.885V266.742C236.963 267.77 236.241 269.02 235.351 269.534L215.188 281.175C214.298 281.689 213.576 281.272 213.576 280.244V279.387C213.576 278.359 214.298 277.109 215.188 276.595Z" fill="#E0E0E0"/>
<path d="M215.188 259.119L235.351 247.478C236.241 246.964 236.963 247.381 236.963 248.409V249.266C236.963 250.294 236.241 251.544 235.351 252.058L215.189 263.699C214.299 264.213 213.577 263.796 213.577 262.768V261.911C213.576 260.883 214.298 259.633 215.188 259.119Z" fill="#E0E0E0"/>
<path d="M215.188 328.963L235.351 317.322C236.241 316.808 236.963 317.225 236.963 318.253V319.11C236.963 320.138 236.241 321.388 235.351 321.902L215.188 333.543C214.298 334.057 213.576 333.64 213.576 332.612V331.755C213.576 330.727 214.298 329.477 215.188 328.963Z" fill="#E0E0E0"/>
<path d="M215.188 311.486L235.351 299.845C236.241 299.331 236.963 299.748 236.963 300.776V301.633C236.963 302.661 236.241 303.911 235.351 304.425L215.188 316.066C214.298 316.58 213.576 316.163 213.576 315.135V314.278C213.576 313.25 214.298 312 215.188 311.486Z" fill="#E0E0E0"/>
<path d="M189.965 224.398C189.965 223.54 189.663 222.937 189.175 222.657C188.689 222.378 184.637 220.034 184.147 219.755C183.661 219.478 182.983 219.511 182.243 219.938L117.059 257.55C115.575 258.407 114.372 260.49 114.372 262.204L114.373 343.31C114.373 344.158 114.667 344.756 115.145 345.04C115.632 345.33 119.724 347.687 120.214 347.966C120.7 348.242 121.369 348.2 122.107 347.774L187.301 310.171C188.785 309.314 189.987 307.231 189.987 305.517L189.965 224.398Z" fill="#E0E0E0"/>
<path d="M189.176 222.661C188.692 222.376 188.022 222.425 187.277 222.847L122.111 260.461C121.366 260.883 120.696 261.628 120.2 262.471L115.162 259.555C115.646 258.711 116.316 257.979 117.061 257.545L182.24 219.935C182.985 219.513 183.664 219.472 184.148 219.757C184.632 220.03 188.692 222.375 189.176 222.661Z" fill="#F0F0F0"/>
<path d="M179.902 227.106L177.398 222.77C177.308 222.615 177.188 222.498 177.052 222.419C176.566 222.137 172.154 219.58 172.02 219.501C171.533 219.213 170.839 219.405 170.629 220.013L167.763 228.294L172.802 231.217L179.902 227.106Z" fill="#E0E0E0"/>
<path d="M189.958 224.399C189.958 223.541 189.656 222.938 189.168 222.658C188.682 222.379 188.011 222.42 187.271 222.848L179.9 227.102L177.398 222.769C176.989 222.06 175.935 222.16 175.668 222.934L172.81 231.194L122.1 260.464C120.616 261.321 119.413 263.404 119.413 265.118L119.414 346.224C119.414 347.085 119.718 347.689 120.208 347.968C120.694 348.244 121.363 348.202 122.101 347.776L187.295 310.173C188.779 309.316 189.982 307.233 189.981 305.519L189.958 224.399Z" fill="#FAFAFA"/>
<path d="M188.496 223.812C188.529 223.842 188.623 224.015 188.623 224.4L188.647 305.519C188.647 306.761 187.704 308.395 186.629 309.015L121.435 346.618C121.141 346.788 120.965 346.806 120.878 346.812C120.851 346.787 120.751 346.615 120.751 346.224L120.75 265.118C120.75 263.876 121.693 262.242 122.768 261.621L173.478 232.351L173.91 232.102L174.073 231.631L176.659 224.158L178.744 227.77L179.412 228.926L180.569 228.259L187.94 224.004C188.232 223.836 188.409 223.818 188.496 223.812ZM176.574 222.293C176.193 222.293 175.814 222.515 175.669 222.936L172.811 231.196L122.101 260.466C120.617 261.323 119.414 263.406 119.414 265.12L119.415 346.226C119.415 347.087 119.719 347.691 120.209 347.97C120.411 348.085 120.645 348.145 120.902 348.145C121.263 348.145 121.671 348.027 122.102 347.778L187.296 310.175C188.78 309.318 189.983 307.235 189.982 305.521L189.958 224.401C189.958 223.543 189.656 222.94 189.168 222.66C188.965 222.543 188.73 222.483 188.471 222.483C188.11 222.483 187.702 222.601 187.271 222.85L179.9 227.104L177.398 222.771C177.212 222.448 176.892 222.293 176.574 222.293Z" fill="#E0E0E0"/>
<path d="M119.413 278.775V280.208L189.98 239.466V238.033L119.413 278.775Z" fill="#E0E0E0"/>
<path d="M119.414 313.7V315.132L189.981 274.39V272.957L119.414 313.7Z" fill="#E0E0E0"/>
<path d="M119.414 332.595L189.982 291.853L189.981 290.42L119.414 331.163V332.595Z" fill="#E0E0E0"/>
<path d="M119.413 296.238V297.671L189.981 256.929V255.496L119.413 296.238Z" fill="#E0E0E0"/>
<path d="M120.671 296.954L188.763 257.631L188.743 273.672L120.671 312.984V296.954Z" fill="#BA68C8"/>
<path opacity="0.6" d="M120.671 296.954L188.763 257.631L188.743 273.672L120.671 312.984V296.954Z" fill="white"/>
<path d="M131.106 296.022L163.168 277.511C164.058 276.997 164.78 277.414 164.78 278.442V279.299C164.78 280.327 164.058 281.577 163.168 282.091L131.106 300.602C130.216 301.116 129.494 300.699 129.494 299.671V298.814C129.494 297.787 130.216 296.536 131.106 296.022Z" fill="#BA68C8"/>
<path d="M131.106 278.585L163.168 260.074C164.058 259.56 164.78 259.977 164.78 261.005V261.862C164.78 262.89 164.058 264.14 163.168 264.654L131.106 283.165C130.216 283.679 129.494 283.262 129.494 282.234V281.377C129.494 280.349 130.216 279.099 131.106 278.585Z" fill="#E0E0E0"/>
<path d="M131.106 261.11L163.168 242.599C164.058 242.085 164.78 242.502 164.78 243.53V244.387C164.78 245.415 164.058 246.665 163.168 247.179L131.106 265.69C130.216 266.204 129.494 265.787 129.494 264.759V263.902C129.494 262.874 130.216 261.624 131.106 261.11Z" fill="#E0E0E0"/>
<path d="M131.106 330.954L163.168 312.443C164.058 311.929 164.78 312.346 164.78 313.374V314.231C164.78 315.259 164.058 316.509 163.168 317.023L131.106 335.534C130.216 336.048 129.494 335.631 129.494 334.603V333.746C129.494 332.719 130.216 331.468 131.106 330.954Z" fill="#E0E0E0"/>
<path d="M131.106 313.477L163.168 294.966C164.058 294.452 164.78 294.869 164.78 295.897V296.754C164.78 297.782 164.058 299.032 163.168 299.546L131.106 318.057C130.216 318.571 129.494 318.154 129.494 317.126V316.269C129.494 315.241 130.216 313.991 131.106 313.477Z" fill="#E0E0E0"/>
<path d="M266.536 296.408L251.489 278.381C251.394 278.267 251.302 278.186 251.218 278.137C250.911 277.959 247.692 276.102 247.608 276.053C247.299 275.873 247.078 276.112 247.077 276.704L246.997 313.135C246.996 313.443 247.045 313.621 247.129 313.67C247.249 313.741 250.658 315.709 250.743 315.756C250.863 315.824 251.054 315.626 251.269 315.166L253.852 309.643L255.325 314.9C255.383 315.107 255.483 315.25 255.612 315.329C255.907 315.509 259.101 317.343 259.235 317.421C259.53 317.591 259.968 317.433 260.388 316.95L262.472 314.555C263.082 313.854 263.423 312.732 263.231 312.05L260.386 301.894C260.195 301.212 260.728 300.348 261.577 299.964L265.796 298.057C266.645 297.674 266.976 296.936 266.536 296.408Z" fill="#BA68C8"/>
<path d="M266.536 296.408L251.489 278.381C251.394 278.267 251.302 278.186 251.218 278.137C250.911 277.959 247.692 276.102 247.608 276.053C247.299 275.873 247.078 276.112 247.077 276.704L246.997 313.135C246.996 313.443 247.045 313.621 247.129 313.67C247.249 313.741 250.658 315.709 250.743 315.756C250.863 315.824 251.054 315.626 251.269 315.166L253.852 309.643L255.325 314.9C255.383 315.107 255.483 315.25 255.612 315.329C255.907 315.509 259.101 317.343 259.235 317.421C259.53 317.591 259.968 317.433 260.388 316.95L262.472 314.555C263.082 313.854 263.423 312.732 263.231 312.05L260.386 301.894C260.195 301.212 260.728 300.348 261.577 299.964L265.796 298.057C266.645 297.674 266.976 296.936 266.536 296.408Z" fill="#37474F"/>
<path d="M250.609 315.22L250.689 278.79C250.691 278.037 251.049 277.854 251.49 278.382L266.537 296.409C266.977 296.937 266.646 297.676 265.797 298.059L261.578 299.966C260.729 300.35 260.196 301.214 260.387 301.896L263.232 312.052C263.423 312.734 263.083 313.855 262.473 314.557L260.389 316.952C259.778 317.654 259.129 317.669 258.938 316.987L256.093 306.831C255.902 306.149 255.45 306.231 255.084 307.013L251.271 315.168C250.902 315.949 250.607 315.973 250.609 315.22Z" fill="#455A64"/>
<path d="M259.173 317.383C258.713 317.12 255.89 315.497 255.609 315.329C255.483 315.251 255.382 315.108 255.322 314.899L253.853 309.646L255.083 307.013C255.447 306.231 255.901 306.147 256.092 306.828L258.934 316.982C258.988 317.168 259.065 317.299 259.173 317.383Z" fill="#263238"/>
<path d="M338.066 386.157L329.824 369.918L313.233 379.628L333.685 403.771C333.685 403.771 343.822 402.833 345.455 397.544C347.086 392.255 340.858 387.916 338.066 386.157Z" fill="#C8856A"/>
<path d="M349.753 392.533C350.764 393.225 351.384 394.055 352.052 395.046C352.72 396.037 352.513 400.845 353.151 403.075C353.789 405.305 354.282 405.9 355.348 408.696C356.529 411.795 358.715 414.625 356.247 422.588C353.747 430.658 349.823 434.347 346.486 436.293C344.732 437.316 342.462 437.269 342.462 437.269C342.462 437.269 338.089 435.616 338.76 433.03C339.43 430.444 349.753 392.533 349.753 392.533Z" fill="#263238"/>
<path d="M330.565 401.276C330.686 402.096 331.833 403.357 332.299 404.027C333.867 406.28 334.588 409.326 335.133 411.989C337.712 424.592 332.702 430.998 339.485 435.725C341.451 436.962 345.527 436.623 351.723 428.679C354.888 424.621 356.695 416.277 355.461 412.498C354.226 408.72 352.537 406.259 351.74 403.352C350.944 400.446 351.358 395.029 349.754 392.533C348.813 391.068 347.282 390.038 345.819 389.148C344.616 388.417 341.985 387.454 340.757 386.756C339.43 386.002 338.855 385.266 338.066 386.156L339.482 387.906C341.694 390.967 341.077 391.415 341.024 393.045C340.969 394.744 341.536 396.543 341.846 398.234C340.273 396.25 339.63 394.516 337.913 394.821C336.306 395.106 335.991 395.042 333.53 397.35C331.069 399.66 330.458 400.547 330.565 401.276Z" fill="#BA68C8"/>
<path opacity="0.4" d="M330.565 401.276C330.686 402.096 331.833 403.357 332.299 404.027C333.867 406.28 334.588 409.326 335.133 411.989C337.712 424.592 332.702 430.998 339.485 435.725C341.451 436.962 345.527 436.623 351.723 428.679C354.888 424.621 356.695 416.277 355.461 412.498C354.226 408.72 352.537 406.259 351.74 403.352C350.944 400.446 351.358 395.029 349.754 392.533C348.813 391.068 347.282 390.038 345.819 389.148C344.616 388.417 341.985 387.454 340.757 386.756C339.43 386.002 338.855 385.266 338.066 386.156L339.482 387.906C341.694 390.967 341.077 391.415 341.024 393.045C340.969 394.744 341.536 396.543 341.846 398.234C340.273 396.25 339.63 394.516 337.913 394.821C336.306 395.106 335.991 395.042 333.53 397.35C331.069 399.66 330.458 400.547 330.565 401.276Z" fill="black"/>
<path opacity="0.3" d="M351.723 428.678C354.888 424.62 356.695 416.276 355.461 412.497C355.015 411.131 354.509 409.941 354.007 408.836C354.06 409.091 354.136 409.352 354.171 409.57C354.248 410.058 354.312 410.549 354.359 411.041C354.541 412.934 354.534 414.997 353.732 416.762C353.018 418.332 351.373 422.272 349.252 422.359C348.051 422.408 347.037 421.234 346.575 419.891C346.38 419.324 346.058 417.795 346.058 417.795C346.058 417.795 342.928 418.47 340.546 420.045C337.47 422.08 337.582 422.53 337.582 422.53C337.711 423.225 337.85 424.405 337.682 425.23C337.514 426.057 337.046 427.392 336.537 427.92C336.291 428.175 336.025 428.375 335.754 428.548C335.88 431.454 336.641 433.74 339.486 435.723C341.451 436.961 345.527 436.621 351.723 428.678Z" fill="black"/>
<path d="M335.133 411.989C335.933 415.899 336.002 419.211 335.92 422.063C337.078 425.29 338.093 425.194 338.231 423.523C338.37 421.842 336.142 414.91 334.483 409.176C334.737 410.127 334.948 411.08 335.133 411.989Z" fill="#37474F"/>
<path d="M342.803 391.781C342.989 390.209 342.496 388.593 341.569 387.169C341.266 387.026 340.982 386.886 340.756 386.758C339.429 386.004 338.854 385.268 338.065 386.158L339.481 387.909C341.693 390.97 341.076 391.418 341.023 393.048C340.968 394.747 341.535 396.545 341.845 398.237C343.129 403.709 344.302 405.537 344.907 410.706C345.513 415.875 344.477 419.349 345.207 419.642C345.937 419.935 347.412 419.348 347.68 415.205C347.947 411.062 346.12 404.101 344.83 400.803C343.541 397.503 342.541 393.991 342.803 391.781Z" fill="#37474F"/>
<path d="M346.424 418.158C346.354 418.229 346.264 418.281 346.16 418.302C342.532 419.049 340.598 419.961 337.897 423.142C337.705 423.352 337.389 423.386 337.17 423.202C336.953 423.018 336.926 422.692 337.11 422.475C339.964 419.115 342.092 418.086 345.951 417.292C346.229 417.235 346.502 417.414 346.56 417.693C346.597 417.868 346.54 418.041 346.424 418.158Z" fill="#EBEBEB"/>
<path d="M345.77 413.848C345.702 413.918 345.613 413.969 345.512 413.993C341.759 414.861 339.675 415.925 336.809 419.275C336.593 419.517 336.284 419.523 336.063 419.333C335.842 419.143 335.815 418.808 336.005 418.587C339.03 415.059 341.296 413.882 345.275 412.961C345.559 412.895 345.844 413.072 345.91 413.357C345.95 413.541 345.892 413.723 345.77 413.848Z" fill="#EBEBEB"/>
<path d="M345.861 409.101C345.786 409.177 345.689 409.234 345.576 409.26C341.437 410.22 339.008 411.504 335.849 415.197C335.651 415.437 335.271 415.47 335.026 415.26C334.782 415.05 334.753 414.682 334.963 414.437C338.29 410.556 340.927 409.14 345.314 408.123C345.628 408.05 345.941 408.246 346.014 408.56C346.06 408.762 345.996 408.963 345.861 409.101Z" fill="#EBEBEB"/>
<path d="M345.173 405.045C345.1 405.12 345.004 405.175 344.894 405.201C340.836 406.139 338.486 407.372 335.381 411C335.183 411.23 334.815 411.268 334.575 411.062C334.335 410.857 334.307 410.496 334.513 410.256C337.77 406.448 340.336 405.082 344.637 404.087C344.944 404.016 345.251 404.208 345.323 404.516C345.369 404.713 345.306 404.91 345.173 405.045Z" fill="#EBEBEB"/>
<path d="M343.686 401.097C343.613 401.172 343.517 401.227 343.407 401.253C339.349 402.194 337.001 403.423 333.894 407.053C333.691 407.288 333.328 407.321 333.088 407.115C332.848 406.91 332.82 406.549 333.026 406.309C336.289 402.499 338.848 401.135 343.149 400.138C343.456 400.067 343.764 400.259 343.836 400.567C343.881 400.765 343.818 400.962 343.686 401.097Z" fill="#EBEBEB"/>
<path d="M333.59 387.457L322.848 396.238L316.774 400.049L323.708 413.162L343.247 403.808L333.59 387.457Z" fill="#C8856A"/>
<path d="M355.477 328.814C355.477 328.814 316.384 322.335 299.655 322.441C282.585 322.549 281 335.367 285.271 343.217C293.45 358.248 321.888 390.125 321.888 390.125C321.888 390.125 331.44 385.75 334.375 377.486L327.887 362.612L348.59 369.204L350.978 366.294L355.477 328.814Z" fill="#455A64"/>
<path d="M324.483 349.945C328.748 356.303 331.422 361.018 333.102 364.272L327.887 362.611C322.009 348.607 320.803 344.525 311.41 337.963C311.41 337.963 318.149 340.503 324.483 349.945Z" fill="#37474F"/>
<path d="M355.477 328.814L415.751 339.864C415.751 339.864 420.525 362.077 415.911 375.957C411.397 389.536 398.01 393.428 391.568 393.926C382.354 394.638 371.656 391.789 371.656 391.789C371.656 391.789 366.348 395.943 360.963 398.084C355.577 400.224 332.006 410.098 332.006 410.098C332.006 410.098 325.385 404.494 326.043 392.815L350.978 366.294L355.477 328.814Z" fill="#455A64"/>
<path d="M332.006 410.097C332.006 410.097 330.727 409.505 328.893 406.038C334.987 404.6 355.059 396.744 361.544 393.996C373.083 389.105 376.645 383.939 376.645 383.939C376.645 383.939 376.724 387.375 371.655 391.789C371.655 391.789 366.347 395.943 360.962 398.084C355.577 400.224 332.006 410.097 332.006 410.097Z" fill="#37474F"/>
<path d="M383.99 389.577C389.755 390.504 405.283 387.647 410.327 376.705C415.266 365.993 413.602 353.209 412.501 342.209L414.363 342.645L417.63 343.531C418.492 353.306 419.454 364.862 416.601 375.814C412.995 389.662 398.009 393.426 391.566 393.924C382.352 394.636 371.654 391.787 371.654 391.787L374.718 387.052C374.718 387.052 378.186 388.644 383.99 389.577Z" fill="#37474F"/>
<path d="M348.299 369.142C348.299 369.142 349.385 367.848 351.665 365.174C353.945 362.5 357.625 357.432 367.087 357.796C376.549 358.16 394.739 359.798 394.739 359.798C394.739 359.798 375.765 356.568 369.215 355.476C362.664 354.384 358.298 355.143 354.562 358.456C350.826 361.769 345.032 368.071 345.032 368.071L348.299 369.142Z" fill="#37474F"/>
<path d="M360.978 357.011C360.978 357.011 356.234 352.1 356.552 343.877C356.552 343.877 354.284 352.513 357.908 358.784L360.978 357.011Z" fill="#37474F"/>
<path d="M292.147 406.881C287.549 408.693 284.709 410.519 282.585 413.295C280.461 416.071 279.813 418.883 281.83 422.246C283.848 425.609 287.556 429.557 291.958 429.3C296.361 429.042 299.071 427.945 303.156 425.73L292.147 406.881Z" fill="#263238"/>
<path d="M328.892 410.771C328.956 412.148 323.149 414.896 317.115 417.774C310.648 420.86 309.056 422.869 303.776 425.466C297.744 428.435 295.452 428.606 290.77 427.305C286.088 426.005 280.312 419.303 284.335 413.141C287.615 408.117 291.864 406.737 298.311 405.041C304.976 403.288 308.523 402.06 313.393 400.168C318.048 398.36 321.886 395.111 322.848 396.238C322.183 396.561 317.312 399.567 318.233 400.385C318.458 400.806 319.155 400.675 320.353 400.18C320.875 399.964 321.48 399.833 322.022 400.099C322.569 400.368 322.919 400.976 323.226 401.547C323.973 402.934 324.069 403.787 324.686 405.241C325.046 406.091 324.896 405.599 325.232 406.458C325.608 407.422 326.325 408.875 326.231 409.757C326.174 410.288 325.788 410.458 325.378 410.718C324.969 410.977 324.392 411.292 324.006 411.589C323.852 411.708 323.575 412.103 323.663 412.305C323.809 412.642 324.65 412.482 324.999 412.337C325.418 412.162 325.936 412.047 326.362 411.889C326.767 411.74 327.826 411.268 328.892 410.771Z" fill="#BA68C8"/>
<path opacity="0.4" d="M328.892 410.771C328.956 412.148 323.149 414.896 317.115 417.774C310.648 420.86 309.056 422.869 303.776 425.466C297.744 428.435 295.452 428.606 290.77 427.305C286.088 426.005 280.312 419.303 284.335 413.141C287.615 408.117 291.864 406.737 298.311 405.041C304.976 403.288 308.523 402.06 313.393 400.168C318.048 398.36 321.886 395.111 322.848 396.238C322.183 396.561 317.312 399.567 318.233 400.385C318.458 400.806 319.155 400.675 320.353 400.18C320.875 399.964 321.48 399.833 322.022 400.099C322.569 400.368 322.919 400.976 323.226 401.547C323.973 402.934 324.069 403.787 324.686 405.241C325.046 406.091 324.896 405.599 325.232 406.458C325.608 407.422 326.325 408.875 326.231 409.757C326.174 410.288 325.788 410.458 325.378 410.718C324.969 410.977 324.392 411.292 324.006 411.589C323.852 411.708 323.575 412.103 323.663 412.305C323.809 412.642 324.65 412.482 324.999 412.337C325.418 412.162 325.936 412.047 326.362 411.889C326.767 411.74 327.826 411.268 328.892 410.771Z" fill="black"/>
<path opacity="0.3" d="M305.848 424.467C304.981 424.904 299.505 427.449 297.785 425.923C295.924 424.271 300.317 421.635 300.317 421.635C300.317 421.635 300.987 417.504 296.001 411.428C295.137 412.098 291.536 412.064 291.586 409.944C291.635 407.838 297.669 405.228 297.756 405.189C291.583 406.841 287.52 408.263 284.335 413.141C280.312 419.303 286.088 426.005 290.77 427.305C295.452 428.606 297.744 428.434 303.776 425.466C304.38 425.169 305.317 424.778 305.848 424.467Z" fill="black"/>
<path d="M299.729 421.222C297.445 421.985 299.012 424.061 302.357 423.388C307.372 422.378 311.535 419.534 317.116 417.773C323.15 414.894 329.295 412.214 328.899 410.689C327.819 411.094 325.51 412.056 325.51 412.056C325.057 412.248 323.892 412.682 323.892 412.682C319.319 414.657 314.26 417.833 309.314 419.173C304.955 420.355 302.013 420.459 299.729 421.222Z" fill="#37474F"/>
<path d="M296.334 412.212C298.424 411.002 298.788 409.969 302.888 408.086C306.957 406.216 313.917 402.175 318.2 399.68C319.54 398.945 322.804 396.261 322.849 396.238C322.14 395.43 319.528 396.176 316.915 397.824C314.302 399.471 312.71 400.521 310.119 401.869C305.088 404.892 299.35 406.932 296.477 408.782C293.602 410.632 294.244 413.421 296.334 412.212Z" fill="#37474F"/>
<path d="M296.025 411.657C296.054 411.724 296.095 411.786 296.145 411.842C296.188 411.887 299.458 415.485 300.057 421.96C300.088 422.279 300.344 422.531 300.629 422.526C300.915 422.522 301.122 422.261 301.093 421.943C300.452 415.015 297.025 411.255 296.836 411.053C296.622 410.823 296.293 410.811 296.102 411.03C295.956 411.195 295.933 411.446 296.025 411.657Z" fill="#F0F0F0"/>
<path d="M300.079 408.697C300.105 408.758 300.14 408.814 300.185 408.866C300.23 408.918 304.152 413.654 305.029 420.81C305.072 421.125 305.331 421.371 305.616 421.357C305.901 421.342 306.101 421.072 306.061 420.755C305.13 413.187 301.101 408.335 300.904 408.107C300.695 407.869 300.366 407.845 300.167 408.054C300.012 408.219 299.983 408.478 300.079 408.697Z" fill="#F0F0F0"/>
<path d="M309.01 420.385C309.098 420.588 309.284 420.737 309.494 420.75C309.782 420.765 310.007 420.522 309.997 420.206C309.756 412.881 305.039 406.007 304.816 405.769C304.601 405.537 304.273 405.527 304.082 405.746C303.893 405.964 303.919 406.33 304.126 406.558C304.175 406.612 308.737 413.327 308.954 420.145C308.957 420.229 308.977 420.309 309.01 420.385Z" fill="#F0F0F0"/>
<path d="M312.759 417.989C312.846 418.188 313.027 418.335 313.234 418.352C313.523 418.374 313.752 418.136 313.746 417.82C313.607 409.723 308.513 404.338 308.285 404.121C308.058 403.905 307.731 403.917 307.554 404.149C307.377 404.382 307.419 404.752 307.645 404.961C307.696 405.008 312.573 410.202 312.704 417.737C312.705 417.827 312.725 417.912 312.759 417.989Z" fill="#F0F0F0"/>
<path d="M317.618 415.935C317.703 416.131 317.881 416.278 318.086 416.297C318.374 416.324 318.606 416.09 318.605 415.774C318.573 408.155 313.217 402.258 312.976 402.02C312.755 401.797 312.426 401.802 312.244 402.029C312.061 402.254 312.09 402.619 312.317 402.841C312.372 402.897 317.535 408.601 317.564 415.676C317.564 415.768 317.583 415.855 317.618 415.935Z" fill="#EBEBEB"/>
<path d="M289.735 277.236L326.106 281.538C326.106 281.538 336.173 277.031 342.432 274.315C364.119 264.905 367.484 263.174 374.494 263.269L362.659 288.131C362.659 288.131 348.578 294.096 335.608 298.975C328.851 301.517 328.935 301.96 321.471 300.049C315.922 298.628 313.053 297.883 304.992 295.694C295.112 293.011 288.44 291.427 288.44 291.427L289.735 277.236Z" fill="#C8856A"/>
<path d="M293.903 278.045C287.258 276.708 284.682 276.757 282.855 272.631C281.027 268.505 280.306 267.721 279.564 266.937C278.823 266.153 274.013 263.401 271.966 262.303C270.448 261.489 269.065 261.575 266.304 260.979C264.927 260.682 263.351 260.238 261.995 259.843C260.918 259.529 259.718 258.869 258.574 258.893C257.044 258.925 257.387 261.085 258.442 262.117C259.574 263.225 261.244 263.902 262.717 264.493C263.825 264.938 266.455 265.957 266.455 265.957C266.056 266.861 265.027 268.495 265.049 269.608C265.07 270.682 265.242 271.158 267.227 273.068C267.227 273.068 266.346 274.022 266.563 274.942C266.78 275.862 267.503 276.626 268.095 277.252C268.095 277.252 267.543 277.884 267.543 278.762C267.543 279.64 269.047 281.315 270.576 282.616C272.136 284.313 273.463 286.915 274.905 288.257C276.347 289.598 278.418 290 281.841 290.271C285.264 290.541 294.076 292.729 294.076 292.729C294.076 292.729 300.34 279.34 293.903 278.045Z" fill="#C8856A"/>
<path d="M277.25 269.115C275.267 268.62 273.695 267.827 272.528 266.408C271.361 264.989 270.164 263.338 269.62 263.557C268.706 263.926 267.769 266.42 269.463 268.901C271.079 271.266 273.64 273.733 274.059 274.444C274.479 275.155 274.625 277.2 274.682 278.792C274.739 280.384 275.927 284.135 280.505 285.533C280.505 285.533 278.112 285.689 275.604 283.386C273.095 281.083 273.535 277.44 273.272 275.91C273.01 274.38 272.956 274.071 271.062 272.091C269.168 270.111 267.114 267.983 267.92 264.867C268.726 261.751 270.054 262.488 270.714 263.115C271.375 263.741 274.107 268.408 277.25 269.115Z" fill="#AF6152"/>
<path d="M266.454 265.959L268.263 266.393L267.92 267.064C267.92 267.064 266.378 266.798 265.371 268.219C265.611 267.627 266.126 266.626 266.454 265.959Z" fill="#AF6152"/>
<path d="M267.225 273.068C267.857 273.718 269.94 275.61 270.356 275.998C270.772 276.386 271.622 275.827 271.752 274.678C271.882 273.529 271.725 272.846 271.196 271.977C271.196 271.977 272.34 273.21 272.226 274.691C272.111 276.171 271.321 276.706 270.725 276.782C270.127 276.856 268.585 274.445 267.225 273.068Z" fill="#AF6152"/>
<path d="M268.093 277.253C268.56 277.747 269.314 278.314 270.634 279.652C271.398 280.427 271.857 280.949 272.403 280.619C272.948 280.289 273.403 278.632 272.762 277.559C272.12 276.486 271.453 275.837 271.453 275.837L271.82 275.436C271.82 275.436 273.289 276.82 273.653 278.289C274.017 279.758 273.177 281.407 272.425 281.318C271.674 281.229 271.26 280.779 270.21 279.626C269.161 278.474 268.093 277.253 268.093 277.253Z" fill="#AF6152"/>
<path d="M272.025 280.946C272.294 281.298 272.482 282.282 271.837 282.6C271.192 282.917 270.575 282.618 270.575 282.618C270.575 282.618 271.235 283.337 272.073 282.917C272.846 282.529 272.861 281.55 272.682 280.807L272.025 280.946Z" fill="#AF6152"/>
<path d="M416.067 303.706C414.716 283.987 414.768 275.466 412.817 269.012C409.817 268.124 403.368 266.333 403.368 266.333C403.368 266.333 387.835 265.666 382.275 263.37L374.494 263.072C370.265 267.133 359.15 275.786 355.542 283.994C353.127 289.489 353.193 297.558 359.781 303.026C359.691 308.889 360.773 316.285 360.773 316.285C360.773 316.285 358.762 322.575 356.252 328.758C357.188 338.463 371.338 345.731 388.612 350.412C407.152 355.436 418.492 347.933 418.492 347.933C418.492 347.933 417.406 323.245 416.067 303.706Z" fill="#BA68C8"/>
<path opacity="0.6" d="M416.067 303.706C414.716 283.987 414.768 275.466 412.817 269.012C409.817 268.124 403.368 266.333 403.368 266.333C403.368 266.333 387.835 265.666 382.275 263.37L374.494 263.072C370.265 267.133 359.15 275.786 355.542 283.994C353.127 289.489 353.193 297.558 359.781 303.026C359.691 308.889 360.773 316.285 360.773 316.285C360.773 316.285 358.762 322.575 356.252 328.758C357.188 338.463 371.338 345.731 388.612 350.412C407.152 355.436 418.492 347.933 418.492 347.933C418.492 347.933 417.406 323.245 416.067 303.706Z" fill="white"/>
<path opacity="0.3" d="M375.368 306.465C375.368 306.465 380.04 312.745 389.871 312.058C400.014 311.349 402.328 303.066 402.328 303.066C402.328 303.066 402.3 314.044 390.182 314.894C379.009 315.678 375.368 306.465 375.368 306.465Z" fill="#BA68C8"/>
<path d="M387.014 361.139V362.282C387.014 363.435 386.398 364.504 385.403 365.08L354.614 382.798C354.116 383.086 353.557 383.228 352.997 383.228C352.443 383.228 351.883 383.087 351.386 382.798L294.906 350.191C293.905 349.614 293.289 348.546 293.289 347.393V346.607L352.997 381.08L387.014 361.139Z" fill="#EBEBEB"/>
<path d="M293.289 346.607L326.778 327.274C327.374 326.93 328.107 326.93 328.703 327.274L386.801 360.821C387.086 360.986 387.086 361.397 386.801 361.562L352.998 381.081L293.289 346.607Z" fill="#FAFAFA"/>
<path d="M353.306 378.237L371.368 367.819L318.553 337.326L300.396 347.689L353.306 378.237Z" fill="#E0E0E0"/>
<path d="M362.183 349.257L361.85 349.449L352.997 354.559L337.253 345.47L336.925 345.283L346.112 339.98L362.183 349.257Z" fill="#E0E0E0"/>
<path d="M361.85 349.449L352.997 354.559L337.253 345.47L346.112 340.359L361.85 349.449Z" fill="#E6E6E6"/>
<path d="M352.997 381.078V383.226C352.443 383.226 351.883 383.085 351.386 382.796L294.906 350.189C293.905 349.612 293.289 348.544 293.289 347.391V346.605L352.997 381.078Z" fill="#EBEBEB"/>
<g opacity="0.5">
<path d="M352.997 381.078V383.226C352.443 383.226 351.883 383.085 351.386 382.796L294.906 350.189C293.905 349.612 293.289 348.544 293.289 347.391V346.605L352.997 381.078Z" fill="#E0E0E0"/>
</g>
<path d="M352.087 381.557C351.018 381.97 349.803 381.891 348.791 381.302L292.559 348.836C291.57 348.265 290.891 347.287 290.699 346.162L284.543 309.451C284.509 309.242 284.492 309.032 284.492 308.823C284.492 307.8 284.899 306.822 285.623 306.104L344.059 339.847C344.788 340.271 345.292 340.995 345.433 341.826L352.087 381.557Z" fill="#BA68C8"/>
<g opacity="0.7">
<path d="M352.087 381.557C351.018 381.97 349.803 381.891 348.791 381.302L292.559 348.836C291.57 348.265 290.891 347.287 290.699 346.162L284.543 309.451C284.509 309.242 284.492 309.032 284.492 308.823C284.492 307.8 284.899 306.822 285.623 306.104L344.059 339.847C344.788 340.271 345.292 340.995 345.433 341.826L352.087 381.557Z" fill="white"/>
</g>
<path d="M352.997 381.081L352.613 381.301C352.443 381.397 352.268 381.482 352.087 381.556L345.433 341.826C345.292 340.995 344.788 340.271 344.059 339.847L285.623 306.104C285.849 305.878 286.115 305.68 286.403 305.51L344.958 339.316C345.687 339.74 346.19 340.464 346.332 341.295L352.997 381.081Z" fill="#FAFAFA"/>
<path d="M320.417 347.665C320.005 345.207 317.467 341.942 314.749 340.373C312.031 338.804 310.161 339.524 310.574 341.982C310.986 344.44 313.524 347.705 316.242 349.274C318.96 350.844 320.829 350.123 320.417 347.665Z" fill="#BA68C8"/>
<path d="M433.319 324.975C432.719 321.023 426.881 284.276 425.145 279.323C423.263 273.955 421.207 271.447 412.892 269.012C405.129 274.32 406.658 291.807 407.661 295.825L413.723 324.702C413.723 324.702 405.079 328.813 398.108 332.026C392.148 334.772 387.969 337.896 380.987 338.584C374.004 339.272 372.687 338.894 366.714 341.499C364.704 342.604 362.516 343.484 360.697 344.891C358.589 347.106 355.99 348.804 353.736 350.866C352.035 352.005 353.577 352.836 354.92 352.942C358.634 353.072 361.636 350.203 364.97 349.026C364.572 350.207 364.355 351.464 364.324 352.71C364.299 353.711 364.055 354.922 364.913 355.673C365.396 356.096 366.412 356.359 366.991 356.579C366.991 356.579 366.986 357.14 367.388 357.554C367.798 357.977 368.607 358.068 369.161 358.048C369.595 358.033 370.18 357.915 370.18 357.915C370.18 358.582 370.823 359.187 371.28 359.382C372.835 360.047 375.194 359.749 375.548 359.613C375.759 359.532 377.365 358.708 377.836 358.474C378.518 358.135 379.124 357.948 379.427 357.515C379.786 357.001 378.833 355.779 378.016 355.632C377.141 355.432 375.85 355.676 375.293 355.754C375.655 354.983 375.966 354.313 376.137 353.429C376.901 352.255 382.224 353.569 386.988 352.84C390.586 352.289 392.738 349.633 394.36 348.929C405.123 344.256 419.342 341.428 426.379 339.349C435.064 336.784 434.439 332.357 433.319 324.975Z" fill="#C8856A"/>
<path d="M364.969 349.025C365.342 347.071 366.14 345.162 366.99 344.256C365.129 344.891 363.776 349.518 363.776 349.518L364.969 349.025Z" fill="#AF6152"/>
<path d="M366.99 356.578C366.81 355.602 366.878 354.603 366.957 353.624C367.041 352.641 367.203 351.669 367.396 350.704C367.606 349.751 367.812 348.764 368.253 347.853C368.689 346.967 369.215 346.053 370.071 345.525C369.71 345.857 369.462 346.279 369.24 346.705C369.008 347.127 368.814 347.568 368.657 348.02C368.333 348.916 368.151 349.862 367.952 350.819C367.748 351.77 367.573 352.727 367.388 353.683C367.22 354.641 367.044 355.597 366.99 356.578Z" fill="#AF6152"/>
<path d="M370.178 357.915C370.072 356.95 370.137 355.975 370.235 355.014C370.333 354.05 370.514 353.098 370.726 352.154C370.951 351.213 371.209 350.276 371.572 349.373C371.946 348.495 372.305 347.514 373.103 346.916C372.766 347.266 372.606 347.725 372.429 348.16C372.26 348.603 372.112 349.055 371.984 349.513C371.726 350.429 371.487 351.352 371.278 352.283C370.848 354.142 370.443 356.004 370.178 357.915Z" fill="#AF6152"/>
<path d="M378.014 355.633C377.578 355.654 377.178 355.667 376.811 355.78C376.424 355.864 376.145 356.053 375.657 356.199L375.86 355.887C375.884 356.126 375.833 356.284 375.77 356.461C375.709 356.632 375.599 356.776 375.487 356.904C375.261 357.161 374.971 357.334 374.662 357.419C374.866 357.172 375.042 356.929 375.167 356.684C375.227 356.559 375.261 356.43 375.293 356.308C375.321 356.193 375.323 356.043 375.315 355.977L375.289 355.755L375.518 355.665C375.818 355.547 376.203 355.471 376.653 355.45C377.115 355.435 377.646 355.395 378.014 355.633Z" fill="#AF6152"/>
<path d="M404.584 212.45C411.954 210.155 419.255 219.015 418.373 226.156C421.556 228.598 423.35 237.247 419.209 241.537C421.627 245.989 418.098 254.696 412.018 255.501C412.904 259.363 407.846 265.05 401.706 265.311C393.485 265.661 395.522 262.741 397.162 253.694C397.958 249.304 404.584 212.45 404.584 212.45Z" fill="#263238"/>
<path d="M378.477 276.961C371.334 275.811 374.704 271.323 379.796 266.122L391.085 262.953L400.279 262C400.224 265.135 402.112 265.802 403.917 266.488C399.052 271.587 387.005 278.334 378.477 276.961Z" fill="#C8856A"/>
<path d="M381.831 265.549C378.822 272.455 373.179 272.235 370.995 271.819C370.102 276.149 366.464 278.273 362.691 279.849C363.536 284.133 360.423 286.944 357.331 289.244C358.365 291.061 358.664 292.274 358.088 294.664C357.512 297.054 353.812 301.234 354.515 304.064C350.3 299.587 350.318 293.503 353.931 288.713C353.231 284.52 352.734 280.333 356.632 277.694C355.648 272.302 358.228 268.33 363.679 267.417C363.8 263.265 366.511 260.809 371.081 260.088C370.091 252.864 377.469 249.998 382.052 249.855C381.992 252.995 382.466 259.725 382.33 262.863L381.831 265.549Z" fill="#263238"/>
<path d="M374.387 207.268C383.445 202.959 398.144 204.822 400.336 211.234C404.269 210.62 407.382 212.979 409.907 217.935C412.491 223.008 413.795 230.716 410.505 238.865C406.993 247.567 402.659 252.015 400.404 254.181L400.145 243.527C399.191 243.452 398.286 243.287 397.487 243.011C392.768 241.38 377.242 234.78 373.611 228.448C373.611 228.448 366.481 232.274 366.469 232.262C358.962 225.248 361.996 213.162 374.387 207.268Z" fill="#37474F"/>
<path d="M367.668 223.513C367.194 225.283 365.658 229.173 365.917 241.287C366.164 252.843 369.631 256.539 372.27 258.061C374.27 259.215 378.57 259.652 381.847 259.34L381.821 269.185C381.821 269.185 381.137 270.913 388.23 271.494C398.993 272.377 400.202 266.73 400.202 266.73L400.483 249.225C400.483 249.225 403.368 251.078 406.696 248.287C408.675 246.627 410.336 241.63 407.853 238.985C405.37 236.34 402.678 237.07 400.48 240.804C399.665 242.188 397.339 241.904 396.918 240.088C395.9 235.7 397.29 231.147 391.265 228.567C387.751 227.062 383.41 225.007 379.245 219.004C375.286 222.131 370.009 223.864 367.668 223.513Z" fill="#C8856A"/>
<path d="M386.404 236.482C386.404 237.498 385.402 238.5 384.387 238.5C383.371 238.5 382.548 237.676 382.548 236.661C382.548 235.645 383.372 234.822 384.387 234.822C385.403 234.821 386.404 235.466 386.404 236.482Z" fill="#263238"/>
<path d="M372.773 235.924C372.773 236.94 371.949 237.763 370.934 237.763C369.918 237.763 368.869 236.714 368.869 235.698C368.869 234.682 369.918 234.084 370.934 234.084C371.95 234.085 372.773 234.908 372.773 235.924Z" fill="#263238"/>
<path d="M383.369 247.562L377.761 248.999C378.127 250.601 379.679 251.578 381.227 251.182C382.777 250.785 383.736 249.166 383.369 247.562Z" fill="#AF6152"/>
<path d="M382.976 248.701C381.42 248.512 380.008 249.609 379.795 251.156C380.249 251.282 380.736 251.308 381.228 251.183C382.373 250.889 383.192 249.926 383.395 248.796C383.258 248.757 383.121 248.718 382.976 248.701Z" fill="#FFA8A7"/>
<path d="M368.176 232.591L371.979 231.278C371.654 230.206 370.538 229.63 369.488 229.993C368.438 230.356 367.85 231.519 368.176 232.591Z" fill="#263238"/>
<path d="M384.37 231.308L387.741 233.504C388.388 232.589 388.157 231.355 387.225 230.749C386.295 230.143 385.016 230.393 384.37 231.308Z" fill="#263238"/>
<path d="M378.822 233.656L377.568 245.593L371.335 243.5C373.293 240.163 375.765 235.964 378.822 233.656Z" fill="#AF6152"/>
<path d="M381.847 259.338C386.418 258.492 394.962 256.416 396.454 249.855C396.454 249.855 396.846 253.363 393.232 256.911C389.451 260.622 381.848 261.998 381.848 261.998V259.338H381.847Z" fill="#AF6152"/>
<path d="M388.739 189.467L392 183.335L389.376 175.76V171.123L397.406 175.76V180.397L393.954 186.377C393.895 186.478 393.812 186.544 393.72 186.585L393.722 186.588L388.739 189.467Z" fill="#BA68C8"/>
<path opacity="0.2" d="M388.739 189.467L392 183.335L389.376 175.76V171.123L397.406 175.76V180.397L393.954 186.377C393.895 186.478 393.812 186.544 393.72 186.585L393.722 186.588L388.739 189.467Z" fill="black"/>
<path d="M370.761 125.624C370.761 124.089 371.839 122.222 373.169 121.454L375.13 120.322C376.459 119.554 378.615 119.554 379.945 120.322L410.01 137.711C411.34 138.479 412.418 140.346 412.418 141.881V184.266C412.418 185.802 411.34 187.669 410.01 188.436L408.05 189.568C406.72 190.336 404.564 190.336 403.234 189.568L392.365 183.316L388.92 189.284C388.7 189.666 388.133 189.611 387.989 189.195L384.347 178.683L373.169 172.178C371.839 171.411 370.762 169.544 370.762 168.008L370.761 125.624Z" fill="#BA68C8"/>
<path opacity="0.2" d="M412.417 184.266C412.417 185.802 411.339 187.669 410.009 188.436L408.049 189.568C406.847 190.262 404.977 190.322 403.645 189.762C404.778 190.191 405.641 189.551 405.641 188.178V145.793C405.641 145.025 405.371 144.175 404.936 143.42L411.712 139.508C412.148 140.262 412.417 141.113 412.417 141.881V184.266Z" fill="black"/>
<path opacity="0.3" d="M370.84 124.94C371.121 123.918 372.053 123.592 373.165 124.232L403.235 141.625C403.898 142.007 404.504 142.658 404.931 143.422L411.704 139.513C411.266 138.749 410.67 138.098 410.008 137.716L379.949 120.323C378.613 119.559 376.456 119.559 375.13 120.323L373.164 121.458C372.03 122.11 371.076 123.57 370.84 124.94Z" fill="white"/>
<path d="M396.834 160.774L390.667 164.812V142.878L386.661 140.561V163.016L381.389 154.456L378.56 156.594L388.061 171.445L398.769 164.427L396.834 160.774Z" fill="#FAFAFA"/>
</svg>
