<svg width="512" height="512" viewBox="0 0 512 512" fill="none" xmlns="http://www.w3.org/2000/svg">
<path d="M466.594 17L428.277 446.25L256.04 494L84.2766 446.318L46 17H466.594Z" fill="#004CE8"/>
<path d="M395.473 418.917L428.218 52.1035H256.297V457.503L395.473 418.917Z" fill="#0065F4"/>
<path d="M133.748 211.33L138.467 263.984H256.297L278.946 237.657L256.297 211.33H133.748ZM256.297 104.757H124.266L129.052 157.412H256.297L278.946 131.084L256.297 104.757ZM256.297 402.861L278.946 374.939L256.297 348.079L256.066 348.14L197.425 332.306L193.676 290.312H140.82L148.197 372.986L256.055 402.928L256.297 402.861Z" fill="#EBEBEB"/>
<path d="M320.955 263.984L314.843 332.272L256.117 348.123V402.903L364.061 372.986L364.853 364.09L377.226 225.47L378.511 211.33L388.016 104.757H256.117V157.412H330.312L325.521 211.33H256.117V263.984H320.955Z" fill="white"/>
</svg>
