<svg width="512" height="512" viewBox="0 0 512 512" fill="none" xmlns="http://www.w3.org/2000/svg">
<g clip-path="url(#clip0_306_582)">
<path d="M474.71 97.9928H411.739L426.931 41.3058C428.077 37.1446 428.389 32.7977 427.849 28.5154C427.308 24.2332 425.926 20.1001 423.781 16.3543C421.637 12.6085 418.772 9.32394 415.353 6.68971C411.934 4.05549 408.027 2.12366 403.858 1.00546C399.69 -0.112731 395.341 -0.395201 391.062 0.17432C386.784 0.74384 382.66 2.1541 378.929 4.32389C375.198 6.49368 371.932 9.38015 369.321 12.8171C366.71 16.254 364.805 20.1735 363.715 24.3498L343.979 97.9928H37.289C30.1041 98.001 23.2159 100.859 18.1354 105.939C13.055 111.02 10.1972 117.908 10.189 125.093V405.84C10.1969 413.025 13.0546 419.913 18.1351 424.994C23.2157 430.074 30.104 432.932 37.289 432.94H204.054V469.223H196.712C191.042 469.233 185.608 471.492 181.601 475.504C177.594 479.516 175.342 484.953 175.339 490.623V505C175.339 506.856 176.076 508.637 177.389 509.95C178.702 511.262 180.482 512 182.339 512H329.659C331.515 512 333.296 511.262 334.609 509.95C335.921 508.637 336.659 506.856 336.659 505V490.626C336.656 484.956 334.404 479.519 330.397 475.507C326.39 471.495 320.956 469.236 315.286 469.226H307.944V432.94H474.71C481.895 432.932 488.783 430.074 493.863 424.993C498.944 419.913 501.802 413.025 501.81 405.84V125.093C501.802 117.908 498.944 111.02 493.863 105.939C488.783 100.859 481.895 98.001 474.71 97.9928ZM356.031 107.121C356.076 106.979 356.111 106.833 356.147 106.687L377.239 27.9868C377.869 25.6053 378.963 23.3716 380.458 21.4137C381.953 19.4558 383.82 17.8122 385.952 16.5772C388.083 15.3421 390.438 14.5399 392.88 14.2164C395.322 13.893 397.804 14.0547 400.184 14.6923C402.563 15.3299 404.793 16.4308 406.747 17.932C408.7 19.4331 410.338 21.305 411.566 23.4404C412.795 25.5757 413.59 27.9325 413.905 30.3757C414.221 32.8188 414.052 35.3003 413.407 37.6778L354.952 255.8L318.788 246.1L356.031 107.121ZM347.144 268.2L325.8 292.269L319.345 260.74L347.144 268.2ZM315.287 483.227C317.245 483.233 319.121 484.015 320.502 485.403C321.884 486.79 322.659 488.669 322.657 490.627V498H189.342V490.63C189.34 488.672 190.115 486.793 191.497 485.406C192.878 484.018 194.754 483.236 196.712 483.23L315.287 483.227ZM218.057 469.227V432.94H293.942V469.223L218.057 469.227ZM487.806 405.84C487.803 409.313 486.422 412.644 483.966 415.1C481.51 417.556 478.179 418.937 474.706 418.94H37.289C33.8154 418.937 30.4849 417.556 28.0288 415.1C25.5726 412.644 24.1916 409.313 24.189 405.84V377.24H487.806V405.84ZM487.806 363.234H24.193V125.093C24.1956 121.619 25.5766 118.289 28.0328 115.833C30.4889 113.377 33.8194 111.995 37.293 111.993H340.227L303.45 249.226C303.168 250.276 303.133 251.377 303.35 252.443L314.891 308.8C315.151 310.074 315.761 311.251 316.653 312.199C317.544 313.146 318.682 313.826 319.939 314.162C321.195 314.499 322.521 314.479 323.766 314.104C325.012 313.729 326.129 313.015 326.991 312.041L365.146 269.01C365.867 268.197 366.388 267.227 366.669 266.177L407.986 112H474.71C478.183 112.002 481.514 113.384 483.97 115.84C486.426 118.296 487.807 121.626 487.81 125.1L487.806 363.234ZM239.148 398.1C239.148 396.243 239.885 394.463 241.198 393.15C242.511 391.837 244.291 391.1 246.148 391.1H265.848C267.704 391.1 269.485 391.837 270.798 393.15C272.11 394.463 272.848 396.243 272.848 398.1C272.848 399.956 272.11 401.737 270.798 403.05C269.485 404.362 267.704 405.1 265.848 405.1H246.148C244.291 405.1 242.511 404.362 241.198 403.05C239.885 401.737 239.148 399.956 239.148 398.1ZM237.815 214.156H201.705C201.727 213.468 201.758 212.781 201.758 212.088C201.762 199.791 198.193 187.758 191.486 177.452C184.778 167.146 175.22 159.01 163.974 154.036C152.729 149.061 140.28 147.461 128.142 149.43C116.004 151.399 104.699 156.852 95.603 165.127C86.5068 173.402 80.0109 184.141 76.9051 196.04C73.7994 207.938 74.2177 220.482 78.1092 232.147C82.0006 243.812 89.1975 254.094 98.8247 261.745C108.452 269.395 120.095 274.084 132.337 275.24V319.607C132.337 321.463 133.074 323.244 134.387 324.557C135.7 325.869 137.48 326.607 139.337 326.607H237.814C239.67 326.607 241.451 325.869 242.764 324.557C244.076 323.244 244.814 321.463 244.814 319.607V221.16C244.814 220.24 244.633 219.33 244.282 218.481C243.93 217.631 243.415 216.859 242.765 216.209C242.115 215.559 241.343 215.043 240.494 214.691C239.645 214.339 238.734 214.158 237.815 214.158V214.156ZM132.337 221.156V261.151C122.881 260.001 113.959 256.143 106.643 250.043C99.3267 243.943 93.9284 235.86 91.097 226.765C88.2655 217.67 88.1213 207.95 90.6819 198.775C93.2424 189.6 98.3986 181.36 105.531 175.046C112.662 168.731 121.466 164.611 130.884 163.181C140.302 161.751 149.932 163.071 158.617 166.984C167.302 170.896 174.672 177.234 179.841 185.235C185.01 193.236 187.758 202.56 187.754 212.086C187.754 212.779 187.73 213.467 187.702 214.154H139.338C138.418 214.154 137.507 214.335 136.657 214.687C135.808 215.039 135.036 215.555 134.385 216.206C133.735 216.857 133.22 217.629 132.868 218.479C132.517 219.329 132.336 220.24 132.337 221.16V221.156ZM185.056 228.156C182.139 236.584 177.003 244.069 170.189 249.824C163.376 255.578 155.137 259.389 146.34 260.856V228.156H185.056ZM230.813 312.601H146.34V275C158.881 273.378 170.654 268.057 180.156 259.714C189.658 251.371 196.459 240.385 199.689 228.16H230.813V312.601Z" fill="black"/>
</g>
<defs>
<clipPath id="clip0_306_582">
<rect width="512" height="512" fill="white"/>
</clipPath>
</defs>
</svg>
