<svg width="512" height="512" viewBox="0 0 512 512" fill="none" xmlns="http://www.w3.org/2000/svg">
<path d="M478.163 380.734H33.8376C18.3183 380.734 5.68896 368.105 5.68896 352.586V57.9582C5.68896 42.4389 18.3183 29.8096 33.8376 29.8096H478.163C493.682 29.8096 506.311 42.4389 506.311 57.9582V352.586C506.311 368.105 493.682 380.734 478.163 380.734ZM33.8376 41.1873C24.5875 41.1873 17.0667 48.7081 17.0667 57.9582V352.586C17.0667 361.836 24.5875 369.357 33.8376 369.357H478.163C487.413 369.357 494.933 361.836 494.933 352.586V57.9582C494.933 48.7081 487.413 41.1873 478.163 41.1873H33.8376Z" fill="#03B5AA"/>
<path d="M500.622 314.311H11.3779C8.23759 314.311 5.68896 311.762 5.68896 308.622C5.68896 305.482 8.23759 302.933 11.3779 302.933H500.622C503.763 302.933 506.311 305.482 506.311 308.622C506.311 311.762 503.763 314.311 500.622 314.311ZM219.944 431.388C216.804 431.388 214.255 428.84 214.255 425.699V375.034C214.255 371.894 216.804 369.345 219.944 369.345C223.084 369.345 225.633 371.894 225.633 375.034V425.699C225.633 428.84 223.084 431.388 219.944 431.388ZM292.056 431.388C288.916 431.388 286.367 428.84 286.367 425.699V375.034C286.367 371.894 288.916 369.345 292.056 369.345C295.197 369.345 297.745 371.894 297.745 375.034V425.699C297.745 428.84 295.197 431.388 292.056 431.388Z" fill="#03B5AA"/>
<path d="M382.669 482.19H129.331C126.191 482.19 123.642 479.641 123.642 476.501C123.642 445.36 148.981 420.022 180.122 420.022H331.867C363.008 420.022 388.346 445.36 388.346 476.501C388.358 479.641 385.809 482.19 382.669 482.19ZM135.384 470.812H376.627C373.817 448.614 354.827 431.4 331.878 431.4H180.122C157.184 431.388 138.183 448.614 135.384 470.812ZM329.193 248.615H304.833C301.693 248.615 299.144 246.067 299.144 242.927C299.144 239.786 301.693 237.238 304.833 237.238H329.193C332.333 237.238 334.882 239.786 334.882 242.927C334.882 246.067 332.333 248.615 329.193 248.615ZM446.555 224.256H397.835C394.695 224.256 392.146 221.707 392.146 218.567C392.146 215.427 394.695 212.878 397.835 212.878H446.555C449.695 212.878 452.244 215.427 452.244 218.567C452.244 221.707 449.695 224.256 446.555 224.256ZM117.578 217.964C116.322 217.965 115.101 217.549 114.108 216.78L61.9633 176.56C60.5638 175.479 59.7446 173.818 59.7446 172.054C59.7446 170.291 60.5638 168.63 61.9633 167.549L114.108 127.328C114.699 126.872 115.374 126.536 116.094 126.341C116.815 126.145 117.567 126.093 118.308 126.189C119.048 126.284 119.763 126.524 120.411 126.895C121.059 127.266 121.627 127.761 122.083 128.352C122.54 128.943 122.876 129.618 123.071 130.339C123.267 131.06 123.318 131.812 123.223 132.552C123.128 133.293 122.888 134.008 122.517 134.655C122.146 135.303 121.65 135.872 121.059 136.328L74.7633 172.043L121.059 207.758C121.651 208.214 122.147 208.782 122.519 209.43C122.891 210.077 123.132 210.792 123.227 211.533C123.322 212.274 123.27 213.027 123.074 213.747C122.878 214.468 122.541 215.143 122.083 215.734C121.556 216.429 120.875 216.992 120.093 217.379C119.311 217.766 118.45 217.966 117.578 217.964ZM218.817 217.964C217.111 217.964 215.427 217.201 214.312 215.745C213.855 215.154 213.52 214.479 213.324 213.758C213.128 213.038 213.077 212.286 213.172 211.545C213.267 210.804 213.507 210.09 213.878 209.442C214.249 208.794 214.745 208.226 215.336 207.769L261.632 172.054L215.336 136.34C214.744 135.884 214.248 135.316 213.876 134.668C213.504 134.02 213.264 133.305 213.168 132.564C213.073 131.823 213.125 131.071 213.321 130.35C213.518 129.629 213.854 128.954 214.312 128.364C214.768 127.772 215.336 127.276 215.983 126.904C216.631 126.532 217.346 126.292 218.087 126.196C218.828 126.101 219.58 126.153 220.301 126.349C221.022 126.546 221.697 126.882 222.288 127.34L274.432 167.56C275.831 168.641 276.651 170.302 276.651 172.066C276.651 173.829 275.831 175.491 274.432 176.571L222.288 216.792C221.252 217.588 220.035 217.964 218.817 217.964ZM149.219 248.615C148.73 248.615 148.241 248.547 147.74 248.422C146.283 248.032 145.041 247.08 144.285 245.774C143.53 244.468 143.324 242.916 143.713 241.459L181.692 99.7373C182.499 96.6994 185.617 94.9017 188.655 95.7095C191.693 96.5174 193.49 99.6462 192.683 102.673L154.704 244.394C154.032 246.943 151.723 248.615 149.219 248.615ZM353.542 155.602H304.822C301.682 155.602 299.133 153.054 299.133 149.913V101.205C299.133 98.0647 301.682 95.5161 304.822 95.5161H353.542C356.682 95.5161 359.231 98.0647 359.231 101.205V149.925C359.231 153.054 356.693 155.602 353.542 155.602ZM310.522 144.224H347.864V106.894H310.522V144.224ZM446.555 199.896H304.833C301.693 199.896 299.144 197.347 299.144 194.207C299.144 191.067 301.693 188.518 304.833 188.518H446.555C449.695 188.518 452.244 191.067 452.244 194.207C452.244 197.347 449.695 199.896 446.555 199.896ZM369.277 224.256H304.833C301.693 224.256 299.144 221.707 299.144 218.567C299.144 215.427 301.693 212.878 304.833 212.878H369.277C372.417 212.878 374.966 215.427 374.966 218.567C374.966 221.707 372.417 224.256 369.277 224.256ZM446.555 155.602H397.835C394.695 155.602 392.146 153.054 392.146 149.913V101.205C392.146 98.0647 394.695 95.5161 397.835 95.5161H446.555C449.695 95.5161 452.244 98.0647 452.244 101.205V149.925C452.241 151.431 451.64 152.876 450.574 153.94C449.507 155.004 448.062 155.602 446.555 155.602ZM403.524 144.224H440.866V106.894H403.524V144.224ZM446.555 248.615H397.835C394.695 248.615 392.146 246.067 392.146 242.927C392.146 239.786 394.695 237.238 397.835 237.238H446.555C449.695 237.238 452.244 239.786 452.244 242.927C452.244 246.067 449.695 248.615 446.555 248.615ZM380.473 248.615H348.251C345.111 248.615 342.562 246.067 342.562 242.927C342.562 239.786 345.111 237.238 348.251 237.238H380.473C383.613 237.238 386.162 239.786 386.162 242.927C386.162 246.067 383.613 248.615 380.473 248.615Z" fill="#03B5AA"/>
</svg>
