<svg width="512" height="512" viewBox="0 0 512 512" fill="none" xmlns="http://www.w3.org/2000/svg">
<path d="M416 293.28V362.88C416 388.16 401.12 410.72 378.08 421.28C350.08 434.08 307.68 448 256 448C204.32 448 161.92 434.08 133.76 421.28C110.88 410.72 96 388.16 96 362.88V293.28L209.76 345.28C224.32 352 240 355.36 256 355.36C272 355.36 287.68 352 302.24 345.28L416 293.28ZM480 264V368C480 376.8 472.8 384 464 384C455.2 384 448 376.8 448 368V278.72L480 264Z" fill=""/>
<path d="M223.008 316.224C233.364 320.954 244.615 323.402 256 323.402C267.385 323.402 278.636 320.954 288.992 316.224L493.328 222.816C504.848 217.552 512 206.4 512 193.712C512 181.024 504.848 169.856 493.328 164.592L288.992 71.1995C278.641 66.4626 267.391 64.0107 256.008 64.0107C244.625 64.0107 233.375 66.4626 223.024 71.1995L18.672 164.576C7.152 169.856 0 181.008 0 193.696C0 206.384 7.152 217.536 18.672 222.816L223.008 316.224Z" fill=""/>
</svg>
