<svg width="512" height="512" viewBox="0 0 512 512" fill="none" xmlns="http://www.w3.org/2000/svg">
<g clip-path="url(#clip0_238_882)">
<path d="M256 0C115.39 0 0 115.39 0 256C0 375.988 84.195 484.984 196 512V427.305C184.922 429.73 174.727 429.801 163.45 426.477C148.32 422.012 136.027 411.934 126.902 396.567C121.086 386.754 110.777 376.113 100.023 376.895L97.387 347.012C120.641 345.02 140.757 361.18 152.699 381.242C158.004 390.164 164.109 395.395 171.945 397.707C179.52 399.937 187.652 398.867 197.129 395.52C199.508 376.547 208.199 369.445 214.766 359.445V359.43C148.086 349.484 121.512 314.11 110.965 286.188C96.988 249.113 104.488 202.797 129.203 173.528C129.683 172.957 130.551 171.465 130.215 170.422C118.883 136.192 132.691 107.875 133.199 104.872C146.277 108.738 148.402 100.98 190.008 126.258L197.199 130.578C200.207 132.371 199.262 131.348 202.269 131.121C219.641 126.402 237.953 123.797 255.996 123.563C274.176 123.797 292.371 126.403 310.461 131.313L312.789 131.547C312.586 131.516 313.422 131.398 314.824 130.563C366.797 99.082 364.93 109.371 378.867 104.84C379.371 107.848 392.997 136.625 381.785 170.422C380.273 175.078 426.844 217.722 401.031 286.176C390.484 314.109 363.914 349.484 297.234 359.43V359.445C305.781 372.473 316.051 379.402 315.996 406.277V512C427.805 484.984 511.996 375.988 511.996 256C512 115.39 396.61 0 256 0Z" fill="white"/>
</g>
<defs>
<clipPath id="clip0_238_882">
<rect width="512" height="512" fill="white"/>
</clipPath>
</defs>
</svg>
