<svg width="512" height="512" viewBox="0 0 512 512" fill="none" xmlns="http://www.w3.org/2000/svg">
<path d="M30 0L61.8 448.102L256.2 512L450.598 448.102L482.398 0H30Z" fill="#FF7816"/>
<path d="M482.398 0L450.598 448.102L256.199 512V0H482.398Z" fill="#FF4B00"/>
<path d="M397.499 136H175.199L180.597 211H392.101L379.198 392.598L256.198 433.699L133.198 392.598L128.999 332H188.999L190.199 348.5L256.199 370.398L322.199 348.5L327.597 271H124.499L110.699 76H401.699L397.499 136Z" fill="#ECECF1"/>
<path d="M392.102 211L379.199 392.598L256.199 433.699V370.399L322.199 348.5L327.598 271H256.199V211H392.102ZM401.7 76L397.5 136H256.2V76H401.7Z" fill="#E2E2E7"/>
</svg>
