<svg width="512" height="512" viewBox="0 0 512 512" fill="none" xmlns="http://www.w3.org/2000/svg">
<g clip-path="url(#clip0_236_747)">
<path d="M0 0H512V512H0V0Z" fill="#FFDF00"/>
<path d="M343.935 400.002C354.248 416.841 367.666 429.218 391.397 429.218C411.332 429.218 424.067 419.254 424.067 405.487C424.067 388.989 410.983 383.146 389.04 373.548L377.012 368.387C342.293 353.596 319.229 335.066 319.229 295.894C319.229 259.81 346.723 232.341 389.69 232.341C420.28 232.341 442.272 242.987 458.119 270.863L420.654 294.919C412.405 280.128 403.506 274.301 389.69 274.301C375.598 274.301 366.666 283.241 366.666 294.919C366.666 309.353 375.606 315.196 396.248 324.136L408.276 329.288C449.155 346.818 472.235 364.689 472.235 404.869C472.235 448.186 438.207 471.917 392.509 471.917C347.827 471.917 318.96 450.624 304.835 422.716L343.935 400.002ZM173.975 404.171C181.533 417.581 188.409 428.918 204.939 428.918C220.746 428.918 230.718 422.733 230.718 398.686V235.089H278.83V399.335C278.83 449.153 249.622 471.828 206.987 471.828C168.465 471.828 146.157 451.892 134.811 427.881L173.975 404.171Z" fill="black"/>
</g>
<defs>
<clipPath id="clip0_236_747">
<rect width="512" height="512" fill="white"/>
</clipPath>
</defs>
</svg>
