<svg width="512" height="512" viewBox="0 0 512 512" fill="none" xmlns="http://www.w3.org/2000/svg">
<path d="M425.834 98.591C425.48 96.006 423.216 94.576 421.349 94.42C419.482 94.264 383.036 93.71 383.036 93.71C383.036 93.71 352.555 64.107 349.544 61.094C346.533 58.081 340.651 58.995 338.368 59.667L323.051 64.409C321.45 59.207 319.088 52.818 315.722 46.398C304.868 25.694 288.979 14.735 269.774 14.707H269.709C268.378 14.707 267.051 14.832 265.723 14.953C265.164 14.2703 264.586 13.6044 263.987 12.956C255.626 4.00698 244.889 -0.353023 232.038 0.0239772C207.23 0.734977 182.537 18.648 162.508 50.46C148.409 72.85 137.698 100.977 134.652 122.746C106.174 131.565 86.2493 137.736 85.8183 137.871C71.4433 142.382 70.9913 142.834 69.1063 156.377C67.6793 166.63 30.0703 457.488 30.0703 457.488L345.304 512L481.928 478.041C481.928 478.041 426.187 101.176 425.834 98.591ZM152.312 117.276C160.836 77.42 194.232 17.627 232.515 16.526C238.339 16.404 243.244 17.682 247.433 20.439C240.733 23.918 234.252 28.918 228.173 35.438C212.417 52.34 200.348 78.584 195.535 103.891L152.312 117.276ZM266.306 81.978L213.677 98.274C218.769 78.796 228.407 59.403 240.251 46.698C244.657 41.972 250.821 36.698 258.119 33.687C264.985 47.994 266.472 68.276 266.306 81.978ZM282.796 76.872C282.613 64.311 281.113 46.84 275.262 31.737C294.083 35.303 303.35 56.599 307.261 69.297L282.796 76.872Z" fill="#95BF47"/>
<path d="M421.349 94.42C419.482 94.264 383.036 93.71 383.036 93.71C383.036 93.71 352.555 64.107 349.544 61.094C348.421 59.97 346.898 59.395 345.312 59.147L345.32 511.997L481.928 478.041C481.928 478.041 426.188 101.176 425.835 98.591C425.481 96.006 423.216 94.576 421.349 94.42Z" fill="#5E8E3E"/>
<path d="M269.592 164.668L253.723 224.029C253.723 224.029 236.023 215.969 215.038 217.294C184.269 219.237 183.942 238.646 184.249 243.51C185.925 270.059 255.767 275.86 259.693 338.042C262.782 386.964 233.744 420.428 191.903 423.07C141.694 426.24 114.047 396.613 114.047 396.613L124.686 351.348C124.686 351.348 152.509 372.34 174.781 370.934C189.329 370.015 194.527 358.183 193.999 349.815C191.812 315.183 134.94 317.223 131.347 260.32C128.323 212.428 159.771 163.911 229.163 159.529C255.9 157.842 269.592 164.668 269.592 164.668Z" fill="white"/>
</svg>
