<svg width="512" height="512" viewBox="0 0 512 512" fill="none" xmlns="http://www.w3.org/2000/svg">
<path d="M217.875 4.73448C201.09 4.95432 184.043 15.6439 169.203 35.5939C153.523 56.7139 141.756 85.9926 136.156 118.313C126.316 121.433 117.921 124 111.281 126C101.601 128.96 97.836 130.157 96.156 130.797C80.316 135.757 77.8454 138.642 75.7654 153.922C74.4054 163.282 41.4379 418.153 40.0779 428.953C39.5179 433.193 42.3223 437.124 46.5623 437.844L313.765 487.844C314.245 487.924 314.723 488 315.203 488H316C316.56 488 317.205 487.924 317.765 487.844L462.719 456.484C466.879 455.604 469.593 451.676 468.953 447.516C468.473 444.076 418.562 106.556 417.922 101.516C417.842 100.636 417.601 99.8451 417.281 99.1251C415.441 95.0451 412.164 92.1607 407.844 90.6407C407.124 90.4007 406.237 90.3145 405.437 90.2345C403.677 90.1545 384.643 88.8057 371.203 87.7657C364.483 80.9657 347.601 64.2464 345.281 62.4064C342.161 59.2864 337.602 57.5189 333.922 58.7189C331.202 58.6389 328.964 59.1195 327.844 59.3595C326.404 59.7595 323.272 60.7139 314.312 63.5939C306.472 35.2739 291.925 17.997 273.125 14.797C265.045 13.437 256.873 14.8045 248.953 18.4845C242.073 11.3645 234.007 6.88135 225.047 5.28135C222.667 4.88135 220.273 4.70307 217.875 4.73448ZM217.5 20.797C219.135 20.7367 220.732 20.8451 222.312 21.1251C226.872 21.9251 231.203 24.1539 235.203 27.5939C218.083 42.0739 202.712 67.847 192.312 101.047L187.687 102.484C187.607 102.564 187.517 102.563 187.437 102.563L186 103.047L153.515 112.953C159.115 86.3132 169.12 62.4851 182 45.1251C193.41 29.8651 206.051 21.2192 217.5 20.797ZM267.625 30.2814C268.582 30.3039 269.544 30.4026 270.484 30.5626C282.644 32.6426 293.047 46.3126 299.047 68.3126L272.719 76.4064C270.399 58.7264 265.595 43.5239 258.875 31.8439C261.815 30.7639 264.752 30.2139 267.625 30.2814ZM245.125 40.4064C251.045 50.8064 255.283 64.8032 257.203 81.2032L211.359 95.2814C220.399 70.8814 232.565 51.4464 245.125 40.4064ZM334.64 74.797C334.88 74.877 335.119 74.8732 335.359 74.9532C338.799 78.1532 351.04 90.2432 362 101.203C363.36 102.563 365.127 103.356 367.047 103.516C380.407 104.476 396.006 105.678 402.406 106.078C406.566 134.878 442.08 375.284 452 442.484L316 471.844H315.203L56.8748 423.516C62.4748 380.236 90.3935 164.556 91.5935 156.156C91.9935 153.596 92.4766 149.767 92.7966 149.047C93.6766 148.327 98.0016 146.966 101.922 145.766C102.962 145.366 108.96 143.439 116 141.359C120.96 139.839 126.965 138.004 133.765 135.844C136.805 134.884 140.077 133.837 143.437 132.797L150.484 130.641L188 119.125L190.64 118.313C192.32 117.833 194.007 117.277 195.687 116.797L205.281 113.844L260.719 96.8751L273.922 92.797L317.922 79.2814C325.042 76.9614 329.843 75.447 331.203 75.047C331.283 75.047 331.357 75.0332 331.437 74.9532C332.157 74.7932 333.6 74.637 334.64 74.797ZM326.969 89.2345C322.609 89.0825 318.81 92.4359 318.594 96.8439C318.378 101.26 321.779 105.003 326.187 105.219L342.172 106C342.3 106.008 342.426 106.016 342.562 106.016C346.802 106.016 350.346 102.671 350.562 98.3907C350.778 93.9827 347.361 90.2317 342.953 90.0157L326.969 89.2345ZM325.078 128.25C320.694 128.034 316.911 131.443 316.703 135.859C316.495 140.267 319.881 144.018 324.297 144.234L340.281 145.016C340.409 145.024 340.551 145.031 340.687 145.031C344.927 145.031 348.448 141.686 348.656 137.406C348.864 132.998 345.478 129.247 341.062 129.031L325.078 128.25ZM323.187 167.266C318.763 167.114 315.028 170.459 314.812 174.875C314.604 179.283 318.006 183.034 322.422 183.25L338.406 184.031C338.534 184.039 338.661 184.047 338.797 184.047C343.029 184.047 346.573 180.71 346.781 176.422C346.989 172.014 343.588 168.263 339.172 168.047L323.187 167.266ZM228.906 168.031C159.41 168.031 127.75 215.673 127.75 259.953C127.75 292.409 146.084 307.229 160.812 319.125C172.116 328.253 178.515 333.869 178.515 343.141C178.515 343.541 178.387 352.891 167.875 352.891C153.995 352.891 135.367 339.558 129.359 334.422C127.311 332.678 124.49 332.053 121.906 332.813C119.306 333.557 117.268 335.557 116.484 338.125L104.344 377.844C103.576 380.364 104.117 383.093 105.781 385.141C106.805 386.397 131.415 416 180.031 416C223.215 416 253.375 383.156 253.375 336.156C253.375 298.516 227.95 279.958 209.39 266.406C200.078 259.598 191.265 253.171 191.265 247.875C191.265 241.587 194.941 234.094 212.437 234.094C228.717 234.094 242.825 241.405 242.953 241.469C245.041 242.573 247.503 242.716 249.687 241.844C251.871 240.98 253.568 239.193 254.312 236.969L271.594 185.172C272.778 181.62 271.302 177.732 268.062 175.828C266.646 175.004 253.594 167.663 228.906 168.031ZM229.015 183.906C240.583 183.778 248.958 185.58 254.078 187.188L241.89 223.734C234.866 221.15 224.221 218.172 212.437 218.172C177.077 218.172 175.281 242.907 175.281 247.859C175.281 261.195 187.265 269.932 199.937 279.188C217.497 292.004 237.39 306.541 237.39 336.141C237.39 374.405 214.351 400.109 180.047 400.109C147.391 400.109 127.848 384.671 120.984 378.063L128.469 353.625C138.093 360.161 153.498 368.781 167.89 368.781C185.186 368.781 194.515 355.565 194.515 343.125C194.515 325.837 182.514 316.142 170.906 306.766C157.562 295.982 143.765 284.826 143.765 259.938C143.765 222.09 170.087 183.906 229.015 183.906ZM321.281 206.297C316.945 206.081 313.122 209.49 312.906 213.906C312.69 218.314 316.099 222.065 320.515 222.281L336.5 223.063C336.628 223.071 336.754 223.063 336.89 223.063C341.13 223.063 344.667 219.733 344.875 215.453C345.091 211.045 341.681 207.294 337.265 207.078L321.281 206.297ZM319.39 245.313C315.014 245.161 311.223 248.514 311.015 252.922C310.807 257.33 314.209 261.081 318.625 261.297L334.609 262.078C334.737 262.086 334.864 262.078 335 262.078C339.24 262.078 342.784 258.749 342.984 254.469C343.192 250.061 339.791 246.31 335.375 246.094L319.39 245.313ZM317.5 284.328C313.092 284.112 309.333 287.522 309.125 291.938C308.917 296.346 312.318 300.097 316.734 300.313L332.719 301.094C332.847 301.102 332.973 301.094 333.109 301.094C337.349 301.094 340.886 297.772 341.094 293.484C341.302 289.076 337.9 285.325 333.484 285.109L317.5 284.328ZM315.609 323.359C311.161 323.207 307.45 326.537 307.234 330.953C307.026 335.361 310.428 339.128 314.844 339.344L330.828 340.109C330.956 340.117 331.083 340.125 331.219 340.125C335.459 340.125 338.995 336.78 339.203 332.5C339.411 328.092 336.01 324.341 331.594 324.125L315.609 323.359ZM313.734 362.375C309.374 362.159 305.575 365.553 305.359 369.969C305.143 374.377 308.545 378.143 312.953 378.359L328.937 379.125C329.065 379.133 329.192 379.141 329.328 379.141C333.568 379.141 337.096 375.811 337.312 371.531C337.528 367.115 334.127 363.357 329.719 363.141L313.734 362.375ZM311.828 401.391C307.444 401.239 303.661 404.576 303.453 408.984C303.245 413.392 306.646 417.159 311.062 417.375L327.047 418.141C327.175 418.149 327.301 418.156 327.437 418.156C331.669 418.156 335.214 414.819 335.422 410.531C335.63 406.123 332.228 402.372 327.812 402.156L311.828 401.391ZM309.937 440.406C305.513 440.19 301.778 443.6 301.562 448.016C301.354 452.424 304.756 456.175 309.172 456.391L325.156 457.156C325.284 457.164 325.411 457.172 325.547 457.172C329.787 457.172 333.331 453.835 333.531 449.547C333.739 445.139 330.338 441.388 325.922 441.172L309.937 440.406Z" fill="black"/>
</svg>
