<svg width="512" height="512" viewBox="0 0 512 512" fill="none" xmlns="http://www.w3.org/2000/svg">
<path d="M456.676 512H55.3243C24.77 512 0 487.23 0 456.676V55.3243C0 24.77 24.77 0 55.3243 0H456.675C487.23 0 511.999 24.77 511.999 55.3243V456.675C512 487.23 487.23 512 456.676 512Z" fill="black"/>
<path d="M456.676 512H55.3243C24.77 512 0 487.23 0 456.676V55.3243C0 24.77 24.77 0 55.3243 0H456.675C487.23 0 511.999 24.77 511.999 55.3243V456.675C512 487.23 487.23 512 456.676 512Z" fill="black"/>
<path d="M314.329 117.159L303.483 120.516C302.349 116.832 300.676 112.307 298.293 107.762C290.607 93.0999 279.355 85.339 265.755 85.319H265.709C264.766 85.319 263.826 85.4079 262.887 85.4928C262.487 85.0114 262.083 84.534 261.657 84.0785C255.736 77.7409 248.133 74.6535 239.032 74.9202C221.465 75.4236 203.978 88.1088 189.794 110.636C179.81 126.492 172.225 146.41 170.068 161.826C149.902 168.07 135.791 172.44 135.487 172.536C125.307 175.73 124.987 176.05 123.652 185.642C122.642 192.902 96.0088 398.874 96.0088 398.874L317.004 437.091V116.706C315.914 116.776 314.94 116.979 314.329 117.159ZM263.298 132.958C250.875 136.805 238.452 140.651 226.029 144.499C229.634 130.705 236.459 116.972 244.847 107.975C247.967 104.627 252.332 100.894 257.5 98.7613C262.362 108.892 263.416 123.256 263.298 132.958ZM239.369 86.6085C243.493 86.5226 246.967 87.4276 249.934 89.3793C245.189 91.8424 240.6 95.3843 236.295 100.001C225.137 111.97 216.591 130.554 213.183 148.476L182.574 157.954C188.609 129.731 212.259 87.3886 239.369 86.6085ZM205.189 247.348C206.376 266.149 255.835 270.257 258.615 314.291C260.802 348.936 240.239 372.634 210.609 374.505C175.053 376.749 155.474 355.769 155.474 355.769L163.008 323.714C163.008 323.714 182.711 338.58 198.483 337.584C208.785 336.934 212.467 328.554 212.092 322.628C210.544 298.104 170.269 299.548 167.725 259.252C165.583 225.337 187.853 190.979 236.994 187.876C255.928 186.68 265.623 191.515 265.623 191.515L254.385 233.552C254.385 233.552 241.851 227.844 226.991 228.782C205.203 230.16 204.972 243.904 205.189 247.348ZM274.975 129.343C274.846 120.448 273.784 108.075 269.64 97.3799C282.968 99.906 289.53 114.986 292.3 123.978C287.165 125.569 281.313 127.38 274.975 129.343ZM324.312 436.221L415.991 413.432C415.991 413.432 376.519 146.553 376.268 144.723C376.017 142.892 374.414 141.88 373.092 141.769C371.769 141.659 345.96 141.266 345.96 141.266C345.96 141.266 330.224 125.982 324.312 120.2V436.221Z" fill="white"/>
</svg>
