<svg width="512" height="512" viewBox="0 0 512 512" fill="none" xmlns="http://www.w3.org/2000/svg">
<g clip-path="url(#clip0_236_815)">
<path fill-rule="evenodd" clip-rule="evenodd" d="M256 512C397.389 512 512 397.389 512 256C512 114.611 397.389 0 256 0C114.611 0 0 114.611 0 256C0 397.389 114.611 512 256 512Z" fill="white"/>
<path fill-rule="evenodd" clip-rule="evenodd" d="M157.226 243.866L245.93 154.641C251.207 149.32 257.486 145.097 264.404 142.215C271.322 139.333 278.743 137.849 286.237 137.849C293.731 137.849 301.151 139.333 308.069 142.215C314.987 145.097 321.266 149.32 326.544 154.641C331.877 160.248 331.63 169.336 326.143 174.848C324.824 176.18 323.253 177.238 321.523 177.959C319.792 178.681 317.936 179.052 316.061 179.052C314.186 179.052 312.33 178.681 310.599 177.959C308.869 177.238 307.298 176.18 305.979 174.848L304.639 173.286C299.192 168.646 292.192 166.236 285.042 166.538C277.893 166.841 271.122 169.833 266.085 174.916L175.393 266.138C169.42 271.667 160.4 271.667 154.836 266.078C153.329 264.558 152.179 262.722 151.472 260.702C150.764 258.681 150.516 256.529 150.746 254.401C150.975 252.273 151.677 250.223 152.8 248.4C153.922 246.578 155.437 245.028 157.234 243.866H157.226ZM356.36 245.811C354.857 244.293 353.03 243.133 351.017 242.418C349.003 241.704 346.854 241.454 344.73 241.686C342.606 241.918 340.562 242.627 338.75 243.759C336.939 244.892 335.406 246.419 334.267 248.226L245.93 337.092C243.29 339.751 240.151 341.86 236.692 343.3C233.234 344.74 229.524 345.481 225.778 345.481C222.032 345.481 218.323 344.74 214.864 343.3C211.406 341.86 208.266 339.751 205.627 337.092L205.217 337.033C203.898 335.703 202.329 334.648 200.6 333.928C198.871 333.208 197.016 332.837 195.144 332.837C193.271 332.837 191.416 333.208 189.687 333.928C187.958 334.648 186.389 335.703 185.07 337.033C183.57 338.544 182.424 340.369 181.715 342.376C181.005 344.384 180.75 346.524 180.967 348.642C181.184 350.76 181.868 352.803 182.97 354.625C184.072 356.447 185.565 358.001 187.34 359.177C198.153 369.115 212.396 374.477 227.079 374.139C241.762 373.8 255.742 367.786 266.085 357.359L356.368 266.078C359.04 263.382 360.539 259.74 360.539 255.945C360.539 252.149 359.031 248.507 356.36 245.811ZM217.684 304.683C215.888 305.845 214.374 307.394 213.252 309.216C212.13 311.038 211.43 313.088 211.201 315.215C210.972 317.343 211.22 319.495 211.929 321.514C212.637 323.533 213.787 325.368 215.295 326.886C220.85 332.484 229.87 332.484 235.852 326.955L326.536 235.725C329.174 233.065 332.313 230.953 335.772 229.512C339.23 228.071 342.94 227.329 346.687 227.329C350.434 227.329 354.144 228.071 357.602 229.512C361.061 230.953 364.2 233.065 366.839 235.725C372.193 241.114 375.199 248.403 375.199 256C375.199 263.597 372.193 270.886 366.839 276.275L280.848 363.179C283.488 365.838 286.628 367.949 290.087 369.39C293.546 370.83 297.257 371.572 301.004 371.572C304.751 371.572 308.461 370.83 311.92 369.39C315.38 367.949 318.52 365.838 321.16 363.179L387.003 296.533C409.258 274.15 409.258 237.85 387.003 215.45C381.723 210.132 375.444 205.911 368.526 203.031C361.608 200.151 354.189 198.668 346.696 198.668C339.202 198.668 331.783 200.151 324.865 203.031C317.947 205.911 311.668 210.132 306.388 215.45L217.684 304.683ZM205.618 296.542L295.901 205.261C298.575 202.566 300.075 198.924 300.075 195.128C300.075 191.331 298.575 187.689 295.901 184.994C294.399 183.476 292.573 182.316 290.56 181.601C288.547 180.887 286.399 180.637 284.276 180.869C282.152 181.101 280.109 181.81 278.298 182.942C276.487 184.075 274.955 185.602 273.817 187.409L185.462 276.275C182.825 278.935 179.686 281.047 176.228 282.488C172.77 283.928 169.061 284.67 165.315 284.67C161.569 284.67 157.86 283.928 154.402 282.488C150.944 281.047 147.806 278.935 145.168 276.275C139.815 270.885 136.811 263.597 136.811 256C136.811 248.404 139.815 241.115 145.168 235.725L231.158 148.821C228.52 146.16 225.38 144.047 221.921 142.605C218.461 141.164 214.751 140.421 211.003 140.421C207.255 140.421 203.544 141.164 200.085 142.605C196.625 144.047 193.486 146.16 190.847 148.821L125.004 215.45C114.309 226.234 108.309 240.808 108.309 255.996C108.309 271.184 114.309 285.757 125.004 296.542C130.28 301.865 136.559 306.09 143.477 308.973C150.395 311.857 157.816 313.341 165.311 313.341C172.806 313.341 180.227 311.857 187.145 308.973C194.063 306.09 200.342 301.865 205.618 296.542Z" fill="black"/>
</g>
<defs>
<clipPath id="clip0_236_815">
<rect width="512" height="512" fill="white"/>
</clipPath>
</defs>
</svg>
