<svg width="512" height="512" viewBox="0 0 512 512" fill="none" xmlns="http://www.w3.org/2000/svg">
<path fill-rule="evenodd" clip-rule="evenodd" d="M256.505 104C188.632 104 146.223 137.78 129.248 205.34C154.701 171.56 184.393 158.895 218.325 167.335C237.684 172.149 251.528 186.133 266.838 201.614C291.793 226.825 320.677 256 383.752 256C451.615 256 494.034 222.22 511 154.67C485.556 188.45 455.864 201.115 421.933 192.665C402.563 187.851 388.719 173.867 373.409 158.396C348.455 133.165 319.58 104 256.505 104ZM129.248 256C61.3848 256 18.9657 289.78 2 357.34C27.4535 323.56 57.1459 310.895 91.0673 319.335C110.437 324.149 124.28 338.133 139.59 353.614C164.545 378.825 193.42 408 256.505 408C324.368 408 366.787 374.23 383.752 306.67C358.299 340.45 328.607 353.115 294.675 344.675C275.316 339.851 261.472 325.867 246.162 310.396C221.207 285.185 192.323 256 129.248 256Z" fill="#38BDF8"/>
</svg>
