<svg width="512" height="512" viewBox="0 0 512 512" fill="none" xmlns="http://www.w3.org/2000/svg">
<path d="M14.6236 180.171C14.6236 180.171 2.51564 171.407 17.0636 159.719L50.9356 129.343C50.9356 129.343 60.6396 119.107 70.8916 128.031L383.592 365.343V479.143C383.592 479.143 383.436 497.015 360.564 495.047L14.6236 180.171Z" fill="#2489CA"/>
<path d="M95.2363 253.516L14.6243 326.968C14.6243 326.968 6.34434 333.14 14.6243 344.188L52.0483 378.296C52.0483 378.296 60.9363 387.876 74.0803 376.984L159.516 312.032L95.2363 253.516Z" fill="#1070B3"/>
<path d="M236.736 254.124L384.548 140.984L383.592 27.7957C383.592 27.7957 377.28 3.09174 356.22 15.9597L159.516 195.404L236.736 254.124Z" fill="#0877B9"/>
<path d="M360.56 495.188C369.14 504 379.548 501.108 379.548 501.108L494.736 444.22C509.484 434.14 507.42 421.64 507.42 421.64V81.8597C507.42 66.9197 492.172 61.7637 492.172 61.7637L392.328 13.5197C370.516 0.00374603 356.22 15.9597 356.22 15.9597C356.22 15.9597 374.592 2.69175 383.592 27.7997V477.068C383.592 480.16 382.936 483.188 381.624 485.924C379 491.252 373.28 496.204 359.608 494.128L360.56 495.188Z" fill="#3C99D4"/>
</svg>
