<svg width="512" height="512" viewBox="0 0 512 512" fill="none" xmlns="http://www.w3.org/2000/svg">
<path d="M348.48 460.4C344 467.68 336.24 472 327.6 472H184.4C175.76 472 168 467.68 163.52 460.4C159.2 453.28 158.8 444.64 162.64 437.2L177.52 408H334.48L349.36 437.2C353.2 444.64 352.8 453.28 348.48 460.4Z" fill="black"/>
<path d="M248 80H72C63.1634 80 56 87.1634 56 96V176C56 184.837 63.1634 192 72 192H248C256.837 192 264 184.837 264 176V96C264 87.1634 256.837 80 248 80Z" fill="black"/>
<path d="M136 208H72C63.1634 208 56 215.163 56 224V288C56 296.837 63.1634 304 72 304H136C144.837 304 152 296.837 152 288V224C152 215.163 144.837 208 136 208Z" fill="black"/>
<path d="M248 208H184C175.163 208 168 215.163 168 224V288C168 296.837 175.163 304 184 304H248C256.837 304 264 296.837 264 288V224C264 215.163 256.837 208 248 208Z" fill="black"/>
<path d="M448 304H328C323.6 304 320 300.4 320 296C320 291.6 323.6 288 328 288H448C452.4 288 456 291.6 456 296C456 300.4 452.4 304 448 304ZM448 264H328C323.6 264 320 260.4 320 256C320 251.6 323.6 248 328 248H448C452.4 248 456 251.6 456 256C456 260.4 452.4 264 448 264ZM448 224H328C323.6 224 320 220.4 320 216C320 211.6 323.6 208 328 208H448C452.4 208 456 211.6 456 216C456 220.4 452.4 224 448 224Z" fill="black"/>
<path d="M456 40H56C33.92 40 16 57.92 16 80V352C16 374.08 33.92 392 56 392H456C478.08 392 496 374.08 496 352V80C496 57.92 478.08 40 456 40ZM32 328V80C32 66.8 42.8 56 56 56H280V328H32ZM480 328H296V56H456C469.2 56 480 66.8 480 80V328Z" fill="black"/>
<path d="M424 168C422.32 168 420.64 167.44 419.2 166.4C415.68 163.76 414.96 158.72 417.6 155.2L438 128L417.6 100.8C414.96 97.2802 415.68 92.2402 419.2 89.6002C422.72 86.9602 427.76 87.6802 430.4 91.2002L454.4 123.2C456.56 126.08 456.56 129.92 454.4 132.8L430.4 164.8C428.8 166.88 426.4 168 424 168ZM344 168C341.6 168 339.2 166.88 337.6 164.8L313.6 132.8C312.549 131.421 311.98 129.734 311.98 128C311.98 126.266 312.549 124.58 313.6 123.2L337.6 91.2002C340.24 87.6802 345.28 86.9602 348.8 89.6002C352.32 92.2402 353.04 97.2802 350.4 100.8L330 128L350.4 155.2C353.04 158.72 352.32 163.76 348.8 166.4C347.36 167.44 345.68 168 344 168ZM376 168C375.36 168 374.72 168 374.08 167.76C372.023 167.25 370.252 165.943 369.157 164.128C368.062 162.314 367.732 160.138 368.24 158.08L384.24 94.0802C384.814 92.0934 386.135 90.4061 387.926 89.3723C389.718 88.3385 391.839 88.0385 393.847 88.5352C395.855 89.0319 397.592 90.2868 398.694 92.0365C399.797 93.7863 400.179 95.895 399.76 97.9202L383.76 161.92C382.88 165.6 379.6 168 376 168Z" fill="black"/>
</svg>
