<svg width="512" height="512" viewBox="0 0 512 512" fill="none" xmlns="http://www.w3.org/2000/svg">
<g clip-path="url(#clip0_338_10744)">
<path d="M335.276 258.139C332.938 277.294 324.253 295.115 310.606 308.759C293.686 325.689 270.036 333.659 240.335 332.459C219.505 331.629 209.885 337.079 208.305 338.069C201.925 343.66 193.825 346.72 185.275 346.72C175.925 346.72 167.135 343.08 160.525 336.469C149.115 325.059 147.275 307.459 155.065 294.049L160.655 285.189C162.555 280.559 165.125 271.419 164.525 256.649C163.335 226.939 171.305 203.299 188.225 186.379C202.085 172.529 219.805 163.948 238.965 161.658C241.68 148.628 247.533 136.456 256.016 126.198H55.0344C32.9543 126.198 14.9842 144.158 14.9842 166.238V364.83H432.787V167.638L382.016 229.859C370.136 244.362 353.636 254.345 335.276 258.139ZM14.9842 407.63C14.9842 429.7 32.9543 447.66 55.0344 447.66H168.854V482H143.626C135.342 482 128.626 488.716 128.626 497C128.626 505.284 135.342 512.001 143.626 512.001H304.14C312.424 512.001 319.14 505.284 319.14 497C319.14 488.716 312.424 482 304.14 482H278.912V447.66H392.735C414.815 447.66 432.786 429.7 432.786 407.63V394.83H14.9832V407.63H14.9842Z" fill="black"/>
<path d="M182.101 307.836C182.098 307.838 182.095 307.841 182.093 307.844C182.091 307.845 182.09 307.846 182.089 307.848L182.085 307.852L182.08 307.857C182.079 307.86 182.078 307.86 182.075 307.862L182.074 307.863L182.069 307.868L182.068 307.869C182.067 307.871 182.065 307.872 182.064 307.874L182.063 307.875L182.058 307.88L182.057 307.881L182.052 307.886C181.137 308.832 180.631 310.1 180.645 311.415C180.658 312.731 181.19 313.988 182.124 314.915C183.059 315.841 184.321 316.362 185.636 316.364C186.952 316.366 188.216 315.849 189.153 314.926C189.459 314.636 204.606 300.633 241.92 302.133C262.914 302.979 279.01 297.95 289.767 287.194C311.81 265.151 311.81 229.285 289.767 207.242C279.089 196.563 264.892 190.682 249.79 190.682C234.689 190.682 220.492 196.562 209.814 207.242C199.058 217.998 194.031 234.096 194.875 255.088C196.383 292.605 182.222 307.711 182.108 307.829L182.101 307.836ZM333.976 227.299C343.845 224.344 352.607 218.507 359.136 210.539L378.302 187.05L310.026 118.774L286.636 137.878C278.648 144.392 272.794 153.148 269.826 163.018C285.286 166.648 299.466 174.518 310.976 186.028C322.756 197.808 330.426 212.159 333.976 227.299ZM488.007 9.00738C482.644 3.61711 475.464 0.41932 467.87 0.038406C460.276 -0.342508 452.812 2.12081 446.937 6.94737L333.378 99.7009L397.365 163.688L490.077 50.0686C494.9 44.1925 497.36 36.7301 496.977 29.138C496.594 21.5458 493.396 14.3687 488.007 9.00738Z" fill="black"/>
</g>
<defs>
<clipPath id="clip0_338_10744">
<rect width="512" height="512" fill="white"/>
</clipPath>
</defs>
</svg>
