<svg width="512" height="512" viewBox="0 0 512 512" fill="none" xmlns="http://www.w3.org/2000/svg">
<path d="M109.989 36.5713H128.274V54.857H109.989V36.5713ZM36.8457 36.5713H55.1314V54.857H36.8457V36.5713ZM183.131 36.5713H201.417V54.857H183.131V36.5713Z" fill="black"/>
<path d="M489.417 0H23.1316C17.0717 0.00725878 11.2621 2.41775 6.97713 6.70272C2.69216 10.9877 0.281673 16.7973 0.274414 22.8571V91.4286H512.274V22.8571C512.274 10.2583 502.016 0 489.417 0ZM73.4173 64C73.4173 66.4248 72.454 68.7504 70.7394 70.465C69.0248 72.1796 66.6993 73.1429 64.2744 73.1429H27.703C25.2782 73.1429 22.9526 72.1796 21.238 70.465C19.5234 68.7504 18.5601 66.4248 18.5601 64V27.4286C18.5601 25.0037 19.5234 22.6782 21.238 20.9636C22.9526 19.249 25.2782 18.2857 27.703 18.2857H64.2744C66.6993 18.2857 69.0248 19.249 70.7394 20.9636C72.454 22.6782 73.4173 25.0037 73.4173 27.4286V64ZM146.56 64C146.56 66.4248 145.597 68.7504 143.882 70.465C142.168 72.1796 139.842 73.1429 137.417 73.1429H100.846C98.421 73.1429 96.0955 72.1796 94.3809 70.465C92.6663 68.7504 91.703 66.4248 91.703 64V27.4286C91.703 25.0037 92.6663 22.6782 94.3809 20.9636C96.0955 19.249 98.421 18.2857 100.846 18.2857H137.417C139.842 18.2857 142.168 19.249 143.882 20.9636C145.597 22.6782 146.56 25.0037 146.56 27.4286V64ZM219.703 64C219.703 66.4248 218.74 68.7504 217.025 70.465C215.31 72.1796 212.985 73.1429 210.56 73.1429H173.989C171.564 73.1429 169.238 72.1796 167.524 70.465C165.809 68.7504 164.846 66.4248 164.846 64V27.4286C164.846 25.0037 165.809 22.6782 167.524 20.9636C169.238 19.249 171.564 18.2857 173.989 18.2857H210.56C212.985 18.2857 215.31 19.249 217.025 20.9636C218.74 22.6782 219.703 25.0037 219.703 27.4286V64ZM45.9887 347.429H466.56V466.286H45.9887V347.429Z" fill="black"/>
<path d="M0.274414 109.714V489.142C0.274414 501.75 10.5327 512 23.1316 512H489.417C502.016 512 512.274 501.741 512.274 489.142V109.714H0.274414ZM399.378 137.142H426.213C428.638 137.142 430.963 138.106 432.678 139.82C434.392 141.535 435.356 143.86 435.356 146.285C435.356 148.71 434.392 151.036 432.678 152.75C430.963 154.465 428.638 155.428 426.213 155.428H399.378C396.954 155.428 394.628 154.465 392.913 152.75C391.199 151.036 390.236 148.71 390.236 146.285C390.236 143.86 391.199 141.535 392.913 139.82C394.628 138.106 396.954 137.142 399.378 137.142ZM399.378 283.428H426.213C428.638 283.428 430.963 284.391 432.678 286.106C434.392 287.821 435.356 290.146 435.356 292.571C435.356 294.996 434.392 297.321 432.678 299.036C430.963 300.751 428.638 301.714 426.213 301.714H399.378C396.954 301.714 394.628 300.751 392.913 299.036C391.199 297.321 390.236 294.996 390.236 292.571C390.236 290.146 391.199 287.821 392.913 286.106C394.628 284.391 396.954 283.428 399.378 283.428ZM336.768 137.142H363.602C366.027 137.142 368.353 138.106 370.067 139.82C371.782 141.535 372.745 143.86 372.745 146.285C372.745 148.71 371.782 151.036 370.067 152.75C368.353 154.465 366.027 155.428 363.602 155.428H336.768C334.343 155.428 332.018 154.465 330.303 152.75C328.589 151.036 327.625 148.71 327.625 146.285C327.625 143.86 328.589 141.535 330.303 139.82C332.018 138.106 334.343 137.142 336.768 137.142ZM336.768 283.428H363.602C366.027 283.428 368.353 284.391 370.067 286.106C371.782 287.821 372.745 290.146 372.745 292.571C372.745 294.996 371.782 297.321 370.067 299.036C368.353 300.751 366.027 301.714 363.602 301.714H336.768C334.343 301.714 332.018 300.751 330.303 299.036C328.589 297.321 327.625 294.996 327.625 292.571C327.625 290.146 328.589 287.821 330.303 286.106C332.018 284.391 334.343 283.428 336.768 283.428ZM274.158 137.142H300.992C303.417 137.142 305.742 138.106 307.457 139.82C309.172 141.535 310.135 143.86 310.135 146.285C310.135 148.71 309.172 151.036 307.457 152.75C305.742 154.465 303.417 155.428 300.992 155.428H274.158C271.733 155.428 269.407 154.465 267.693 152.75C265.978 151.036 265.015 148.71 265.015 146.285C265.015 143.86 265.978 141.535 267.693 139.82C269.407 138.106 271.733 137.142 274.158 137.142ZM310.135 292.571C310.135 294.996 309.172 297.321 307.457 299.036C305.742 300.751 303.417 301.714 300.992 301.714H274.158C271.733 301.714 269.407 300.751 267.693 299.036C265.978 297.321 265.015 294.996 265.015 292.571C265.015 290.146 265.978 287.821 267.693 286.106C269.407 284.391 271.733 283.428 274.158 283.428H300.992C303.417 283.428 305.742 284.391 307.457 286.106C309.172 287.821 310.135 290.146 310.135 292.571ZM256.274 182.857C258.699 182.857 261.025 183.82 262.739 185.535C264.454 187.249 265.417 189.575 265.417 192V210.285H283.703C286.128 210.285 288.453 211.249 290.168 212.963C291.883 214.678 292.846 217.003 292.846 219.428C292.846 221.853 291.883 224.179 290.168 225.893C288.453 227.608 286.128 228.571 283.703 228.571H265.417V246.857C265.417 249.282 264.454 251.607 262.739 253.322C261.025 255.036 258.699 256 256.274 256C253.85 256 251.524 255.036 249.809 253.322C248.095 251.607 247.132 249.282 247.132 246.857V228.571H228.846C226.421 228.571 224.095 227.608 222.381 225.893C220.666 224.179 219.703 221.853 219.703 219.428C219.703 217.003 220.666 214.678 222.381 212.963C224.095 211.249 226.421 210.285 228.846 210.285H247.132V192C247.132 189.575 248.095 187.249 249.809 185.535C251.524 183.82 253.85 182.857 256.274 182.857ZM211.557 137.142H238.391C240.816 137.142 243.141 138.106 244.856 139.82C246.571 141.535 247.534 143.86 247.534 146.285C247.534 148.71 246.571 151.036 244.856 152.75C243.141 154.465 240.816 155.428 238.391 155.428H211.557C209.132 155.428 206.806 154.465 205.092 152.75C203.377 151.036 202.414 148.71 202.414 146.285C202.414 143.86 203.377 141.535 205.092 139.82C206.806 138.106 209.132 137.142 211.557 137.142ZM211.557 283.428H238.391C240.816 283.428 243.141 284.391 244.856 286.106C246.571 287.821 247.534 290.146 247.534 292.571C247.534 294.996 246.571 297.321 244.856 299.036C243.141 300.751 240.816 301.714 238.391 301.714H211.557C209.132 301.714 206.806 300.751 205.092 299.036C203.377 297.321 202.414 294.996 202.414 292.571C202.414 290.146 203.377 287.821 205.092 286.106C206.806 284.391 209.132 283.428 211.557 283.428ZM148.946 137.142H175.781C178.206 137.142 180.531 138.106 182.246 139.82C183.96 141.535 184.924 143.86 184.924 146.285C184.924 148.71 183.96 151.036 182.246 152.75C180.531 154.465 178.206 155.428 175.781 155.428H148.946C146.522 155.428 144.196 154.465 142.481 152.75C140.767 151.036 139.804 148.71 139.804 146.285C139.804 143.86 140.767 141.535 142.481 139.82C144.196 138.106 146.522 137.142 148.946 137.142ZM148.946 283.428H175.781C178.206 283.428 180.531 284.391 182.246 286.106C183.96 287.821 184.924 290.146 184.924 292.571C184.924 294.996 183.96 297.321 182.246 299.036C180.531 300.751 178.206 301.714 175.781 301.714H148.946C146.522 301.714 144.196 300.751 142.481 299.036C140.767 297.321 139.804 294.996 139.804 292.571C139.804 290.146 140.767 287.821 142.481 286.106C144.196 284.391 146.522 283.428 148.946 283.428ZM86.3361 137.142H113.17C115.595 137.142 117.921 138.106 119.635 139.82C121.35 141.535 122.313 143.86 122.313 146.285C122.313 148.71 121.35 151.036 119.635 152.75C117.921 154.465 115.595 155.428 113.17 155.428H86.3361C83.9113 155.428 81.5858 154.465 79.8712 152.75C78.1565 151.036 77.1933 148.71 77.1933 146.285C77.1933 143.86 78.1565 141.535 79.8712 139.82C81.5858 138.106 83.9113 137.142 86.3361 137.142ZM86.3361 283.428H113.17C115.595 283.428 117.921 284.391 119.635 286.106C121.35 287.821 122.313 290.146 122.313 292.571C122.313 294.996 121.35 297.321 119.635 299.036C117.921 300.751 115.595 301.714 113.17 301.714H86.3361C83.9113 301.714 81.5858 300.751 79.8712 299.036C78.1565 297.321 77.1933 294.996 77.1933 292.571C77.1933 290.146 78.1565 287.821 79.8712 286.106C81.5858 284.391 83.9113 283.428 86.3361 283.428ZM27.703 146.285C27.703 143.86 28.6662 141.535 30.3809 139.82C32.0955 138.106 34.421 137.142 36.8458 137.142H50.5601C52.985 137.142 55.3105 138.106 57.0251 139.82C58.7397 141.535 59.703 143.86 59.703 146.285C59.703 148.71 58.7397 151.036 57.0251 152.75C55.3105 154.465 52.985 155.428 50.5601 155.428H45.9887V160C45.9887 162.424 45.0254 164.75 43.3108 166.465C41.5962 168.179 39.2707 169.142 36.8458 169.142C34.421 169.142 32.0955 168.179 30.3809 166.465C28.6662 164.75 27.703 162.424 27.703 160V146.285ZM27.703 203.218C27.703 202.017 27.9395 200.828 28.3989 199.719C28.8584 198.61 29.5319 197.602 30.3809 196.753C31.2299 195.904 32.2378 195.23 33.347 194.771C34.4563 194.311 35.6452 194.075 36.8458 194.075C38.0465 194.075 39.2354 194.311 40.3447 194.771C41.4539 195.23 42.4618 195.904 43.3108 196.753C44.1598 197.602 44.8333 198.61 45.2927 199.719C45.7522 200.828 45.9887 202.017 45.9887 203.218V235.638C45.9887 238.063 45.0254 240.389 43.3108 242.103C41.5962 243.818 39.2707 244.781 36.8458 244.781C34.421 244.781 32.0955 243.818 30.3809 242.103C28.6662 240.389 27.703 238.063 27.703 235.638V203.218ZM27.703 278.857C27.703 277.656 27.9395 276.467 28.3989 275.358C28.8584 274.249 29.5319 273.241 30.3809 272.392C31.2299 271.543 32.2378 270.869 33.347 270.41C34.4563 269.95 35.6452 269.714 36.8458 269.714C38.0465 269.714 39.2354 269.95 40.3447 270.41C41.4539 270.869 42.4618 271.543 43.3108 272.392C44.1598 273.241 44.8333 274.249 45.2927 275.358C45.7522 276.467 45.9887 277.656 45.9887 278.857V283.428H50.5601C52.985 283.428 55.3105 284.391 57.0251 286.106C58.7397 287.821 59.703 290.146 59.703 292.571C59.703 294.996 58.7397 297.321 57.0251 299.036C55.3105 300.751 52.985 301.714 50.5601 301.714H36.8458C34.421 301.714 32.0955 300.751 30.3809 299.036C28.6662 297.321 27.703 294.996 27.703 292.571V278.857ZM484.846 475.428C484.846 477.853 483.883 480.179 482.168 481.893C480.453 483.608 478.128 484.571 475.703 484.571H36.8458C34.421 484.571 32.0955 483.608 30.3809 481.893C28.6662 480.179 27.703 477.853 27.703 475.428V338.285C27.703 335.86 28.6662 333.535 30.3809 331.82C32.0955 330.106 34.421 329.142 36.8458 329.142H475.703C478.128 329.142 480.453 330.106 482.168 331.82C483.883 333.535 484.846 335.86 484.846 338.285V475.428ZM484.846 292.571C484.846 294.996 483.883 297.321 482.168 299.036C480.453 300.751 478.128 301.714 475.703 301.714H461.989C459.564 301.714 457.238 300.751 455.524 299.036C453.809 297.321 452.846 294.996 452.846 292.571C452.846 290.146 453.809 287.821 455.524 286.106C457.238 284.391 459.564 283.428 461.989 283.428H466.56V278.857C466.56 276.432 467.523 274.106 469.238 272.392C470.953 270.677 473.278 269.714 475.703 269.714C478.128 269.714 480.453 270.677 482.168 272.392C483.883 274.106 484.846 276.432 484.846 278.857V292.571ZM484.846 235.638C484.846 238.063 483.883 240.389 482.168 242.103C480.453 243.818 478.128 244.781 475.703 244.781C473.278 244.781 470.953 243.818 469.238 242.103C467.523 240.389 466.56 238.063 466.56 235.638V203.218C466.56 200.793 467.523 198.468 469.238 196.753C470.953 195.038 473.278 194.075 475.703 194.075C478.128 194.075 480.453 195.038 482.168 196.753C483.883 198.468 484.846 200.793 484.846 203.218V235.638ZM484.846 160C484.846 162.424 483.883 164.75 482.168 166.465C480.453 168.179 478.128 169.142 475.703 169.142C473.278 169.142 470.953 168.179 469.238 166.465C467.523 164.75 466.56 162.424 466.56 160V155.428H461.989C459.564 155.428 457.238 154.465 455.524 152.75C453.809 151.036 452.846 148.71 452.846 146.285C452.846 143.86 453.809 141.535 455.524 139.82C457.238 138.106 459.564 137.142 461.989 137.142H475.703C478.128 137.142 480.453 138.106 482.168 139.82C483.883 141.535 484.846 143.86 484.846 146.285V160Z" fill="black"/>
</svg>
