<svg width="500" height="500" viewBox="0 0 500 500" fill="none" xmlns="http://www.w3.org/2000/svg">
<path d="M402.921 137.446C402.921 135.055 402.643 132.73 402.134 130.493L409.914 124.053L402.426 111.084L392.955 114.603C389.558 111.447 385.46 109.037 380.915 107.64L379.229 97.6914H364.254L362.569 107.64C358.024 109.037 353.926 111.447 350.529 114.603L341.058 111.084L333.57 124.053L341.35 130.493C340.841 132.73 340.563 135.055 340.563 137.446C340.563 139.837 340.841 142.162 341.35 144.399L333.57 150.839L341.058 163.808L350.529 160.289C353.926 163.445 358.024 165.855 362.569 167.252L364.254 177.201H379.229L380.915 167.252C385.46 165.855 389.558 163.445 392.956 160.289L402.427 163.808L409.915 150.839L402.134 144.399C402.643 142.161 402.921 139.837 402.921 137.446ZM371.741 151.686C363.876 151.686 357.5 145.31 357.5 137.446C357.5 129.581 363.876 123.206 371.741 123.206C379.605 123.206 385.981 129.582 385.981 137.446C385.981 145.31 379.606 151.686 371.741 151.686Z" fill="#223F89"/>
<path d="M454.772 113.124C453.609 111.962 452.343 110.966 451.008 110.126L451.659 103.211L441.711 100.545L438.816 106.863C435.629 106.98 432.463 107.801 429.573 109.331L423.916 105.313L416.633 112.596L420.651 118.253C419.12 121.143 418.299 124.309 418.182 127.496L411.865 130.391L414.531 140.339L421.446 139.688C422.286 141.024 423.281 142.29 424.444 143.452C425.607 144.615 426.873 145.611 428.209 146.451L427.557 153.366L437.506 156.032L440.401 149.714C443.588 149.597 446.753 148.776 449.643 147.246L455.301 151.264L462.584 143.981L458.565 138.323C460.096 135.433 460.918 132.268 461.034 129.08L467.352 126.185L464.686 116.237L457.77 116.888C456.931 115.553 455.936 114.287 454.772 113.124ZM446.534 135.214C442.71 139.038 436.509 139.038 432.684 135.214C428.859 131.389 428.859 125.188 432.684 121.363C436.509 117.538 442.71 117.538 446.534 121.363C450.359 125.188 450.359 131.388 446.534 135.214Z" fill="#223F89"/>
<path d="M425.704 164.29C424.451 164.03 423.203 163.921 421.976 163.944L419.452 159.166L411.842 161.673L412.652 167.018C410.629 168.453 408.919 170.336 407.691 172.565L402.297 172.362L400.663 180.206L405.689 182.174C405.926 184.707 406.741 187.117 408.023 189.24L405.147 193.817L411.122 199.153L415.344 195.781C416.46 196.292 417.647 196.692 418.9 196.952C420.153 197.213 421.4 197.321 422.627 197.298L425.152 202.076L432.761 199.569L431.951 194.224C433.975 192.789 435.685 190.906 436.912 188.678L442.307 188.88L443.941 181.036L438.914 179.068C438.678 176.535 437.863 174.125 436.58 172.002L439.457 167.426L433.481 162.089L429.26 165.461C428.143 164.95 426.956 164.551 425.704 164.29ZM429.761 182.174C428.902 186.294 424.868 188.937 420.749 188.079C416.629 187.221 413.986 183.186 414.844 179.067C415.702 174.948 419.736 172.304 423.856 173.162C427.975 174.02 430.619 178.056 429.761 182.174Z" fill="#223F89"/>
<path d="M104.504 174.489C104.504 172.098 104.226 169.773 103.716 167.536L111.496 161.096L104.008 148.127L94.5373 151.646C91.1404 148.49 87.0418 146.08 82.4971 144.683L80.8116 134.734H65.8365L64.151 144.683C59.6063 146.08 55.5077 148.49 52.1108 151.646L42.6402 148.127L35.1522 161.096L42.9323 167.536C42.4229 169.773 42.1449 172.098 42.1449 174.489C42.1449 176.88 42.4229 179.205 42.9323 181.442L35.1522 187.882L42.6402 200.851L52.1108 197.332C55.5077 200.488 59.6063 202.898 64.151 204.295L65.8365 214.244H80.8116L82.4971 204.295C87.0418 202.898 91.1404 200.488 94.5373 197.332L104.008 200.851L111.496 187.882L103.716 181.442C104.226 179.205 104.504 176.88 104.504 174.489ZM73.3236 188.729C65.4586 188.729 59.0835 182.353 59.0835 174.489C59.0835 166.624 65.4595 160.249 73.3236 160.249C81.1878 160.249 87.5637 166.625 87.5637 174.489C87.5637 182.353 81.1878 188.729 73.3236 188.729Z" fill="#223F89"/>
<path d="M138.528 125.158C138.528 123.513 138.336 121.914 137.986 120.376L143.337 115.947L138.187 107.027L131.673 109.448C129.337 107.277 126.518 105.619 123.392 104.658L122.233 97.8164H111.933L110.773 104.658C107.648 105.619 104.829 107.277 102.492 109.448L95.9781 107.027L90.8282 115.947L96.1795 120.376C95.8291 121.914 95.6377 123.513 95.6377 125.158C95.6377 126.803 95.8291 128.402 96.1795 129.94L90.8282 134.369L95.9781 143.288L102.492 140.868C104.829 143.039 107.648 144.697 110.773 145.657L111.933 152.499H122.233L123.392 145.657C126.518 144.697 129.337 143.039 131.673 140.868L138.187 143.288L143.337 134.369L137.986 129.94C138.336 128.402 138.528 126.803 138.528 125.158ZM117.083 134.952C111.673 134.952 107.288 130.567 107.288 125.158C107.288 119.749 111.673 115.364 117.083 115.364C122.491 115.364 126.876 119.749 126.876 125.158C126.876 130.567 122.491 134.952 117.083 134.952Z" fill="#223F89"/>
<path d="M47.6419 253.273H45.1448V257.435H47.6419V253.273Z" fill="#3664B7"/>
<path d="M39.7044 360.232H31.504V357.735H39.7044V360.232ZM24.1242 360.232H17.4104C16.7595 360.232 16.1235 360.117 15.5192 359.892L16.3932 357.552C16.717 357.674 17.0591 357.735 17.4104 357.735H24.1242V360.232ZM14.4971 352.497H12V344.296H14.4971V352.497ZM14.4971 336.916H12V328.716H14.4971V336.916ZM14.4971 321.337H12V313.137H14.4971V321.337ZM14.4971 305.757H12V297.556H14.4971V305.757ZM15.1447 291.177L13.2044 289.605C14.2382 288.33 15.7714 287.598 17.4104 287.598H21.9018V290.095H17.4104C16.5272 290.095 15.7015 290.49 15.1447 291.177ZM37.482 290.095H29.2824V287.598H37.482V290.095ZM45.4269 289.05L43.952 287.036C44.7103 286.481 45.1448 285.624 45.1448 284.685V280.395H47.6419V284.685C47.6419 286.403 46.8137 288.036 45.4269 289.05ZM47.6419 273.015H45.1448V264.814H47.6419V273.015Z" fill="#3664B7"/>
<path d="M51.2835 357.734H47.1216V360.231H51.2835V357.734Z" fill="#3664B7"/>
<path d="M63.7689 223.209H61.2719V227.371H63.7689V223.209Z" fill="#3664B7"/>
<path d="M63.7689 215.943H61.2719V207.871H63.7689V215.943ZM63.7689 200.606H61.2719V192.534H63.7689V200.606ZM63.7689 185.268H61.2719V177.196H63.7689V185.268ZM63.7689 169.931H61.2719V161.859H63.7689V169.931ZM63.7689 154.593H61.2719V146.521H63.7689V154.593ZM63.7689 139.256H61.2719V131.184H63.7689V139.256ZM65.8973 126.517L65.2247 124.111C65.6975 123.98 66.1878 123.912 66.6822 123.912H73.62V126.409H66.6822C66.4142 126.41 66.1512 126.445 65.8973 126.517ZM211.659 126.41H203.586V123.913H211.659V126.41ZM196.321 126.41H188.248V123.913H196.321V126.41ZM180.983 126.41H172.911V123.913H180.983V126.41ZM165.645 126.41H157.573V123.913H165.645V126.41ZM150.308 126.41H142.236V123.913H150.308V126.41ZM134.97 126.41H126.898V123.913H134.97V126.41ZM119.632 126.41H111.56V123.913H119.632V126.41ZM104.295 126.41H96.2228V123.913H104.295V126.41ZM88.9571 126.41H80.8849V123.913H88.9571V126.41Z" fill="#3664B7"/>
<path d="M223.097 123.914H218.935V126.411H223.097V123.914Z" fill="#3664B7"/>
<path d="M457.086 182.777H454.589V175.493H457.086V182.777ZM457.086 168.002H454.589V159.678H457.086V168.002ZM457.086 152.187H454.589V143.863H457.086V152.187ZM457.086 136.372H454.589V128.048H457.086V136.372ZM451.235 126.409H442.911V123.912H451.235V126.409ZM435.42 126.409H427.096V123.912H435.42V126.409ZM419.605 126.409H411.281V123.912H419.605V126.409ZM403.79 126.409H395.466V123.912H403.79V126.409ZM387.975 126.409H379.651V123.912H387.975V126.409ZM372.16 126.409H363.836V123.912H372.16V126.409ZM356.345 126.409H348.021V123.912H356.345V126.409ZM340.53 126.409H332.207V123.912H340.53V126.409ZM324.715 126.409H316.392V123.912H324.715V126.409ZM308.9 126.409H300.577V123.912H308.9V126.409Z" fill="#3664B7"/>
<path d="M445.189 257.481H442.692V249.157H445.189V257.481ZM445.189 241.666H442.692V233.342H445.189V241.666ZM457.086 233.207H450.049V230.71H454.589V229.423H457.086V233.207ZM457.086 221.933H454.589V213.609H457.086V221.933Z" fill="#3664B7"/>
<path d="M321.386 402.193H188.208V408.852H321.386V402.193Z" fill="white"/>
<path d="M295.634 402.193H213.958L225.171 363.904H284.422L295.634 402.193Z" fill="#C7D2D7"/>
<path d="M284.422 363.904H225.171L221.637 375.974H287.956L284.422 363.904Z" fill="#99A3B0"/>
<path d="M411.281 141.663C411.281 137.066 407.555 133.34 402.958 133.34H106.636C102.039 133.34 98.3121 137.066 98.3121 141.663V330.61H411.281V141.663Z" fill="#99A3B0"/>
<path d="M101.642 330.611V141.664C101.642 138.91 103.881 136.67 106.636 136.67H402.958C405.711 136.67 407.952 138.91 407.952 141.664V330.611H101.642Z" fill="#1D3660"/>
<path d="M98.3121 330.611V355.582C98.3121 360.179 102.039 363.906 106.636 363.906H402.958C407.555 363.906 411.281 360.179 411.281 355.582V330.611H98.3121Z" fill="white"/>
<path d="M259.894 352.359C262.711 349.542 262.711 344.974 259.894 342.157C257.076 339.339 252.509 339.339 249.691 342.157C246.874 344.974 246.874 349.542 249.691 352.359C252.509 355.176 257.076 355.176 259.894 352.359Z" fill="#C7D2D7"/>
<path d="M400.46 144.16H109.133V154.149H400.46V144.16Z" fill="#D1FFFF"/>
<path d="M400.46 154.148H109.133V323.118H400.46V154.148Z" fill="#65B2FF"/>
<path d="M117.711 149.155C117.711 150.516 116.609 151.618 115.249 151.618C113.889 151.618 112.787 150.516 112.787 149.155C112.787 147.795 113.89 146.693 115.249 146.693C116.609 146.693 117.711 147.795 117.711 149.155Z" fill="#CC6164"/>
<path d="M124.358 149.155C124.358 150.516 123.256 151.618 121.895 151.618C120.535 151.618 119.433 150.516 119.433 149.155C119.433 147.795 120.535 146.693 121.895 146.693C123.256 146.693 124.358 147.795 124.358 149.155Z" fill="#F4D071"/>
<path d="M131.004 149.155C131.004 150.516 129.902 151.618 128.542 151.618C127.182 151.618 126.08 150.516 126.08 149.155C126.08 147.795 127.182 146.693 128.542 146.693C129.902 146.693 131.004 147.795 131.004 149.155Z" fill="#B0B369"/>
<path d="M274.631 237.083H124.805C122.506 237.083 120.644 235.219 120.644 232.921V167.509C120.644 165.211 122.506 163.348 124.805 163.348H274.631C276.929 163.348 278.793 165.211 278.793 167.509V232.921C278.793 235.22 276.929 237.083 274.631 237.083Z" fill="#D1FFFF"/>
<path d="M162.721 218.744C160.117 218.744 157.699 218.341 155.467 217.535C153.267 216.698 151.345 215.52 149.702 214.001C148.09 212.482 146.834 210.684 145.935 208.608C145.037 206.531 144.587 204.237 144.587 201.726C144.587 199.215 145.037 196.921 145.935 194.844C146.834 192.768 148.09 190.97 149.702 189.451C151.345 187.932 153.267 186.769 155.467 185.963C157.699 185.126 160.117 184.708 162.721 184.708C165.914 184.708 168.735 185.266 171.183 186.382C173.663 187.498 175.709 189.11 177.321 191.218L170.393 197.402C169.432 196.193 168.363 195.263 167.185 194.612C166.038 193.93 164.736 193.589 163.279 193.589C162.132 193.589 161.094 193.775 160.164 194.147C159.234 194.519 158.428 195.061 157.746 195.774C157.095 196.487 156.583 197.355 156.211 198.378C155.839 199.37 155.653 200.486 155.653 201.726C155.653 202.966 155.839 204.097 156.211 205.12C156.583 206.112 157.095 206.965 157.746 207.678C158.428 208.391 159.234 208.933 160.164 209.305C161.094 209.677 162.132 209.863 163.279 209.863C164.736 209.863 166.038 209.538 167.185 208.887C168.363 208.205 169.432 207.259 170.393 206.05L177.321 212.234C175.709 214.311 173.663 215.923 171.183 217.07C168.735 218.186 165.914 218.744 162.721 218.744ZM180.489 218V185.452H189.51L202.529 206.701H197.786L210.434 185.452H219.454L219.547 218H209.55L209.457 200.517H211.038L202.39 215.071H197.554L188.533 200.517H190.486V218H180.489ZM236.988 218.744C234.26 218.744 231.626 218.434 229.084 217.814C226.542 217.194 224.45 216.388 222.807 215.396L226.34 207.399C227.89 208.298 229.611 209.026 231.502 209.584C233.423 210.111 235.283 210.374 237.081 210.374C238.135 210.374 238.957 210.312 239.546 210.188C240.166 210.033 240.615 209.832 240.894 209.584C241.173 209.305 241.313 208.98 241.313 208.608C241.313 208.019 240.987 207.554 240.336 207.213C239.685 206.872 238.817 206.593 237.732 206.376C236.678 206.128 235.516 205.88 234.245 205.632C232.974 205.353 231.688 204.996 230.386 204.562C229.115 204.128 227.937 203.555 226.852 202.842C225.798 202.129 224.945 201.199 224.295 200.052C223.644 198.874 223.318 197.417 223.318 195.681C223.318 193.666 223.876 191.838 224.992 190.195C226.139 188.521 227.828 187.188 230.06 186.196C232.323 185.204 235.128 184.708 238.476 184.708C240.677 184.708 242.847 184.94 244.986 185.405C247.125 185.87 249.047 186.583 250.751 187.544L247.45 195.495C245.838 194.689 244.273 194.085 242.754 193.682C241.266 193.279 239.809 193.078 238.383 193.078C237.329 193.078 236.492 193.17 235.872 193.356C235.252 193.542 234.803 193.79 234.524 194.1C234.276 194.41 234.152 194.751 234.152 195.123C234.152 195.681 234.477 196.131 235.128 196.472C235.779 196.782 236.632 197.045 237.686 197.262C238.771 197.479 239.949 197.712 241.22 197.96C242.521 198.208 243.808 198.549 245.079 198.983C246.35 199.417 247.512 199.99 248.566 200.703C249.651 201.416 250.519 202.346 251.17 203.493C251.821 204.64 252.146 206.066 252.146 207.771C252.146 209.754 251.573 211.583 250.426 213.257C249.31 214.9 247.636 216.233 245.404 217.256C243.172 218.248 240.367 218.744 236.988 218.744Z" fill="#65B2FF"/>
<path d="M339.004 198.104H287.952C285.654 198.104 283.79 196.24 283.79 193.942V167.509C283.79 165.211 285.654 163.348 287.952 163.348H339.004C341.302 163.348 343.165 165.211 343.165 167.509V193.942C343.165 196.241 341.303 198.104 339.004 198.104Z" fill="#3664B7"/>
<path d="M326.087 178.308L318.849 188.577L306.24 170.688L291.102 192.165H316.32H321.378H335.854L326.087 178.308Z" fill="#D1FFFF"/>
<path d="M319.148 176.047C321.016 176.047 322.53 174.533 322.53 172.665C322.53 170.797 321.016 169.283 319.148 169.283C317.281 169.283 315.767 170.797 315.767 172.665C315.767 174.533 317.281 176.047 319.148 176.047Z" fill="#D1FFFF"/>
<path d="M339.004 237.084H287.952C285.654 237.084 283.79 235.221 283.79 232.923V206.49C283.79 204.192 285.654 202.328 287.952 202.328H339.004C341.302 202.328 343.165 204.192 343.165 206.49V232.923C343.165 235.222 341.303 237.084 339.004 237.084Z" fill="#97F2F5"/>
<path d="M313.478 232.608C320.604 232.608 326.38 226.832 326.38 219.706C326.38 212.581 320.604 206.805 313.478 206.805C306.353 206.805 300.577 212.581 300.577 219.706C300.577 226.832 306.353 232.608 313.478 232.608Z" fill="white"/>
<path d="M321.01 219.706L308.721 212.611V226.801L321.01 219.706Z" fill="#97F2F5"/>
<path d="M386.518 237.083H353.016C350.717 237.083 348.854 235.219 348.854 232.921V167.509C348.854 165.211 350.717 163.348 353.016 163.348H386.518C388.817 163.348 390.68 165.211 390.68 167.509V232.921C390.68 235.22 388.817 237.083 386.518 237.083Z" fill="#4987E5"/>
<path d="M381.19 190.986L374.76 184.556C377.557 180.892 377.291 175.622 373.944 172.275C370.296 168.627 364.361 168.627 360.713 172.275C357.066 175.922 357.066 181.857 360.713 185.505C364.061 188.853 369.33 189.118 372.995 186.322L379.425 192.752C379.913 193.239 380.703 193.239 381.19 192.752C381.678 192.265 381.678 191.474 381.19 190.986ZM372.178 183.74C369.504 186.413 365.152 186.413 362.479 183.74C359.805 181.065 359.805 176.714 362.479 174.041C365.152 171.367 369.504 171.367 372.178 174.041C374.852 176.714 374.852 181.066 372.178 183.74Z" fill="white"/>
<path d="M369.767 198.943H354.125V201.718H369.767V198.943Z" fill="#65B2FF"/>
<path d="M385.582 204.035H354.125V205.712H385.582V204.035Z" fill="#65B2FF"/>
<path d="M385.582 206.949H354.125V208.626H385.582V206.949Z" fill="#65B2FF"/>
<path d="M373.686 209.861H354.125V211.538H373.686V209.861Z" fill="#65B2FF"/>
<path d="M385.582 214.232H354.125V215.909H385.582V214.232Z" fill="#65B2FF"/>
<path d="M385.582 217.145H354.125V218.821H385.582V217.145Z" fill="#65B2FF"/>
<path d="M385.582 220.059H354.125V221.735H385.582V220.059Z" fill="#65B2FF"/>
<path d="M361.946 222.971H354.125V224.647H361.946V222.971Z" fill="#65B2FF"/>
<path d="M385.582 227.369H354.125V229.046H385.582V227.369Z" fill="#65B2FF"/>
<path d="M379.096 230.281H354.125V231.958H379.096V230.281Z" fill="#65B2FF"/>
<path d="M146.381 243.74H120.644V245.417H146.381V243.74Z" fill="#D1FFFF"/>
<path d="M199.718 246.965H120.644V248.641H199.718V246.965Z" fill="#D1FFFF"/>
<path d="M199.718 250.191H120.644V251.868H199.718V250.191Z" fill="#D1FFFF"/>
<path d="M199.718 253.416H120.644V255.092H199.718V253.416Z" fill="#D1FFFF"/>
<path d="M177.595 256.643H120.644V258.319H177.595V256.643Z" fill="#D1FFFF"/>
<path d="M261.456 243.74H215.259V245.417H261.456V243.74Z" fill="#D1FFFF"/>
<path d="M294.334 246.965H215.259V248.641H294.334V246.965Z" fill="#D1FFFF"/>
<path d="M232.947 250.191H215.259V251.868H232.947V250.191Z" fill="#D1FFFF"/>
<path d="M294.334 253.416H215.259V255.092H294.334V253.416Z" fill="#D1FFFF"/>
<path d="M245.433 256.643H215.259V258.319H245.433V256.643Z" fill="#D1FFFF"/>
<path d="M343.166 243.74H309.875V245.417H343.166V243.74Z" fill="#D1FFFF"/>
<path d="M388.95 246.965H309.875V248.641H388.95V246.965Z" fill="#D1FFFF"/>
<path d="M388.95 250.191H309.875V251.868H388.95V250.191Z" fill="#D1FFFF"/>
<path d="M388.95 253.416H309.875V255.092H388.95V253.416Z" fill="#D1FFFF"/>
<path d="M326.38 256.643H309.875V258.319H326.38V256.643Z" fill="#D1FFFF"/>
<path d="M171.005 300.863H120.644V302.54H171.005V300.863Z" fill="#D1FFFF"/>
<path d="M199.718 304.088H120.644V305.764H199.718V304.088Z" fill="#D1FFFF"/>
<path d="M199.718 307.314H120.644V308.991H199.718V307.314Z" fill="#D1FFFF"/>
<path d="M199.718 310.539H120.644V312.215H199.718V310.539Z" fill="#D1FFFF"/>
<path d="M145.824 313.766H120.644V315.442H145.824V313.766Z" fill="#D1FFFF"/>
<path d="M230.935 300.863H215.259V302.54H230.935V300.863Z" fill="#D1FFFF"/>
<path d="M294.334 304.088H215.259V305.764H294.334V304.088Z" fill="#D1FFFF"/>
<path d="M294.334 307.314H215.259V308.991H294.334V307.314Z" fill="#D1FFFF"/>
<path d="M294.334 310.539H215.259V312.215H294.334V310.539Z" fill="#D1FFFF"/>
<path d="M266.866 313.766H215.259V315.442H266.866V313.766Z" fill="#D1FFFF"/>
<path d="M352.6 300.863H309.875V302.54H352.6V300.863Z" fill="#D1FFFF"/>
<path d="M388.95 304.088H309.875V305.764H388.95V304.088Z" fill="#D1FFFF"/>
<path d="M388.95 307.314H309.875V308.991H388.95V307.314Z" fill="#D1FFFF"/>
<path d="M388.95 310.539H309.875V312.215H388.95V310.539Z" fill="#D1FFFF"/>
<path d="M361.131 313.766H309.875V315.442H361.131V313.766Z" fill="#D1FFFF"/>
<path d="M201.525 296.186H124.805C122.506 296.186 120.644 294.323 120.644 292.024V269.55C120.644 267.252 122.506 265.389 124.805 265.389H201.525C203.823 265.389 205.687 267.252 205.687 269.55V292.024C205.687 294.323 203.823 296.186 201.525 296.186Z" fill="#3664B7"/>
<path d="M293.156 296.186H216.436C214.138 296.186 212.275 294.323 212.275 292.024V269.55C212.275 267.252 214.138 265.389 216.436 265.389H293.156C295.454 265.389 297.318 267.252 297.318 269.55V292.024C297.318 294.323 295.455 296.186 293.156 296.186Z" fill="#4987E5"/>
<path d="M384.788 296.186H308.068C305.769 296.186 303.906 294.323 303.906 292.024V269.55C303.906 267.252 305.769 265.389 308.068 265.389H384.788C387.087 265.389 388.95 267.252 388.95 269.55V292.024C388.95 294.323 387.086 296.186 384.788 296.186Z" fill="#4987E5"/>
<path d="M124.805 287.861V273.711C124.805 271.412 126.668 269.549 128.967 269.549H159.003C161.301 269.549 163.165 271.412 163.165 273.711V287.861C163.165 290.159 161.301 292.023 159.003 292.023H128.967C126.668 292.023 124.805 290.16 124.805 287.861Z" fill="#65B2FF"/>
<path d="M152.867 279.083L147.769 286.317L138.887 273.715L128.223 288.845H145.987H149.55H159.747L152.867 279.083Z" fill="#D1FFFF"/>
<path d="M150.362 275.109C150.362 276.424 149.295 277.491 147.979 277.491C146.663 277.491 145.597 276.425 145.597 275.109C145.597 273.793 146.663 272.727 147.979 272.727C149.295 272.727 150.362 273.793 150.362 275.109Z" fill="#D1FFFF"/>
<path d="M215.848 287.861V273.711C215.848 271.412 217.712 269.549 220.01 269.549H250.046C252.345 269.549 254.208 271.412 254.208 273.711V287.861C254.208 290.159 252.345 292.023 250.046 292.023H220.01C217.712 292.023 215.848 290.16 215.848 287.861Z" fill="#65B2FF"/>
<path d="M243.91 279.083L238.811 286.317L229.929 273.715L219.266 288.845H237.03H240.592H250.79L243.91 279.083Z" fill="#D1FFFF"/>
<path d="M241.404 275.109C241.404 276.424 240.338 277.491 239.022 277.491C237.706 277.491 236.639 276.425 236.639 275.109C236.639 273.793 237.706 272.727 239.022 272.727C240.338 272.727 241.404 273.793 241.404 275.109Z" fill="#D1FFFF"/>
<path d="M255.385 287.861V273.711C255.385 271.412 257.249 269.549 259.547 269.549H289.584C291.882 269.549 293.745 271.412 293.745 273.711V287.861C293.745 290.159 291.882 292.023 289.584 292.023H259.547C257.249 292.023 255.385 290.16 255.385 287.861Z" fill="#65B2FF"/>
<path d="M274.565 287.882C278.484 287.882 281.66 284.705 281.66 280.786C281.66 276.868 278.484 273.691 274.565 273.691C270.647 273.691 267.47 276.868 267.47 280.786C267.47 284.705 270.647 287.882 274.565 287.882Z" fill="white"/>
<path d="M278.707 280.787L271.948 276.885V284.689L278.707 280.787Z" fill="#65B2FF"/>
<path d="M179.255 273.428H168.508V275.104H179.255V273.428Z" fill="#65B2FF"/>
<path d="M201.525 276.652H168.508V278.329H201.525V276.652Z" fill="#65B2FF"/>
<path d="M201.525 279.879H168.508V281.555H201.525V279.879Z" fill="#65B2FF"/>
<path d="M201.525 283.104H168.508V284.78H201.525V283.104Z" fill="#65B2FF"/>
<path d="M192.288 286.33H168.508V288.006H192.288V286.33Z" fill="#65B2FF"/>
<path d="M308.068 287.861V273.711C308.068 271.412 309.932 269.549 312.23 269.549H342.266C344.564 269.549 346.428 271.412 346.428 273.711V287.861C346.428 290.159 344.564 292.023 342.266 292.023H312.23C309.931 292.023 308.068 290.16 308.068 287.861Z" fill="#65B2FF"/>
<path d="M336.13 279.083L331.031 286.317L322.149 273.715L311.486 288.845H329.25H332.813H343.01L336.13 279.083Z" fill="#D1FFFF"/>
<path d="M333.624 275.109C333.624 276.424 332.558 277.491 331.242 277.491C329.927 277.491 328.86 276.425 328.86 275.109C328.86 273.793 329.926 272.727 331.242 272.727C332.558 272.727 333.624 273.793 333.624 275.109Z" fill="#D1FFFF"/>
<path d="M375.55 273.428H351.771V275.104H375.55V273.428Z" fill="#65B2FF"/>
<path d="M384.788 276.652H351.771V278.329H384.788V276.652Z" fill="#65B2FF"/>
<path d="M368.279 279.879H351.771V281.555H368.279V279.879Z" fill="#65B2FF"/>
<path d="M384.788 283.104H351.771V284.78H384.788V283.104Z" fill="#65B2FF"/>
<path d="M375.55 286.33H351.771V288.006H375.55V286.33Z" fill="#65B2FF"/>
<path d="M117.144 307.312H46.3934V349.547H117.144V307.312Z" fill="white"/>
<path d="M117.144 307.312L46.3934 349.547H117.144V307.312Z" fill="#C7D2D7"/>
<path d="M78.9197 344.375L73.3012 337.754H39.1793V344.375V348.714V395.498H124.358V344.375H78.9197Z" fill="#EA9E44"/>
<path d="M478.068 247.746H409.814C407.515 247.746 405.652 249.609 405.652 251.908V299.147L381.556 313.059L405.652 326.971V370.849C405.652 373.148 407.515 375.011 409.814 375.011H478.068C480.366 375.011 482.229 373.148 482.229 370.849V251.908C482.229 249.61 480.366 247.746 478.068 247.746Z" fill="#6C6FC3"/>
<path d="M449.975 331.561V292.809C455.598 290.45 459.548 284.894 459.548 278.414C459.548 271.934 455.598 266.379 449.975 264.02V275.813C449.975 279.146 447.274 281.848 443.941 281.848C440.608 281.848 437.906 279.146 437.906 275.813V264.02C432.283 266.379 428.334 271.935 428.334 278.414C428.334 284.894 432.283 290.45 437.906 292.809V331.561C434.245 333.659 431.772 337.596 431.772 342.119C431.772 347.286 434.997 351.689 439.539 353.455V343.88C439.539 341.449 441.51 339.478 443.942 339.478C446.373 339.478 448.344 341.449 448.344 343.88V353.455C452.886 351.69 456.112 347.286 456.112 342.119C456.11 337.596 453.637 333.659 449.975 331.561Z" fill="white"/>
<path d="M443.941 332.049C442.485 332.049 441.305 330.869 441.305 329.413V295.122C441.305 293.667 442.485 292.486 443.941 292.486C445.397 292.486 446.577 293.667 446.577 295.122V329.413C446.577 330.869 445.397 332.049 443.941 332.049Z" fill="#C7D2D7"/>
<path d="M126.08 244.576L111.792 236.328V217.752C111.792 215.454 109.929 213.59 107.63 213.59H17.4104C15.1122 213.59 13.2485 215.454 13.2485 217.752V269.725C13.2485 272.024 15.1122 273.887 17.4104 273.887H107.63C109.929 273.887 111.792 272.024 111.792 269.725V252.826L126.08 244.576Z" fill="#67BB82"/>
<path d="M48.148 243.735C48.148 246.79 45.6717 249.267 42.6161 249.267C39.5605 249.267 37.0842 246.791 37.0842 243.735C37.0842 240.68 39.5605 238.203 42.6161 238.203C45.6717 238.203 48.148 240.68 48.148 243.735Z" fill="white"/>
<path d="M68.0523 243.735C68.0523 246.79 65.576 249.267 62.5204 249.267C59.4656 249.267 56.9885 246.791 56.9885 243.735C56.9885 240.68 59.4648 238.203 62.5204 238.203C65.5752 238.204 68.0523 240.68 68.0523 243.735Z" fill="white"/>
<path d="M87.9558 243.735C87.9558 246.79 85.4795 249.267 82.4239 249.267C79.3683 249.267 76.892 246.791 76.892 243.735C76.892 240.68 79.3692 238.203 82.4239 238.203C85.4787 238.203 87.9558 240.68 87.9558 243.735Z" fill="white"/>
<path d="M455.945 213.674C474.2 213.674 489 198.875 489 180.619C489 162.363 474.2 147.564 455.945 147.564C440.498 147.564 427.528 158.161 423.902 172.48L409.805 180.619L423.902 188.758C427.528 203.077 440.498 213.674 455.945 213.674Z" fill="#CC6164"/>
<path d="M472.957 168.382C468.893 164.318 462.306 164.318 458.242 168.382L455.838 170.786L453.433 168.382C449.369 164.318 442.782 164.318 438.718 168.382C434.655 172.445 434.655 179.033 438.718 183.096L441.123 185.501L455.838 200.215L472.956 183.097C477.02 179.033 477.02 172.445 472.957 168.382Z" fill="white"/>
<path d="M291.266 103.491H288.341C282.899 89.7353 269.49 80 253.799 80C234.37 80 218.434 94.9201 216.802 113.926H213.11C205.964 113.926 200.173 119.719 200.173 126.865C200.173 134.01 205.965 139.803 213.11 139.803H224.375H248.898H260.699H283.224H291.268C301.295 139.803 309.423 131.674 309.423 121.647C309.421 111.62 301.293 103.491 291.266 103.491Z" fill="white"/>
<path d="M277.394 127.533L254.797 100.543L232.2 127.533H243.837V145.619H265.756V127.533H277.394Z" fill="#67BB82"/>
</svg>
