<svg width="512" height="512" viewBox="0 0 512 512" fill="none" xmlns="http://www.w3.org/2000/svg">
<path fill-rule="evenodd" clip-rule="evenodd" d="M187.302 306.613C194.134 294.736 207.088 286.373 222.537 281.583C241.727 298.251 270.272 298.251 289.463 281.583C304.912 286.374 317.866 294.736 324.698 306.641C291.929 355.454 220.071 355.454 187.302 306.613ZM473.063 135.315L454.212 159.665L467.592 187.388L438.622 176.957L416.37 198.274L417.334 167.49L390.178 152.92L419.772 144.331L425.243 114.029L442.562 139.484L473.063 135.317V135.315ZM381.334 43.5571L377.167 74.0861L402.622 91.4061L372.32 96.8771L363.702 126.442L349.132 99.3151L318.348 100.25L339.664 78.0261L329.261 49.0561L356.984 62.4351L381.334 43.5571ZM38.937 135.315L69.466 139.482L86.785 114.027L92.256 144.329L121.821 152.918L94.694 167.488L95.63 198.272L73.406 176.955L44.407 187.386L57.815 159.663L38.936 135.313L38.937 135.315ZM130.694 43.5571L155.015 62.4361L182.766 49.0571L172.334 78.0271L193.65 100.251L162.866 99.3161L148.296 126.443L139.707 96.8781L109.376 91.4071L134.859 74.0871L130.692 43.5581L130.694 43.5571ZM256.014 9.99512L267.664 38.5121L298.363 40.7801L274.864 60.6511L282.177 90.5851L256.013 74.3431L229.821 90.5851L237.162 60.6511L213.635 40.7801L244.363 38.5121L256.013 9.99512H256.014ZM256.014 203.97C277.586 203.97 295.047 221.46 295.047 243.032C295.047 264.604 277.586 282.093 256.014 282.093C234.442 282.093 216.952 264.603 216.952 243.032C216.952 221.461 234.442 203.97 256.014 203.97ZM232.543 121.17C246.603 111.305 265.425 111.305 279.484 121.17C287.336 126.698 295.84 128.965 305.393 128.115C322.515 126.613 338.813 136.024 346.07 151.586C350.124 160.317 356.331 166.525 365.034 170.578C380.624 177.835 390.035 194.106 388.505 211.227C387.683 220.808 389.951 229.284 395.45 237.164C405.315 251.224 405.315 270.046 395.45 284.106C389.951 291.958 387.683 300.462 388.505 310.043C390.036 327.136 380.625 343.435 365.034 350.692C356.331 354.745 350.124 360.953 346.07 369.656C338.813 385.247 322.514 394.658 305.393 393.155C295.84 392.305 287.336 394.572 279.484 400.1C265.424 409.965 246.602 409.965 232.543 400.1C224.663 394.573 216.187 392.305 206.606 393.155C189.484 394.657 173.186 385.246 165.957 369.656C161.903 360.954 155.667 354.746 146.965 350.692C131.403 343.435 121.992 327.136 123.494 310.043C124.344 300.462 122.077 291.958 116.549 284.106C106.684 270.046 106.684 251.224 116.549 237.164C122.076 229.284 124.344 220.808 123.494 211.227C121.992 194.106 131.403 177.835 146.965 170.578C155.667 166.525 161.903 160.317 165.957 151.586C173.186 136.024 189.484 126.613 206.606 128.115C216.187 128.966 224.663 126.698 232.543 121.17ZM256.014 165.958C308.285 165.958 350.663 208.364 350.663 260.635C350.663 312.906 308.285 355.284 256.014 355.284C203.743 355.284 161.337 312.906 161.337 260.635C161.337 208.364 203.715 165.958 256.014 165.958ZM152.805 370.704L124.005 478.194L179.365 449.167L212.814 502.005L235.973 415.548C232.332 414.063 228.871 412.17 225.655 409.907C220.127 406.023 214.373 404.493 207.655 405.088C185.516 407.044 164.426 394.855 155.072 374.729C154.392 373.283 153.656 371.923 152.805 370.704ZM359.196 370.704L387.996 478.194L332.636 449.167L299.187 502.005L276.028 415.548C279.656 414.074 283.114 412.175 286.374 409.907C291.902 406.023 297.628 404.493 304.346 405.088C326.485 407.044 347.575 394.855 356.929 374.729C357.581 373.331 358.338 371.986 359.196 370.704Z" fill=""/>
</svg>
