<svg width="512" height="512" viewBox="0 0 512 512" fill="none" xmlns="http://www.w3.org/2000/svg">
<g clip-path="url(#clip0_236_756)">
<path d="M37.155 125.218C-8.17409 190.378 -2.52503 275.131 32.0862 344.371C32.9054 346.009 33.7758 347.631 34.6291 349.269C35.1582 350.31 35.6702 351.368 36.2334 352.409L37.2574 354.201C37.8376 355.294 38.452 356.335 39.0664 357.427C40.1416 359.321 41.2339 361.199 42.3603 363.093L44.2376 366.199C45.4835 368.196 46.7464 370.193 48.0947 372.207C48.6238 373.043 49.1699 373.913 49.716 374.733C51.5251 377.395 53.3683 380.091 55.2627 382.737C55.331 382.805 55.3651 382.907 55.4334 382.942L56.372 384.205C58.6063 387.33 60.9283 390.392 63.3352 393.386C64.8712 395.315 66.4414 397.226 68.0286 399.155C68.6088 399.855 69.1891 400.589 69.8035 401.288C71.9368 403.78 74.1214 406.289 76.34 408.729L76.4766 408.866C76.579 409.002 76.6472 409.037 76.7326 409.173C78.883 411.545 81.1187 413.832 83.3544 416.136C84.0542 416.87 84.7539 417.57 85.4878 418.27C87.2286 420.045 88.9864 421.768 90.7784 423.475L92.9459 425.54C95.3352 427.776 97.7246 429.977 100.199 432.145C100.233 432.179 100.268 432.213 100.319 432.213C100.728 432.606 101.172 432.947 101.565 433.305C103.732 435.166 105.934 437.043 108.169 438.869L110.9 441.037C113.682 443.245 116.487 445.424 119.314 447.573C121.345 449.075 123.393 450.543 125.458 451.976C126.226 452.539 126.96 453.069 127.711 453.581C127.933 453.717 128.12 453.888 128.325 454.007C130.288 455.373 132.302 456.67 134.333 457.967L136.893 459.708C139.999 461.636 143.105 463.582 146.262 465.442L148.856 466.91C151.194 468.241 153.516 469.538 155.888 470.835C157.151 471.535 158.482 472.166 159.779 472.832C161.469 473.702 163.107 474.607 164.814 475.426C165.189 475.631 165.599 475.818 165.974 475.989L168.022 476.996C170.65 478.259 173.33 479.488 176.009 480.699C176.573 480.973 177.119 481.194 177.699 481.433C180.771 482.799 183.86 484.096 187 485.307C187.751 485.649 188.502 485.905 189.27 486.212C192.172 487.338 195.107 488.448 198.042 489.472C198.401 489.608 198.776 489.711 199.135 489.83C202.36 490.957 205.637 492.032 208.931 493.039C209.716 493.278 210.501 493.534 211.303 493.738C214.631 494.78 217.942 495.974 221.407 496.606C440.645 536.576 504.287 364.868 504.287 364.868C450.834 434.534 355.892 452.932 265.934 432.469C262.537 431.701 259.226 430.643 255.898 429.636C251.813 428.443 247.762 427.14 243.747 425.728C243.32 425.557 242.86 425.421 242.416 425.267C239.549 424.226 236.716 423.202 233.882 422.093C233.097 421.751 232.295 421.461 231.51 421.154C228.413 419.934 225.341 418.654 222.294 417.314L220.468 416.512C217.113 414.976 213.773 413.406 210.45 411.801C208.442 410.787 206.44 409.763 204.442 408.729C203.111 408.03 201.763 407.364 200.449 406.63C198.018 405.341 195.617 403.998 193.247 402.602C192.428 402.168 191.614 401.724 190.806 401.271C184.485 397.521 178.292 393.559 172.238 389.393C171.504 388.898 170.804 388.352 170.087 387.891C167.974 386.386 165.875 384.861 163.79 383.317C162.845 382.629 161.917 381.918 161.008 381.184C159.096 379.75 157.185 378.282 155.308 376.746L152.782 374.715C150.116 372.554 147.493 370.341 144.914 368.077C141.655 365.238 138.463 362.325 135.34 359.338C133.53 357.598 131.738 355.874 129.981 354.065L127.881 352C125.663 349.696 123.461 347.392 121.311 345.037L120.986 344.695C118.722 342.204 116.503 339.672 114.33 337.101L112.573 335.035C110.938 333.085 109.339 331.105 107.777 329.096C107.183 328.381 106.597 327.658 106.019 326.929C104.143 324.496 102.3 322.038 100.489 319.556C50.5523 251.443 32.5982 157.508 72.5342 80.3496" fill="#039BDF"/>
<path d="M177.87 70.3144C145.085 117.521 146.877 180.65 172.443 230.553C176.727 238.916 181.54 247.023 186.95 254.754C191.848 261.785 197.309 270.182 203.812 275.797C206.184 278.391 208.642 280.968 211.185 283.426C214.244 286.48 217.391 289.446 220.622 292.318C220.742 292.42 220.827 292.522 220.947 292.591L221.015 292.659C223.848 295.151 226.801 297.557 229.787 299.929C230.453 300.424 231.118 300.97 231.784 301.499C234.788 303.803 237.826 306.039 240.949 308.207L241.222 308.411C242.621 309.384 244.021 310.238 245.42 311.176C246.086 311.603 246.717 312.081 247.4 312.473C249.636 313.907 251.906 315.306 254.193 316.638L255.165 317.201C257.145 318.327 259.159 319.471 261.19 320.563C261.89 320.955 262.623 321.297 263.323 321.655L267.539 323.857C267.761 323.959 267.948 324.062 268.17 324.13C271.054 325.563 273.973 326.929 276.959 328.226L278.888 329.028C282.27 330.478 285.696 331.821 289.162 333.056C292.33 334.249 295.534 335.342 298.771 336.333C301.928 337.305 305.034 338.568 308.328 339.097C477.595 367.138 516.661 236.851 516.661 236.851C481.435 287.539 413.22 311.774 340.447 292.864C337.227 292.004 334.024 291.082 330.839 290.099L327.972 289.16C325.712 288.435 323.47 287.655 321.247 286.822L318.227 285.73C315.795 284.801 313.382 283.823 310.99 282.794L309.062 281.992C306.08 280.691 303.132 279.314 300.221 277.862C298.719 277.162 297.252 276.394 295.784 275.626L293.241 274.295C291.364 273.288 289.486 272.23 287.643 271.172C287.199 270.899 286.739 270.677 286.295 270.421C284.008 269.09 281.755 267.69 279.537 266.291C278.837 265.83 278.171 265.352 277.471 264.926C276.004 263.953 274.536 262.997 273.085 261.99C269.983 259.839 266.933 257.614 263.938 255.317L261.873 253.679C230.009 228.505 204.75 194.15 192.735 155.153C180.174 114.722 182.871 69.3587 204.665 32.5117" fill="#039BDF"/>
<path d="M296.193 29.3201C276.874 57.7532 274.979 93.0812 288.394 124.484C302.525 157.849 331.504 183.978 365.33 196.386C366.73 196.915 368.129 197.393 369.528 197.853L371.389 198.451C373.368 199.048 375.348 199.782 377.43 200.192C470.887 218.265 496.214 152.217 502.973 142.489C480.735 174.489 443.461 182.152 397.654 171.025C393.913 170.079 390.222 168.945 386.595 167.628C373.597 162.997 361.379 156.413 350.363 148.104C309.403 117.009 283.922 57.702 310.665 9.40332" fill="#039BDF"/>
</g>
<defs>
<clipPath id="clip0_236_756">
<rect width="512" height="512" fill="white"/>
</clipPath>
</defs>
</svg>
