<svg width="512" height="512" viewBox="0 0 512 512" fill="none" xmlns="http://www.w3.org/2000/svg">
<g clip-path="url(#clip0_236_772)">
<path d="M471.12 118.118C452.044 88.2442 411.027 75.8348 355.757 82.9587C353.804 83.1862 351.736 83.5332 349.782 83.7607C348.979 81.9257 348.176 80.085 347.256 78.25C323.472 27.8049 290.954 0 255.564 0C220.175 0 187.543 27.8061 163.872 78.25C163.068 80.085 162.148 81.9257 161.344 83.7607C159.276 83.4206 157.323 83.1862 155.37 82.9576C99.9892 75.7188 59.0832 88.2453 40.0073 118.12C20.936 147.994 26.7937 190.39 56.4382 237.5C60.4284 243.843 64.6843 250.016 69.1945 256.001C64.5985 262.203 60.3483 268.294 56.4393 274.497C26.7937 321.606 20.936 364.12 40.0073 393.883C55.519 418.241 85.6265 430.996 126.183 430.996C135.904 430.943 145.613 430.291 155.253 429.039C157.207 428.81 159.275 428.464 161.228 428.236C162.036 430.077 162.839 431.913 163.759 433.752C187.544 484.192 220.061 512.002 255.447 512.002C290.837 512.002 323.472 484.192 347.138 433.752C347.943 431.911 348.862 430.075 349.666 428.237C351.734 428.582 353.688 428.811 355.645 429.039C365.278 430.344 374.989 430.998 384.711 430.997C425.271 430.997 455.375 418.241 470.887 393.883C489.962 364.008 484.101 321.606 454.46 274.497C450.468 268.156 446.212 261.985 441.703 256.001C446.299 249.793 450.551 243.707 454.46 237.5C484.447 190.279 490.309 147.876 471.12 118.118ZM184.671 88.0166C204.087 46.6522 229.94 22.9802 255.563 22.9802C281.186 22.9802 307.04 46.6522 326.457 88.0166C326.471 88.1032 326.512 88.1832 326.573 88.2453C302.168 94.1157 278.358 102.231 255.447 112.486C232.558 102.179 208.744 94.0624 184.324 88.2453C184.554 88.2453 184.554 88.1281 184.67 88.0155L184.671 88.0166ZM359.092 256.001C359.096 274.385 358.1 292.76 356.102 311.037C341.781 322.593 326.82 333.335 311.29 343.209C293.369 354.718 274.715 365.044 255.447 374.121C236.217 364.973 217.568 354.65 199.607 343.209C184.096 333.308 169.137 322.568 154.796 311.037C150.81 274.453 150.81 237.545 154.796 200.961C185.766 176.073 219.548 154.902 255.448 137.882C274.681 147.025 293.331 157.347 311.291 168.788C326.803 178.689 341.762 189.429 356.103 200.96C358.1 219.239 359.098 237.613 359.093 256.001H359.092ZM381.035 222.563C392.288 233.043 402.879 244.21 412.749 256.001C402.878 267.789 392.286 278.955 381.035 289.434C381.726 278.407 382.072 267.263 382.072 256.001C382.072 244.74 381.727 233.595 381.035 222.563ZM351.39 343.672C347.762 363.566 342.497 383.127 335.648 402.154C317.803 398.124 300.289 392.746 283.257 386.068C297.083 378.8 310.612 370.981 323.813 362.631C333.239 356.54 342.431 350.22 351.39 343.672ZM227.871 386.068C210.869 392.833 193.347 398.213 175.478 402.154C168.63 383.127 163.365 363.566 159.738 343.672C168.585 350.22 177.777 356.54 187.314 362.513C200.758 371.131 214.316 378.944 227.871 386.068ZM130.091 289.434C118.841 278.954 108.25 267.788 98.3771 256.001C108.248 244.211 118.84 233.044 130.091 222.563C129.4 233.595 129.055 244.74 129.055 256.001C129.055 267.263 129.399 278.407 130.091 289.434ZM159.738 168.33C163.364 148.436 168.629 128.875 175.479 109.848C193.326 113.874 210.84 119.251 227.871 125.934C214.045 133.203 200.515 141.021 187.314 149.372C177.942 155.425 168.746 161.748 159.738 168.33ZM323.702 149.372C310.371 140.871 296.812 132.941 283.14 125.934C300.143 119.169 317.666 113.789 335.537 109.848C342.383 128.876 347.648 148.437 351.278 168.33C342.431 161.781 333.239 155.461 323.702 149.372ZM75.8599 225.206C51.4974 186.597 45.5237 152.014 59.3119 130.413C70.3435 113.178 94.2441 103.868 126.529 103.868C135.173 103.905 143.809 104.484 152.382 105.592H152.611C143.316 132.618 136.848 160.535 133.311 188.895C115.604 203.668 99.1189 219.846 84.0156 237.271C81.1431 233.367 78.3866 229.345 75.8599 225.206ZM152.269 406.293C143.696 407.406 135.062 407.981 126.417 408.017C94.127 408.017 70.2275 398.825 59.1993 381.472C45.4111 359.871 51.386 325.288 75.7427 286.679C78.2706 282.657 81.0305 278.518 83.903 274.497C99.0024 291.924 115.486 308.102 133.193 322.872C136.733 351.233 143.203 379.149 152.498 406.176C152.498 406.293 152.382 406.293 152.269 406.293ZM326.457 423.986C307.04 465.35 281.187 489.022 255.563 489.022C229.939 489.022 204.087 465.35 184.67 423.986C184.657 423.899 184.616 423.818 184.554 423.756C208.96 417.886 232.77 409.77 255.68 399.512C278.568 409.822 302.382 417.939 326.802 423.756C326.573 423.756 326.573 423.868 326.457 423.986ZM435.268 286.796C459.63 325.399 465.604 359.987 451.816 381.589C438.028 403.186 404.132 412.267 358.858 406.293H358.628C367.925 379.267 374.394 351.35 377.933 322.99C395.64 308.218 412.124 292.04 427.226 274.614C429.986 278.636 432.741 282.657 435.269 286.796H435.268ZM377.817 189.013C374.281 160.652 367.813 132.735 358.517 105.709H358.747C404.016 99.8469 437.911 108.811 451.7 130.413C465.488 152.014 459.513 186.597 435.155 225.206C432.628 229.228 429.868 233.367 426.996 237.388C411.965 219.934 395.516 203.754 377.817 189.013Z" fill="url(#paint0_linear_236_772)"/>
<path d="M255.564 210.499C230.435 210.499 210.062 230.871 210.062 256C210.062 281.131 230.434 301.499 255.564 301.499C280.695 301.499 301.067 281.131 301.067 256.001C301.048 230.876 280.686 210.518 255.564 210.499ZM255.564 278.518C243.127 278.518 233.042 268.438 233.042 256.001C233.042 243.564 243.127 233.478 255.564 233.478C268 233.478 278.087 243.564 278.087 256.001C278.064 268.429 267.992 278.501 255.564 278.518Z" fill="url(#paint1_linear_236_772)"/>
</g>
<defs>
<linearGradient id="paint0_linear_236_772" x1="255.598" y1="-19.763" x2="255.598" y2="537.289" gradientUnits="userSpaceOnUse">
<stop stop-color="#00EFD1"/>
<stop offset="1" stop-color="#00ACEA"/>
</linearGradient>
<linearGradient id="paint1_linear_236_772" x1="255.564" y1="-19.7629" x2="255.564" y2="537.289" gradientUnits="userSpaceOnUse">
<stop stop-color="#00EFD1"/>
<stop offset="1" stop-color="#00ACEA"/>
</linearGradient>
<clipPath id="clip0_236_772">
<rect width="512" height="512" fill="white"/>
</clipPath>
</defs>
</svg>
