<svg width="512" height="512" viewBox="0 0 512 512" fill="none" xmlns="http://www.w3.org/2000/svg">
<path d="M292.927 160.181C282.782 165.495 279.003 174.473 279.003 199.272C279.003 199.272 284.14 194.303 291.759 191.542C297.315 189.529 302.058 186.466 304.803 184.456C313.376 178.177 314.701 170.087 314.702 156.474C314.702 156.475 300.722 156.098 292.927 160.181ZM232.757 165.991C224.482 173.286 222.066 184.908 222.066 184.908L194.673 291.038L171.89 204.179C169.671 194.945 165.669 183.528 159.342 175.809C151.281 165.975 134.892 165.358 133.147 165.358C131.401 165.358 115.013 165.975 106.952 175.809C100.624 183.528 96.622 194.945 94.404 204.179L71.62 291.037L44.227 184.907C44.227 184.907 41.81 173.285 33.536 165.99C20.118 154.162 0 156.693 0 156.693L52.456 355.034C52.456 355.034 69.763 356.279 78.421 351.866C89.794 346.068 95.208 341.595 102.092 314.61C108.229 290.55 125.384 219.88 126.986 214.85C127.778 212.363 128.781 206.421 133.146 206.421C137.609 206.421 138.528 212.359 139.306 214.85C140.88 219.889 158.063 290.55 164.2 314.61C171.083 341.596 176.497 346.068 187.871 351.866C196.53 356.28 213.836 355.034 213.836 355.034L266.292 156.693C266.292 156.693 246.174 154.162 232.757 165.991ZM314.687 189.076C314.687 189.076 311.406 194.149 303.919 198.335C299.111 201.023 294.498 202.844 289.547 205.219C281.251 209.199 279.004 213.633 279.004 220.397V355.034C279.004 355.034 292.24 356.707 300.899 352.293C312.044 346.611 314.605 341.135 314.703 316.468L314.687 189.076ZM445.442 256.345L512 157.351C512 157.351 483.909 152.569 469.999 165.23C461.099 173.331 451.147 187.9 451.147 187.9L426.658 223.202C425.471 225.037 423.913 227.035 421.431 227.035C418.949 227.035 417.391 225.037 416.204 223.202L391.716 187.9C391.716 187.9 381.763 173.332 372.863 165.23C358.954 152.569 330.862 157.351 330.862 157.351L397.42 256.345L331.037 355.034C331.037 355.034 360.291 358.726 374.2 346.065C383.1 337.964 391.715 324.791 391.715 324.791L416.204 289.489C417.391 287.654 418.949 285.656 421.431 285.656C423.913 285.656 425.471 287.654 426.658 289.489L451.147 324.791C451.147 324.791 460.267 337.964 469.167 346.065C483.076 358.726 511.822 355.034 511.822 355.034L445.442 256.345Z" fill="white"/>
</svg>
