<svg width="512" height="512" viewBox="0 0 512 512" fill="none" xmlns="http://www.w3.org/2000/svg">
<g clip-path="url(#clip0_236_762)">
<path d="M153.584 158.012H125.31L202.393 375.909L245.547 252.59L212.09 158.012H182.258V137.249H314.363V158.012H283.427L360.51 375.909L388.218 296.727C424.565 195.279 358.427 163.678 358.427 141.037C358.427 118.397 376.781 100.044 399.42 100.044C400.645 100.044 401.835 100.11 403 100.219C364.639 64.0063 312.914 41.7993 255.997 41.7993C181.626 41.7993 116.117 79.708 77.7141 137.249H153.582V158.012H153.584ZM41.7988 256C41.7988 338.007 87.8918 409.238 155.576 445.232L58.9119 171.983C47.9004 197.78 41.7988 226.177 41.7988 256ZM442.416 150.449C445.48 168.489 444.552 188.766 439.851 209.121H440.703L437.464 218.376C435.545 225.058 433.128 231.894 430.383 238.611L356.679 445.094C424.222 409.056 470.197 337.902 470.197 255.999C470.197 217.62 460.094 181.604 442.416 150.449Z" fill="#00769D"/>
<path d="M189.938 459.801C210.747 466.542 232.944 470.198 255.999 470.198C277.99 470.198 299.204 466.879 319.176 460.723L256.52 283.609L189.938 459.801Z" fill="#00769D"/>
<path d="M437.019 74.9803C388.667 26.6285 324.379 0 255.999 0C187.619 0 123.332 26.6285 74.9803 74.9803C26.6285 123.332 0 187.619 0 256C0 324.38 26.6285 388.667 74.9803 437.019C123.332 485.37 187.62 511.999 256 511.999C324.38 511.999 388.667 485.37 437.02 437.019C485.371 388.667 512 324.379 512 256C511.999 187.619 485.37 123.332 437.019 74.9803ZM255.999 493.94C124.798 493.94 18.0589 387.201 18.0589 256C18.0589 124.799 124.798 18.0589 255.999 18.0589C387.199 18.0589 493.939 124.799 493.939 256C493.939 387.201 387.201 493.94 255.999 493.94Z" fill="#00769D"/>
</g>
<defs>
<clipPath id="clip0_236_762">
<rect width="512" height="512" fill="white"/>
</clipPath>
</defs>
</svg>
